<svg xmlns="http://www.w3.org/2000/svg" viewBox="0 0 1024 1536" width="1024" height="1536">
  <defs>
    <filter id="grain" x="-10%" y="-10%" width="120%" height="120%">
      <feTurbulence type="fractalNoise" baseFrequency="0.84" numOctaves="3" seed="A3"/>
      <feColorMatrix type="saturate" values="0"/>
      <feComponentTransfer>
        <feFuncA type="table" tableValues="0 0.17"/>
      </feComponentTransfer>
    </filter>
  </defs>
  <g>
    <rect x="0.0" y="0.0" width="1024.0" height="1536.0" rx="0" fill="#eee5d3" stroke="none" stroke-width="1" opacity="1.0"/>
<rect x="26.0" y="26.0" width="972.0" height="1484.0" rx="0" fill="none" stroke="#9b8c73" stroke-width="1.2" opacity="0.58"/>
<rect x="745.0" y="340.0" width="377.0" height="224.0" rx="0" fill="#2f6f72" stroke="none" stroke-width="1" opacity="0.2891285619430096" transform="rotate(-3.9173050514838317 933.5 452.0)"/>
<rect x="839.0" y="1006.0" width="252.0" height="270.0" rx="0" fill="#24211d" stroke="none" stroke-width="1" opacity="0.30325832843408085" transform="rotate(3.277896174330488 965.0 1141.0)"/>
<rect x="-42.0" y="515.0" width="187.0" height="275.0" rx="0" fill="#2f6f72" stroke="none" stroke-width="1" opacity="0.1699745367513934" transform="rotate(-3.3639661129589307 51.5 652.5)"/>
<rect x="307.0" y="1049.0" width="472.0" height="320.0" rx="0" fill="#24211d" stroke="none" stroke-width="1" opacity="0.28171849332462157" transform="rotate(2.093676998259416 543.0 1209.0)"/>
<rect x="59.0" y="330.0" width="283.0" height="322.0" rx="0" fill="#9b762f" stroke="none" stroke-width="1" opacity="0.2962773189075265" transform="rotate(1.426158221298068 200.5 491.0)"/>
<rect x="17.0" y="478.0" width="226.0" height="229.0" rx="0" fill="#d7cbb4" stroke="none" stroke-width="1" opacity="0.39362735162162554" transform="rotate(1.3267301687066002 130.0 592.5)"/>
<rect x="799.0" y="1026.0" width="396.0" height="213.0" rx="0" fill="#9b762f" stroke="none" stroke-width="1" opacity="0.19261452507076668" transform="rotate(-2.681547543021236 997.0 1132.5)"/>
<rect x="816.0" y="-5.0" width="120.0" height="137.0" rx="0" fill="#2f6f72" stroke="none" stroke-width="1" opacity="0.19662590931152096" transform="rotate(-2.8828112002103112 876.0 63.5)"/>
<rect x="864.0" y="1381.0" width="438.0" height="136.0" rx="0" fill="#777269" stroke="none" stroke-width="1" opacity="0.33139420456516977" transform="rotate(2.204937777200576 1083.0 1449.0)"/>
<rect x="270.0" y="400.0" width="422.0" height="185.0" rx="0" fill="#d7cbb4" stroke="none" stroke-width="1" opacity="0.3313523337870242" transform="rotate(0.6999893632246978 481.0 492.5)"/>
<rect x="31.0" y="367.0" width="471.0" height="323.0" rx="0" fill="#d7cbb4" stroke="none" stroke-width="1" opacity="0.27449114349430626" transform="rotate(2.9645522697441296 266.5 528.5)"/>
<rect x="330.0" y="467.0" width="167.0" height="195.0" rx="0" fill="#24211d" stroke="none" stroke-width="1" opacity="0.18533755357807652" transform="rotate(-1.5750158002353576 413.5 564.5)"/>
<rect x="-3.0" y="833.0" width="321.0" height="82.0" rx="0" fill="#d7cbb4" stroke="none" stroke-width="1" opacity="0.380362898738021" transform="rotate(0.19903940384540775 157.5 874.0)"/>
<rect x="590.0" y="611.0" width="384.0" height="249.0" rx="0" fill="#d7cbb4" stroke="none" stroke-width="1" opacity="0.284400789049247" transform="rotate(1.1019752690800972 782.0 735.5)"/>
<rect x="343.0" y="1414.0" width="262.0" height="191.0" rx="0" fill="#2f6f72" stroke="none" stroke-width="1" opacity="0.18978255784480683" transform="rotate(0.011467427840960553 474.0 1509.5)"/>
<rect x="-32.0" y="946.0" width="298.0" height="161.0" rx="0" fill="#24211d" stroke="none" stroke-width="1" opacity="0.27492791668039673" transform="rotate(2.480855380911338 117.0 1026.5)"/>
<rect x="704.0" y="599.0" width="252.0" height="272.0" rx="0" fill="#24211d" stroke="none" stroke-width="1" opacity="0.3490701226060927" transform="rotate(1.3585633460797553 830.0 735.0)"/>
<rect x="664.0" y="650.0" width="403.0" height="110.0" rx="0" fill="#d7cbb4" stroke="none" stroke-width="1" opacity="0.2973006354447604" transform="rotate(0.6668479881466576 865.5 705.0)"/>
<rect x="-63.0" y="1085.0" width="211.0" height="160.0" rx="0" fill="#ad5638" stroke="none" stroke-width="1" opacity="0.350483188146672" transform="rotate(3.8901301037921385 42.5 1165.0)"/>
<rect x="264.0" y="672.0" width="223.0" height="266.0" rx="0" fill="#24211d" stroke="none" stroke-width="1" opacity="0.3036544059365547" transform="rotate(3.9703265208578404 375.5 805.0)"/>
<line x1="66.0" y1="42.0" x2="66.0" y2="1494.0" stroke="#9b8c73" stroke-width="1" opacity="0.12"/>
<line x1="158.0" y1="42.0" x2="158.0" y2="1494.0" stroke="#9b8c73" stroke-width="1" opacity="0.12"/>
<line x1="250.0" y1="42.0" x2="250.0" y2="1494.0" stroke="#9b8c73" stroke-width="1" opacity="0.12"/>
<line x1="342.0" y1="42.0" x2="342.0" y2="1494.0" stroke="#9b8c73" stroke-width="1" opacity="0.12"/>
<line x1="434.0" y1="42.0" x2="434.0" y2="1494.0" stroke="#9b8c73" stroke-width="1" opacity="0.12"/>
<line x1="526.0" y1="42.0" x2="526.0" y2="1494.0" stroke="#9b8c73" stroke-width="1" opacity="0.12"/>
<line x1="618.0" y1="42.0" x2="618.0" y2="1494.0" stroke="#9b8c73" stroke-width="1" opacity="0.12"/>
<line x1="710.0" y1="42.0" x2="710.0" y2="1494.0" stroke="#9b8c73" stroke-width="1" opacity="0.12"/>
<line x1="802.0" y1="42.0" x2="802.0" y2="1494.0" stroke="#9b8c73" stroke-width="1" opacity="0.12"/>
<line x1="894.0" y1="42.0" x2="894.0" y2="1494.0" stroke="#9b8c73" stroke-width="1" opacity="0.12"/>
<line x1="986.0" y1="42.0" x2="986.0" y2="1494.0" stroke="#9b8c73" stroke-width="1" opacity="0.12"/>
<line x1="42.0" y1="72.0" x2="982.0" y2="72.0" stroke="#9b8c73" stroke-width="1" opacity="0.1"/>
<line x1="42.0" y1="178.0" x2="982.0" y2="178.0" stroke="#9b8c73" stroke-width="1" opacity="0.1"/>
<line x1="42.0" y1="284.0" x2="982.0" y2="284.0" stroke="#9b8c73" stroke-width="1" opacity="0.1"/>
<line x1="42.0" y1="390.0" x2="982.0" y2="390.0" stroke="#9b8c73" stroke-width="1" opacity="0.1"/>
<line x1="42.0" y1="496.0" x2="982.0" y2="496.0" stroke="#9b8c73" stroke-width="1" opacity="0.1"/>
<line x1="42.0" y1="602.0" x2="982.0" y2="602.0" stroke="#9b8c73" stroke-width="1" opacity="0.1"/>
<line x1="42.0" y1="708.0" x2="982.0" y2="708.0" stroke="#9b8c73" stroke-width="1" opacity="0.1"/>
<line x1="42.0" y1="814.0" x2="982.0" y2="814.0" stroke="#9b8c73" stroke-width="1" opacity="0.1"/>
<line x1="42.0" y1="920.0" x2="982.0" y2="920.0" stroke="#9b8c73" stroke-width="1" opacity="0.1"/>
<line x1="42.0" y1="1026.0" x2="982.0" y2="1026.0" stroke="#9b8c73" stroke-width="1" opacity="0.1"/>
<line x1="42.0" y1="1132.0" x2="982.0" y2="1132.0" stroke="#9b8c73" stroke-width="1" opacity="0.1"/>
<line x1="42.0" y1="1238.0" x2="982.0" y2="1238.0" stroke="#9b8c73" stroke-width="1" opacity="0.1"/>
<line x1="42.0" y1="1344.0" x2="982.0" y2="1344.0" stroke="#9b8c73" stroke-width="1" opacity="0.1"/>
<line x1="42.0" y1="1450.0" x2="982.0" y2="1450.0" stroke="#9b8c73" stroke-width="1" opacity="0.1"/>
<circle cx="572.0" cy="1463.0" r="4.4" fill="#1d1a16" stroke="none" stroke-width="2" opacity="0.08981295143984801"/>
<circle cx="54.0" cy="134.0" r="4.9" fill="#1d1a16" stroke="none" stroke-width="2" opacity="0.09338242433964761"/>
<circle cx="576.0" cy="52.0" r="1.4" fill="#1d1a16" stroke="none" stroke-width="2" opacity="0.10492957605876649"/>
<circle cx="771.0" cy="806.0" r="4.1" fill="#1d1a16" stroke="none" stroke-width="2" opacity="0.08351811490429997"/>
<circle cx="290.0" cy="1372.0" r="2.5" fill="#1d1a16" stroke="none" stroke-width="2" opacity="0.0405567724780464"/>
<circle cx="951.0" cy="831.0" r="1.4" fill="#1d1a16" stroke="none" stroke-width="2" opacity="0.07975011314082324"/>
<circle cx="637.0" cy="879.0" r="2.2" fill="#1d1a16" stroke="none" stroke-width="2" opacity="0.0999663451571931"/>
<circle cx="924.0" cy="51.0" r="5.0" fill="#1d1a16" stroke="none" stroke-width="2" opacity="0.08913531390994649"/>
<circle cx="754.0" cy="839.0" r="2.3" fill="#1d1a16" stroke="none" stroke-width="2" opacity="0.08941265960616093"/>
<circle cx="136.0" cy="1160.0" r="1.2" fill="#1d1a16" stroke="none" stroke-width="2" opacity="0.048995604897641765"/>
<circle cx="917.0" cy="29.0" r="5.6" fill="#1d1a16" stroke="none" stroke-width="2" opacity="0.047641425019817975"/>
<circle cx="278.0" cy="1257.0" r="4.8" fill="#1d1a16" stroke="none" stroke-width="2" opacity="0.050866653518387664"/>
<circle cx="774.0" cy="356.0" r="3.4" fill="#1d1a16" stroke="none" stroke-width="2" opacity="0.09123206381347318"/>
<circle cx="865.0" cy="916.0" r="1.4" fill="#1d1a16" stroke="none" stroke-width="2" opacity="0.061390166161382"/>
<circle cx="512.0" cy="1195.0" r="5.5" fill="#1d1a16" stroke="none" stroke-width="2" opacity="0.09450606407115827"/>
<circle cx="268.0" cy="490.0" r="3.8" fill="#1d1a16" stroke="none" stroke-width="2" opacity="0.08841695147399117"/>
<circle cx="440.0" cy="363.0" r="4.6" fill="#1d1a16" stroke="none" stroke-width="2" opacity="0.0893795636473094"/>
<circle cx="221.0" cy="685.0" r="1.9" fill="#1d1a16" stroke="none" stroke-width="2" opacity="0.09318463823930195"/>
<circle cx="76.0" cy="1196.0" r="3.8" fill="#1d1a16" stroke="none" stroke-width="2" opacity="0.10487915035981712"/>
<circle cx="79.0" cy="1111.0" r="5.6" fill="#1d1a16" stroke="none" stroke-width="2" opacity="0.07507885097908391"/>
<circle cx="137.0" cy="1021.0" r="1.2" fill="#1d1a16" stroke="none" stroke-width="2" opacity="0.10354574203319754"/>
<circle cx="480.0" cy="102.0" r="3.0" fill="#1d1a16" stroke="none" stroke-width="2" opacity="0.05210173804516577"/>
<circle cx="814.0" cy="93.0" r="5.6" fill="#1d1a16" stroke="none" stroke-width="2" opacity="0.056107261837090874"/>
<circle cx="193.0" cy="1187.0" r="3.7" fill="#1d1a16" stroke="none" stroke-width="2" opacity="0.09584090435830003"/>
<circle cx="413.0" cy="1097.0" r="4.7" fill="#1d1a16" stroke="none" stroke-width="2" opacity="0.10579688761726093"/>
<circle cx="906.0" cy="1422.0" r="5.2" fill="#1d1a16" stroke="none" stroke-width="2" opacity="0.09026754215809354"/>
<circle cx="42.0" cy="203.0" r="3.7" fill="#1d1a16" stroke="none" stroke-width="2" opacity="0.0823004009066394"/>
<circle cx="574.0" cy="52.0" r="3.4" fill="#1d1a16" stroke="none" stroke-width="2" opacity="0.0532540926651258"/>
<circle cx="355.0" cy="664.0" r="3.7" fill="#1d1a16" stroke="none" stroke-width="2" opacity="0.08815854533842071"/>
<circle cx="241.0" cy="718.0" r="4.7" fill="#1d1a16" stroke="none" stroke-width="2" opacity="0.08635348637783216"/>
<circle cx="707.0" cy="1229.0" r="1.7" fill="#1d1a16" stroke="none" stroke-width="2" opacity="0.05169473920440312"/>
<circle cx="390.0" cy="388.0" r="2.8" fill="#1d1a16" stroke="none" stroke-width="2" opacity="0.06540587442169747"/>
<circle cx="299.0" cy="1171.0" r="3.1" fill="#1d1a16" stroke="none" stroke-width="2" opacity="0.040625931863637964"/>
<circle cx="29.0" cy="345.0" r="2.5" fill="#1d1a16" stroke="none" stroke-width="2" opacity="0.09051345073656986"/>
<circle cx="543.0" cy="1017.0" r="3.9" fill="#1d1a16" stroke="none" stroke-width="2" opacity="0.04841960564747966"/>
<circle cx="899.0" cy="1165.0" r="3.1" fill="#1d1a16" stroke="none" stroke-width="2" opacity="0.08261397384956837"/>
<circle cx="316.0" cy="197.0" r="3.8" fill="#1d1a16" stroke="none" stroke-width="2" opacity="0.10581609363272296"/>
<circle cx="163.0" cy="319.0" r="3.0" fill="#1d1a16" stroke="none" stroke-width="2" opacity="0.09166492507626656"/>
<circle cx="837.0" cy="1375.0" r="4.9" fill="#1d1a16" stroke="none" stroke-width="2" opacity="0.0824016208302299"/>
<circle cx="167.0" cy="1186.0" r="2.2" fill="#1d1a16" stroke="none" stroke-width="2" opacity="0.059466456765287196"/>
<circle cx="251.0" cy="400.0" r="3.7" fill="#1d1a16" stroke="none" stroke-width="2" opacity="0.04896160730099844"/>
<circle cx="628.0" cy="1338.0" r="2.7" fill="#1d1a16" stroke="none" stroke-width="2" opacity="0.09897540337360275"/>
<circle cx="465.0" cy="426.0" r="3.4" fill="#1d1a16" stroke="none" stroke-width="2" opacity="0.10114054660443968"/>
<circle cx="314.0" cy="593.0" r="2.7" fill="#1d1a16" stroke="none" stroke-width="2" opacity="0.06759628088377338"/>
<circle cx="598.0" cy="742.0" r="1.3" fill="#1d1a16" stroke="none" stroke-width="2" opacity="0.040720038142139835"/>
<circle cx="313.0" cy="70.0" r="4.6" fill="#1d1a16" stroke="none" stroke-width="2" opacity="0.07214642168511909"/>
<circle cx="526.0" cy="233.0" r="2.4" fill="#1d1a16" stroke="none" stroke-width="2" opacity="0.09943847204583527"/>
<circle cx="692.0" cy="692.0" r="1.5" fill="#1d1a16" stroke="none" stroke-width="2" opacity="0.05801203256184629"/>
<circle cx="530.0" cy="197.0" r="3.1" fill="#1d1a16" stroke="none" stroke-width="2" opacity="0.04956296438815521"/>
<circle cx="455.0" cy="884.0" r="5.2" fill="#1d1a16" stroke="none" stroke-width="2" opacity="0.08856435155967428"/>
<circle cx="33.0" cy="416.0" r="2.6" fill="#1d1a16" stroke="none" stroke-width="2" opacity="0.08687967837098148"/>
<circle cx="842.0" cy="901.0" r="2.1" fill="#1d1a16" stroke="none" stroke-width="2" opacity="0.056548482608800424"/>
<circle cx="679.0" cy="646.0" r="3.3" fill="#1d1a16" stroke="none" stroke-width="2" opacity="0.1030590935679543"/>
<circle cx="456.0" cy="928.0" r="3.1" fill="#1d1a16" stroke="none" stroke-width="2" opacity="0.035510236204927895"/>
<circle cx="990.0" cy="1404.0" r="1.7" fill="#1d1a16" stroke="none" stroke-width="2" opacity="0.04020980351357674"/>
<circle cx="274.0" cy="1327.0" r="2.0" fill="#1d1a16" stroke="none" stroke-width="2" opacity="0.03697139790374738"/>
<circle cx="36.0" cy="844.0" r="3.5" fill="#1d1a16" stroke="none" stroke-width="2" opacity="0.053677465137905125"/>
<circle cx="989.0" cy="575.0" r="4.5" fill="#1d1a16" stroke="none" stroke-width="2" opacity="0.10447533844827538"/>
<circle cx="74.0" cy="678.0" r="3.4" fill="#1d1a16" stroke="none" stroke-width="2" opacity="0.04660642743185992"/>
<circle cx="696.0" cy="504.0" r="1.5" fill="#1d1a16" stroke="none" stroke-width="2" opacity="0.0880778395825359"/>
<circle cx="90.0" cy="210.0" r="3.7" fill="#1d1a16" stroke="none" stroke-width="2" opacity="0.1099855737259897"/>
<circle cx="874.0" cy="922.0" r="2.3" fill="#1d1a16" stroke="none" stroke-width="2" opacity="0.038961756782873114"/>
<circle cx="158.0" cy="1181.0" r="2.8" fill="#1d1a16" stroke="none" stroke-width="2" opacity="0.0688748703861231"/>
<circle cx="938.0" cy="1464.0" r="2.7" fill="#1d1a16" stroke="none" stroke-width="2" opacity="0.09296516874792192"/>
<circle cx="977.0" cy="1095.0" r="4.1" fill="#1d1a16" stroke="none" stroke-width="2" opacity="0.04788659639779218"/>
<circle cx="811.0" cy="989.0" r="1.2" fill="#1d1a16" stroke="none" stroke-width="2" opacity="0.05731319520753284"/>
<circle cx="782.0" cy="861.0" r="2.6" fill="#1d1a16" stroke="none" stroke-width="2" opacity="0.07326710151784946"/>
<circle cx="440.0" cy="1375.0" r="2.6" fill="#1d1a16" stroke="none" stroke-width="2" opacity="0.08573695277913689"/>
<circle cx="849.0" cy="1352.0" r="3.6" fill="#1d1a16" stroke="none" stroke-width="2" opacity="0.09846451812678564"/>
<circle cx="593.0" cy="1034.0" r="5.5" fill="#1d1a16" stroke="none" stroke-width="2" opacity="0.04982065052514101"/>
<circle cx="600.0" cy="1131.0" r="3.4" fill="#1d1a16" stroke="none" stroke-width="2" opacity="0.07461307977639811"/>
<circle cx="755.0" cy="827.0" r="3.4" fill="#1d1a16" stroke="none" stroke-width="2" opacity="0.10155423717336465"/>
<circle cx="627.0" cy="1321.0" r="4.0" fill="#1d1a16" stroke="none" stroke-width="2" opacity="0.1070269054211961"/>
<circle cx="98.0" cy="1078.0" r="2.3" fill="#1d1a16" stroke="none" stroke-width="2" opacity="0.09078629174387887"/>
<circle cx="506.0" cy="38.0" r="2.8" fill="#1d1a16" stroke="none" stroke-width="2" opacity="0.03587973979896962"/>
<circle cx="249.0" cy="1467.0" r="1.3" fill="#1d1a16" stroke="none" stroke-width="2" opacity="0.09748771017628027"/>
<circle cx="159.0" cy="536.0" r="5.1" fill="#1d1a16" stroke="none" stroke-width="2" opacity="0.060678172621439624"/>
<circle cx="334.0" cy="296.0" r="4.1" fill="#1d1a16" stroke="none" stroke-width="2" opacity="0.07111516135644008"/>
<circle cx="979.0" cy="511.0" r="4.5" fill="#1d1a16" stroke="none" stroke-width="2" opacity="0.07870919897973996"/>
<circle cx="173.0" cy="175.0" r="3.6" fill="#1d1a16" stroke="none" stroke-width="2" opacity="0.09554743788522409"/>
<circle cx="502.0" cy="957.0" r="4.3" fill="#1d1a16" stroke="none" stroke-width="2" opacity="0.10866578245567764"/>
<circle cx="144.0" cy="326.0" r="4.5" fill="#1d1a16" stroke="none" stroke-width="2" opacity="0.09848367496569949"/>
<circle cx="353.0" cy="975.0" r="5.6" fill="#1d1a16" stroke="none" stroke-width="2" opacity="0.054528924643095014"/>
<circle cx="520.0" cy="1339.0" r="2.5" fill="#1d1a16" stroke="none" stroke-width="2" opacity="0.04143157126341564"/>
<circle cx="820.0" cy="860.0" r="3.9" fill="#1d1a16" stroke="none" stroke-width="2" opacity="0.10839413965842849"/>
<circle cx="675.0" cy="1441.0" r="4.0" fill="#1d1a16" stroke="none" stroke-width="2" opacity="0.047745889746262815"/>
<circle cx="132.0" cy="929.0" r="4.7" fill="#1d1a16" stroke="none" stroke-width="2" opacity="0.056804221802220875"/>
<circle cx="359.0" cy="950.0" r="5.0" fill="#1d1a16" stroke="none" stroke-width="2" opacity="0.03687063627762839"/>
<circle cx="573.0" cy="1226.0" r="2.8" fill="#1d1a16" stroke="none" stroke-width="2" opacity="0.05714340022488957"/>
<circle cx="60.0" cy="1485.0" r="3.1" fill="#1d1a16" stroke="none" stroke-width="2" opacity="0.10822825452752198"/>
<circle cx="686.0" cy="1306.0" r="1.8" fill="#1d1a16" stroke="none" stroke-width="2" opacity="0.05506424596423019"/>
<circle cx="71.0" cy="1376.0" r="3.2" fill="#1d1a16" stroke="none" stroke-width="2" opacity="0.10013162816830354"/>
<circle cx="528.0" cy="428.0" r="1.6" fill="#1d1a16" stroke="none" stroke-width="2" opacity="0.10329151671152303"/>
<circle cx="297.0" cy="1457.0" r="4.6" fill="#1d1a16" stroke="none" stroke-width="2" opacity="0.05226715983971915"/>
<circle cx="111.0" cy="1089.0" r="2.8" fill="#1d1a16" stroke="none" stroke-width="2" opacity="0.10640084374226977"/>
<rect x="170.0" y="170.0" width="585.0" height="700.0" rx="0" fill="#d7cbb4" stroke="#9b8c73" stroke-width="1.3" opacity="0.88" transform="rotate(-2 462.5 520.0)"/>
<line x1="204.0" y1="222.0" x2="721.0" y2="222.0" stroke="#9b8c73" stroke-width="1.15" opacity="0.58"/>
<line x1="204.0" y1="307.1" x2="721.0" y2="307.1" stroke="#9b8c73" stroke-width="1.15" opacity="0.58"/>
<line x1="204.0" y1="392.3" x2="721.0" y2="392.3" stroke="#9b8c73" stroke-width="1.15" opacity="0.58"/>
<line x1="204.0" y1="477.4" x2="721.0" y2="477.4" stroke="#9b8c73" stroke-width="1.15" opacity="0.58"/>
<line x1="204.0" y1="562.6" x2="721.0" y2="562.6" stroke="#9b8c73" stroke-width="1.15" opacity="0.58"/>
<line x1="204.0" y1="647.7" x2="721.0" y2="647.7" stroke="#9b8c73" stroke-width="1.15" opacity="0.58"/>
<line x1="204.0" y1="732.9" x2="721.0" y2="732.9" stroke="#9b8c73" stroke-width="1.15" opacity="0.58"/>
<line x1="204.0" y1="818.0" x2="721.0" y2="818.0" stroke="#9b8c73" stroke-width="1.15" opacity="0.58"/>
<line x1="224.0" y1="204.0" x2="224.0" y2="836.0" stroke="#2f6f72" stroke-width="1" opacity="0.3"/>
<line x1="383.0" y1="204.0" x2="383.0" y2="836.0" stroke="#2f6f72" stroke-width="1" opacity="0.3"/>
<line x1="542.0" y1="204.0" x2="542.0" y2="836.0" stroke="#2f6f72" stroke-width="1" opacity="0.3"/>
<rect x="284.0" y="521.0" width="51.0" height="10.0" rx="0" fill="#2f6f72" stroke="none" stroke-width="1" opacity="0.2896219526713262"/>
<rect x="424.0" y="453.0" width="62.0" height="10.0" rx="0" fill="#ad5638" stroke="none" stroke-width="1" opacity="0.16920445347275767"/>
<rect x="328.0" y="575.0" width="86.0" height="10.0" rx="0" fill="#1d1a16" stroke="none" stroke-width="1" opacity="0.23092379695156268"/>
<rect x="558.0" y="665.0" width="82.0" height="10.0" rx="0" fill="#1d1a16" stroke="none" stroke-width="1" opacity="0.3046436951959224"/>
<rect x="342.0" y="513.0" width="84.0" height="10.0" rx="0" fill="#ad5638" stroke="none" stroke-width="1" opacity="0.24226334571474395"/>
<rect x="309.0" y="361.0" width="60.0" height="10.0" rx="0" fill="#9b762f" stroke="none" stroke-width="1" opacity="0.1866192095854157"/>
<rect x="573.0" y="513.0" width="60.0" height="10.0" rx="0" fill="#1d1a16" stroke="none" stroke-width="1" opacity="0.19500095429206854"/>
<rect x="105.0" y="970.0" width="780.0" height="185.0" rx="0" fill="#4e5b57" stroke="#9b8c73" stroke-width="1" opacity="0.32" transform="rotate(-1 495.0 1062.5)"/>
<path d="M210 1080 C330 1010 490 1005 625 1072 C700 1110 776 1082 850 1036" fill="none" stroke="#2f6f72" stroke-width="9" opacity="0.34"/>
<circle cx="485.0" cy="828.0" r="92.0" fill="#b78d42" stroke="#584222" stroke-width="8" opacity="0.76"/>
<path d="M415 815 C455 765 520 760 560 812 C540 870 438 872 415 815 Z" fill="#eee5d3" stroke="#5d4630" stroke-width="5" opacity="0.76"/>
<line x1="710.0" y1="230.0" x2="570.0" y2="850.0" stroke="#1d1a16" stroke-width="3.4" opacity="0.24"/>
<line x1="728.0" y1="230.0" x2="588.0" y2="850.0" stroke="#1d1a16" stroke-width="3.4" opacity="0.24"/>
<line x1="746.0" y1="230.0" x2="606.0" y2="850.0" stroke="#1d1a16" stroke-width="3.4" opacity="0.24"/>
<line x1="764.0" y1="230.0" x2="624.0" y2="850.0" stroke="#1d1a16" stroke-width="3.4" opacity="0.24"/>
<line x1="782.0" y1="230.0" x2="642.0" y2="850.0" stroke="#1d1a16" stroke-width="3.4" opacity="0.24"/>
<line x1="800.0" y1="230.0" x2="660.0" y2="850.0" stroke="#1d1a16" stroke-width="3.4" opacity="0.24"/>
<line x1="818.0" y1="230.0" x2="678.0" y2="850.0" stroke="#1d1a16" stroke-width="3.4" opacity="0.24"/>
<line x1="728.0" y1="210.0" x2="620.0" y2="890.0" stroke="#ad5638" stroke-width="4.5" opacity="0.38"/>
<path d="M345 520 C430 450 510 450 590 520 C650 570 700 545 750 505" fill="none" stroke="#25221f" stroke-width="5" opacity="0.45"/>
<rect x="245.0" y="1130.0" width="360.0" height="148.0" rx="0" fill="#c7c0aa" stroke="#9b8c73" stroke-width="1" opacity="0.68" transform="rotate(6 425.0 1204.0)"/>
<rect x="280.0" y="1165.0" width="270.0" height="28.0" rx="0" fill="#9b762f" stroke="none" stroke-width="1" opacity="0.24" transform="rotate(6 415.0 1179.0)"/>
  </g>
  <rect x="0" y="0" width="1024" height="1536" filter="url(#grain)" opacity="0.27"/>
</svg>
