<svg xmlns="http://www.w3.org/2000/svg" viewBox="0 0 1024 1536" width="1024" height="1536">
  <defs>
    <filter id="grain" x="-10%" y="-10%" width="120%" height="120%">
      <feTurbulence type="fractalNoise" baseFrequency="0.84" numOctaves="3" seed="A2"/>
      <feColorMatrix type="saturate" values="0"/>
      <feComponentTransfer>
        <feFuncA type="table" tableValues="0 0.17"/>
      </feComponentTransfer>
    </filter>
  </defs>
  <g>
    <rect x="0.0" y="0.0" width="1024.0" height="1536.0" rx="0" fill="#eee5d3" stroke="none" stroke-width="1" opacity="1.0"/>
<rect x="26.0" y="26.0" width="972.0" height="1484.0" rx="0" fill="none" stroke="#9b8c73" stroke-width="1.2" opacity="0.58"/>
<rect x="-16.0" y="233.0" width="159.0" height="105.0" rx="0" fill="#ad5638" stroke="none" stroke-width="1" opacity="0.40482351910659276" transform="rotate(2.987707004652255 63.5 285.5)"/>
<rect x="394.0" y="30.0" width="264.0" height="254.0" rx="0" fill="#9b762f" stroke="none" stroke-width="1" opacity="0.3470976188115037" transform="rotate(1.573589736493819 526.0 157.0)"/>
<rect x="110.0" y="11.0" width="217.0" height="67.0" rx="0" fill="#24211d" stroke="none" stroke-width="1" opacity="0.32463591456002494" transform="rotate(3.9576048393850503 218.5 44.5)"/>
<rect x="349.0" y="208.0" width="395.0" height="156.0" rx="0" fill="#9b762f" stroke="none" stroke-width="1" opacity="0.3791146408790352" transform="rotate(3.4905034782509565 546.5 286.0)"/>
<rect x="661.0" y="1299.0" width="330.0" height="277.0" rx="0" fill="#24211d" stroke="none" stroke-width="1" opacity="0.40724955592679" transform="rotate(0.36279455339705713 826.0 1437.5)"/>
<rect x="665.0" y="74.0" width="336.0" height="152.0" rx="0" fill="#ad5638" stroke="none" stroke-width="1" opacity="0.41064203125951493" transform="rotate(-3.9660612304808227 833.0 150.0)"/>
<rect x="134.0" y="1256.0" width="240.0" height="73.0" rx="0" fill="#24211d" stroke="none" stroke-width="1" opacity="0.25138866820460876" transform="rotate(0.3929233981586284 254.0 1292.5)"/>
<rect x="831.0" y="182.0" width="165.0" height="202.0" rx="0" fill="#d7cbb4" stroke="none" stroke-width="1" opacity="0.3798915894984547" transform="rotate(2.2310785595708076 913.5 283.0)"/>
<rect x="-15.0" y="759.0" width="428.0" height="239.0" rx="0" fill="#d7cbb4" stroke="none" stroke-width="1" opacity="0.23639606991145276" transform="rotate(1.4067358948256778 199.0 878.5)"/>
<rect x="724.0" y="302.0" width="196.0" height="286.0" rx="0" fill="#ad5638" stroke="none" stroke-width="1" opacity="0.303633719182793" transform="rotate(0.3881045825642646 822.0 445.0)"/>
<rect x="735.0" y="623.0" width="254.0" height="91.0" rx="0" fill="#24211d" stroke="none" stroke-width="1" opacity="0.3232726000935826" transform="rotate(-4.118645877792428 862.0 668.5)"/>
<rect x="-58.0" y="172.0" width="365.0" height="78.0" rx="0" fill="#24211d" stroke="none" stroke-width="1" opacity="0.2999231788421306" transform="rotate(-0.8575089643322817 124.5 211.0)"/>
<rect x="224.0" y="1338.0" width="286.0" height="316.0" rx="0" fill="#ad5638" stroke="none" stroke-width="1" opacity="0.3352795352395249" transform="rotate(0.06376453374162327 367.0 1496.0)"/>
<rect x="168.0" y="928.0" width="133.0" height="184.0" rx="0" fill="#ad5638" stroke="none" stroke-width="1" opacity="0.3484019052272478" transform="rotate(-1.667423174455175 234.5 1020.0)"/>
<rect x="432.0" y="954.0" width="343.0" height="277.0" rx="0" fill="#2f6f72" stroke="none" stroke-width="1" opacity="0.25369632749566534" transform="rotate(3.190078250946776 603.5 1092.5)"/>
<rect x="419.0" y="988.0" width="301.0" height="137.0" rx="0" fill="#777269" stroke="none" stroke-width="1" opacity="0.3945307231767857" transform="rotate(-2.1803668393615387 569.5 1056.5)"/>
<rect x="299.0" y="331.0" width="348.0" height="238.0" rx="0" fill="#2f6f72" stroke="none" stroke-width="1" opacity="0.4131618521079047" transform="rotate(2.483277400016834 473.0 450.0)"/>
<rect x="477.0" y="674.0" width="374.0" height="237.0" rx="0" fill="#24211d" stroke="none" stroke-width="1" opacity="0.21283091475985738" transform="rotate(2.4111827886222024 664.0 792.5)"/>
<rect x="133.0" y="928.0" width="472.0" height="106.0" rx="0" fill="#777269" stroke="none" stroke-width="1" opacity="0.2703190285975926" transform="rotate(-2.5856042376585036 369.0 981.0)"/>
<rect x="514.0" y="1113.0" width="247.0" height="122.0" rx="0" fill="#ad5638" stroke="none" stroke-width="1" opacity="0.2655481104015773" transform="rotate(2.1640745402656743 637.5 1174.0)"/>
<line x1="66.0" y1="42.0" x2="66.0" y2="1494.0" stroke="#9b8c73" stroke-width="1" opacity="0.12"/>
<line x1="158.0" y1="42.0" x2="158.0" y2="1494.0" stroke="#9b8c73" stroke-width="1" opacity="0.12"/>
<line x1="250.0" y1="42.0" x2="250.0" y2="1494.0" stroke="#9b8c73" stroke-width="1" opacity="0.12"/>
<line x1="342.0" y1="42.0" x2="342.0" y2="1494.0" stroke="#9b8c73" stroke-width="1" opacity="0.12"/>
<line x1="434.0" y1="42.0" x2="434.0" y2="1494.0" stroke="#9b8c73" stroke-width="1" opacity="0.12"/>
<line x1="526.0" y1="42.0" x2="526.0" y2="1494.0" stroke="#9b8c73" stroke-width="1" opacity="0.12"/>
<line x1="618.0" y1="42.0" x2="618.0" y2="1494.0" stroke="#9b8c73" stroke-width="1" opacity="0.12"/>
<line x1="710.0" y1="42.0" x2="710.0" y2="1494.0" stroke="#9b8c73" stroke-width="1" opacity="0.12"/>
<line x1="802.0" y1="42.0" x2="802.0" y2="1494.0" stroke="#9b8c73" stroke-width="1" opacity="0.12"/>
<line x1="894.0" y1="42.0" x2="894.0" y2="1494.0" stroke="#9b8c73" stroke-width="1" opacity="0.12"/>
<line x1="986.0" y1="42.0" x2="986.0" y2="1494.0" stroke="#9b8c73" stroke-width="1" opacity="0.12"/>
<line x1="42.0" y1="72.0" x2="982.0" y2="72.0" stroke="#9b8c73" stroke-width="1" opacity="0.1"/>
<line x1="42.0" y1="178.0" x2="982.0" y2="178.0" stroke="#9b8c73" stroke-width="1" opacity="0.1"/>
<line x1="42.0" y1="284.0" x2="982.0" y2="284.0" stroke="#9b8c73" stroke-width="1" opacity="0.1"/>
<line x1="42.0" y1="390.0" x2="982.0" y2="390.0" stroke="#9b8c73" stroke-width="1" opacity="0.1"/>
<line x1="42.0" y1="496.0" x2="982.0" y2="496.0" stroke="#9b8c73" stroke-width="1" opacity="0.1"/>
<line x1="42.0" y1="602.0" x2="982.0" y2="602.0" stroke="#9b8c73" stroke-width="1" opacity="0.1"/>
<line x1="42.0" y1="708.0" x2="982.0" y2="708.0" stroke="#9b8c73" stroke-width="1" opacity="0.1"/>
<line x1="42.0" y1="814.0" x2="982.0" y2="814.0" stroke="#9b8c73" stroke-width="1" opacity="0.1"/>
<line x1="42.0" y1="920.0" x2="982.0" y2="920.0" stroke="#9b8c73" stroke-width="1" opacity="0.1"/>
<line x1="42.0" y1="1026.0" x2="982.0" y2="1026.0" stroke="#9b8c73" stroke-width="1" opacity="0.1"/>
<line x1="42.0" y1="1132.0" x2="982.0" y2="1132.0" stroke="#9b8c73" stroke-width="1" opacity="0.1"/>
<line x1="42.0" y1="1238.0" x2="982.0" y2="1238.0" stroke="#9b8c73" stroke-width="1" opacity="0.1"/>
<line x1="42.0" y1="1344.0" x2="982.0" y2="1344.0" stroke="#9b8c73" stroke-width="1" opacity="0.1"/>
<line x1="42.0" y1="1450.0" x2="982.0" y2="1450.0" stroke="#9b8c73" stroke-width="1" opacity="0.1"/>
<circle cx="809.0" cy="663.0" r="3.7" fill="#1d1a16" stroke="none" stroke-width="2" opacity="0.10909540539918018"/>
<circle cx="416.0" cy="1085.0" r="3.4" fill="#1d1a16" stroke="none" stroke-width="2" opacity="0.04103615223023448"/>
<circle cx="445.0" cy="883.0" r="2.5" fill="#1d1a16" stroke="none" stroke-width="2" opacity="0.035441447453992705"/>
<circle cx="869.0" cy="1417.0" r="4.0" fill="#1d1a16" stroke="none" stroke-width="2" opacity="0.057635865865631755"/>
<circle cx="421.0" cy="1435.0" r="5.1" fill="#1d1a16" stroke="none" stroke-width="2" opacity="0.10955358329977327"/>
<circle cx="1005.0" cy="520.0" r="3.3" fill="#1d1a16" stroke="none" stroke-width="2" opacity="0.06684986263795453"/>
<circle cx="87.0" cy="101.0" r="4.2" fill="#1d1a16" stroke="none" stroke-width="2" opacity="0.10308711846644007"/>
<circle cx="79.0" cy="390.0" r="1.6" fill="#1d1a16" stroke="none" stroke-width="2" opacity="0.0359087069882045"/>
<circle cx="197.0" cy="824.0" r="2.7" fill="#1d1a16" stroke="none" stroke-width="2" opacity="0.07363330119597872"/>
<circle cx="210.0" cy="954.0" r="2.5" fill="#1d1a16" stroke="none" stroke-width="2" opacity="0.05029920655529639"/>
<circle cx="928.0" cy="192.0" r="5.4" fill="#1d1a16" stroke="none" stroke-width="2" opacity="0.06346185330353775"/>
<circle cx="976.0" cy="479.0" r="4.0" fill="#1d1a16" stroke="none" stroke-width="2" opacity="0.1095479122309632"/>
<circle cx="283.0" cy="1359.0" r="2.1" fill="#1d1a16" stroke="none" stroke-width="2" opacity="0.09294246595412034"/>
<circle cx="210.0" cy="84.0" r="3.4" fill="#1d1a16" stroke="none" stroke-width="2" opacity="0.0781520116532721"/>
<circle cx="33.0" cy="1384.0" r="4.1" fill="#1d1a16" stroke="none" stroke-width="2" opacity="0.04334343910781999"/>
<circle cx="135.0" cy="92.0" r="1.9" fill="#1d1a16" stroke="none" stroke-width="2" opacity="0.04550970384271067"/>
<circle cx="892.0" cy="1276.0" r="2.7" fill="#1d1a16" stroke="none" stroke-width="2" opacity="0.04297438166024414"/>
<circle cx="402.0" cy="1125.0" r="3.2" fill="#1d1a16" stroke="none" stroke-width="2" opacity="0.045629399583066825"/>
<circle cx="321.0" cy="530.0" r="3.1" fill="#1d1a16" stroke="none" stroke-width="2" opacity="0.06804891921838713"/>
<circle cx="900.0" cy="753.0" r="4.4" fill="#1d1a16" stroke="none" stroke-width="2" opacity="0.09997640807838967"/>
<circle cx="840.0" cy="667.0" r="3.4" fill="#1d1a16" stroke="none" stroke-width="2" opacity="0.053196673703592046"/>
<circle cx="68.0" cy="119.0" r="2.3" fill="#1d1a16" stroke="none" stroke-width="2" opacity="0.10843624464414249"/>
<circle cx="185.0" cy="1148.0" r="3.9" fill="#1d1a16" stroke="none" stroke-width="2" opacity="0.07142715906893615"/>
<circle cx="410.0" cy="728.0" r="5.2" fill="#1d1a16" stroke="none" stroke-width="2" opacity="0.036633521647404715"/>
<circle cx="741.0" cy="1005.0" r="1.6" fill="#1d1a16" stroke="none" stroke-width="2" opacity="0.07609864353167559"/>
<circle cx="836.0" cy="958.0" r="1.5" fill="#1d1a16" stroke="none" stroke-width="2" opacity="0.043092759079560186"/>
<circle cx="473.0" cy="1086.0" r="2.6" fill="#1d1a16" stroke="none" stroke-width="2" opacity="0.06463766574919681"/>
<circle cx="81.0" cy="541.0" r="4.7" fill="#1d1a16" stroke="none" stroke-width="2" opacity="0.07195151274066416"/>
<circle cx="683.0" cy="1207.0" r="5.6" fill="#1d1a16" stroke="none" stroke-width="2" opacity="0.06813075281567743"/>
<circle cx="180.0" cy="1195.0" r="3.8" fill="#1d1a16" stroke="none" stroke-width="2" opacity="0.08199710918925558"/>
<circle cx="233.0" cy="890.0" r="2.0" fill="#1d1a16" stroke="none" stroke-width="2" opacity="0.053053061635579754"/>
<circle cx="464.0" cy="939.0" r="3.9" fill="#1d1a16" stroke="none" stroke-width="2" opacity="0.0867959491782138"/>
<circle cx="393.0" cy="974.0" r="4.6" fill="#1d1a16" stroke="none" stroke-width="2" opacity="0.08581199029438198"/>
<circle cx="926.0" cy="907.0" r="5.3" fill="#1d1a16" stroke="none" stroke-width="2" opacity="0.06130025645105373"/>
<circle cx="125.0" cy="222.0" r="2.7" fill="#1d1a16" stroke="none" stroke-width="2" opacity="0.05544756713708203"/>
<circle cx="181.0" cy="822.0" r="2.6" fill="#1d1a16" stroke="none" stroke-width="2" opacity="0.08663886477853813"/>
<circle cx="423.0" cy="976.0" r="3.1" fill="#1d1a16" stroke="none" stroke-width="2" opacity="0.07259156458494506"/>
<circle cx="364.0" cy="108.0" r="2.4" fill="#1d1a16" stroke="none" stroke-width="2" opacity="0.08508213564496507"/>
<circle cx="787.0" cy="152.0" r="4.5" fill="#1d1a16" stroke="none" stroke-width="2" opacity="0.10597917125430742"/>
<circle cx="485.0" cy="292.0" r="3.5" fill="#1d1a16" stroke="none" stroke-width="2" opacity="0.06880971990850153"/>
<circle cx="444.0" cy="153.0" r="4.8" fill="#1d1a16" stroke="none" stroke-width="2" opacity="0.08516180306829149"/>
<circle cx="110.0" cy="715.0" r="4.1" fill="#1d1a16" stroke="none" stroke-width="2" opacity="0.09176726706604685"/>
<circle cx="300.0" cy="1171.0" r="3.5" fill="#1d1a16" stroke="none" stroke-width="2" opacity="0.0681802229728119"/>
<circle cx="590.0" cy="1506.0" r="2.4" fill="#1d1a16" stroke="none" stroke-width="2" opacity="0.0848873226335809"/>
<circle cx="209.0" cy="204.0" r="3.7" fill="#1d1a16" stroke="none" stroke-width="2" opacity="0.1049932000679864"/>
<circle cx="610.0" cy="979.0" r="2.3" fill="#1d1a16" stroke="none" stroke-width="2" opacity="0.06665137812791022"/>
<circle cx="352.0" cy="212.0" r="5.5" fill="#1d1a16" stroke="none" stroke-width="2" opacity="0.10964892920646416"/>
<circle cx="380.0" cy="1333.0" r="3.2" fill="#1d1a16" stroke="none" stroke-width="2" opacity="0.0980112498541472"/>
<circle cx="712.0" cy="125.0" r="3.6" fill="#1d1a16" stroke="none" stroke-width="2" opacity="0.1083593940631331"/>
<circle cx="351.0" cy="1091.0" r="2.2" fill="#1d1a16" stroke="none" stroke-width="2" opacity="0.050740219416189385"/>
<circle cx="627.0" cy="1386.0" r="2.2" fill="#1d1a16" stroke="none" stroke-width="2" opacity="0.04314601499310888"/>
<circle cx="820.0" cy="814.0" r="3.2" fill="#1d1a16" stroke="none" stroke-width="2" opacity="0.1085656105159888"/>
<circle cx="637.0" cy="1399.0" r="4.8" fill="#1d1a16" stroke="none" stroke-width="2" opacity="0.07893536588966901"/>
<circle cx="486.0" cy="1351.0" r="4.0" fill="#1d1a16" stroke="none" stroke-width="2" opacity="0.09258883275384702"/>
<circle cx="93.0" cy="883.0" r="3.0" fill="#1d1a16" stroke="none" stroke-width="2" opacity="0.07928597971439355"/>
<circle cx="687.0" cy="478.0" r="5.0" fill="#1d1a16" stroke="none" stroke-width="2" opacity="0.09745516517801409"/>
<circle cx="772.0" cy="1148.0" r="3.3" fill="#1d1a16" stroke="none" stroke-width="2" opacity="0.05352701389308803"/>
<circle cx="709.0" cy="1343.0" r="3.5" fill="#1d1a16" stroke="none" stroke-width="2" opacity="0.07215537558566007"/>
<circle cx="210.0" cy="1004.0" r="5.5" fill="#1d1a16" stroke="none" stroke-width="2" opacity="0.10476615334525446"/>
<circle cx="203.0" cy="1254.0" r="1.2" fill="#1d1a16" stroke="none" stroke-width="2" opacity="0.1050063392028329"/>
<circle cx="67.0" cy="1142.0" r="4.9" fill="#1d1a16" stroke="none" stroke-width="2" opacity="0.10999163563826542"/>
<circle cx="766.0" cy="1044.0" r="5.0" fill="#1d1a16" stroke="none" stroke-width="2" opacity="0.10666097329198507"/>
<circle cx="119.0" cy="1184.0" r="3.3" fill="#1d1a16" stroke="none" stroke-width="2" opacity="0.08151428643594774"/>
<circle cx="463.0" cy="1413.0" r="5.0" fill="#1d1a16" stroke="none" stroke-width="2" opacity="0.08414058333842488"/>
<circle cx="322.0" cy="320.0" r="1.8" fill="#1d1a16" stroke="none" stroke-width="2" opacity="0.10107915822865138"/>
<circle cx="163.0" cy="802.0" r="4.4" fill="#1d1a16" stroke="none" stroke-width="2" opacity="0.08468109540372235"/>
<circle cx="362.0" cy="681.0" r="2.2" fill="#1d1a16" stroke="none" stroke-width="2" opacity="0.05495893984849834"/>
<circle cx="915.0" cy="576.0" r="1.8" fill="#1d1a16" stroke="none" stroke-width="2" opacity="0.040636816088872"/>
<circle cx="892.0" cy="737.0" r="4.7" fill="#1d1a16" stroke="none" stroke-width="2" opacity="0.1053754799462575"/>
<circle cx="414.0" cy="1193.0" r="4.0" fill="#1d1a16" stroke="none" stroke-width="2" opacity="0.040100308389216896"/>
<circle cx="960.0" cy="415.0" r="4.4" fill="#1d1a16" stroke="none" stroke-width="2" opacity="0.039800190464666776"/>
<circle cx="715.0" cy="1212.0" r="2.1" fill="#1d1a16" stroke="none" stroke-width="2" opacity="0.06703359808783299"/>
<circle cx="358.0" cy="360.0" r="1.3" fill="#1d1a16" stroke="none" stroke-width="2" opacity="0.08107856344625458"/>
<circle cx="244.0" cy="1055.0" r="5.6" fill="#1d1a16" stroke="none" stroke-width="2" opacity="0.05809689151397819"/>
<circle cx="966.0" cy="898.0" r="4.6" fill="#1d1a16" stroke="none" stroke-width="2" opacity="0.0772590490968302"/>
<circle cx="152.0" cy="537.0" r="4.6" fill="#1d1a16" stroke="none" stroke-width="2" opacity="0.10466311931662226"/>
<circle cx="344.0" cy="1460.0" r="5.1" fill="#1d1a16" stroke="none" stroke-width="2" opacity="0.0978137825807223"/>
<circle cx="446.0" cy="361.0" r="3.7" fill="#1d1a16" stroke="none" stroke-width="2" opacity="0.0477294502916103"/>
<circle cx="708.0" cy="446.0" r="2.0" fill="#1d1a16" stroke="none" stroke-width="2" opacity="0.07284717213570971"/>
<circle cx="909.0" cy="742.0" r="5.3" fill="#1d1a16" stroke="none" stroke-width="2" opacity="0.10340375367218964"/>
<circle cx="172.0" cy="741.0" r="2.6" fill="#1d1a16" stroke="none" stroke-width="2" opacity="0.07569930347303647"/>
<circle cx="420.0" cy="387.0" r="1.4" fill="#1d1a16" stroke="none" stroke-width="2" opacity="0.03662323674664898"/>
<circle cx="797.0" cy="80.0" r="1.6" fill="#1d1a16" stroke="none" stroke-width="2" opacity="0.04997206275806319"/>
<circle cx="746.0" cy="1505.0" r="4.0" fill="#1d1a16" stroke="none" stroke-width="2" opacity="0.06843769345869015"/>
<circle cx="776.0" cy="146.0" r="1.5" fill="#1d1a16" stroke="none" stroke-width="2" opacity="0.04407786705144659"/>
<circle cx="341.0" cy="471.0" r="5.5" fill="#1d1a16" stroke="none" stroke-width="2" opacity="0.06923014784532866"/>
<circle cx="29.0" cy="1324.0" r="4.0" fill="#1d1a16" stroke="none" stroke-width="2" opacity="0.05390037541769885"/>
<circle cx="137.0" cy="116.0" r="3.9" fill="#1d1a16" stroke="none" stroke-width="2" opacity="0.06184290452447806"/>
<circle cx="432.0" cy="78.0" r="5.1" fill="#1d1a16" stroke="none" stroke-width="2" opacity="0.10641399655779503"/>
<circle cx="291.0" cy="23.0" r="1.5" fill="#1d1a16" stroke="none" stroke-width="2" opacity="0.06578277636825208"/>
<circle cx="364.0" cy="510.0" r="1.5" fill="#1d1a16" stroke="none" stroke-width="2" opacity="0.08773984209354455"/>
<circle cx="66.0" cy="1097.0" r="4.6" fill="#1d1a16" stroke="none" stroke-width="2" opacity="0.07574182522743036"/>
<circle cx="448.0" cy="237.0" r="1.4" fill="#1d1a16" stroke="none" stroke-width="2" opacity="0.048854967530319565"/>
<circle cx="343.0" cy="1354.0" r="3.2" fill="#1d1a16" stroke="none" stroke-width="2" opacity="0.09563148195507166"/>
<circle cx="36.0" cy="1122.0" r="1.7" fill="#1d1a16" stroke="none" stroke-width="2" opacity="0.03906273328609475"/>
<rect x="120.0" y="140.0" width="655.0" height="790.0" rx="0" fill="#d7cbb4" stroke="#9b8c73" stroke-width="1.3" opacity="0.88" transform="rotate(1 447.5 535.0)"/>
<line x1="154.0" y1="192.0" x2="741.0" y2="192.0" stroke="#9b8c73" stroke-width="1.15" opacity="0.58"/>
<line x1="154.0" y1="290.0" x2="741.0" y2="290.0" stroke="#9b8c73" stroke-width="1.15" opacity="0.58"/>
<line x1="154.0" y1="388.0" x2="741.0" y2="388.0" stroke="#9b8c73" stroke-width="1.15" opacity="0.58"/>
<line x1="154.0" y1="486.0" x2="741.0" y2="486.0" stroke="#9b8c73" stroke-width="1.15" opacity="0.58"/>
<line x1="154.0" y1="584.0" x2="741.0" y2="584.0" stroke="#9b8c73" stroke-width="1.15" opacity="0.58"/>
<line x1="154.0" y1="682.0" x2="741.0" y2="682.0" stroke="#9b8c73" stroke-width="1.15" opacity="0.58"/>
<line x1="154.0" y1="780.0" x2="741.0" y2="780.0" stroke="#9b8c73" stroke-width="1.15" opacity="0.58"/>
<line x1="154.0" y1="878.0" x2="741.0" y2="878.0" stroke="#9b8c73" stroke-width="1.15" opacity="0.58"/>
<line x1="174.0" y1="174.0" x2="174.0" y2="896.0" stroke="#2f6f72" stroke-width="1" opacity="0.3"/>
<line x1="356.3" y1="174.0" x2="356.3" y2="896.0" stroke="#2f6f72" stroke-width="1" opacity="0.3"/>
<line x1="538.7" y1="174.0" x2="538.7" y2="896.0" stroke="#2f6f72" stroke-width="1" opacity="0.3"/>
<rect x="607.0" y="716.0" width="88.0" height="10.0" rx="0" fill="#ad5638" stroke="none" stroke-width="1" opacity="0.17687527766203523"/>
<rect x="614.0" y="422.0" width="41.0" height="10.0" rx="0" fill="#1d1a16" stroke="none" stroke-width="1" opacity="0.1716460383569486"/>
<rect x="288.0" y="360.0" width="71.0" height="10.0" rx="0" fill="#1d1a16" stroke="none" stroke-width="1" opacity="0.352829676288461"/>
<rect x="592.0" y="818.0" width="63.0" height="10.0" rx="0" fill="#1d1a16" stroke="none" stroke-width="1" opacity="0.2898847085500138"/>
<rect x="206.0" y="367.0" width="53.0" height="10.0" rx="0" fill="#1d1a16" stroke="none" stroke-width="1" opacity="0.23679678393143644"/>
<rect x="641.0" y="291.0" width="94.0" height="10.0" rx="0" fill="#9b762f" stroke="none" stroke-width="1" opacity="0.22925825914858355"/>
<rect x="521.0" y="626.0" width="94.0" height="10.0" rx="0" fill="#ad5638" stroke="none" stroke-width="1" opacity="0.19189904623589765"/>
<rect x="160.0" y="245.0" width="555.0" height="72.0" rx="0" fill="#d9cfb9" stroke="#9b8c73" stroke-width="1" opacity="0.78"/>
<rect x="180.0" y="395.0" width="500.0" height="44.0" rx="0" fill="#2f6f72" stroke="none" stroke-width="1" opacity="0.28" transform="rotate(0.6190818709418711 430.0 417.0)"/>
<rect x="180.0" y="487.0" width="500.0" height="44.0" rx="0" fill="#d7cbb4" stroke="none" stroke-width="1" opacity="0.28" transform="rotate(-0.8805923231158985 430.0 509.0)"/>
<rect x="180.0" y="579.0" width="500.0" height="44.0" rx="0" fill="#2f6f72" stroke="none" stroke-width="1" opacity="0.28" transform="rotate(-0.46227522892123907 430.0 601.0)"/>
<rect x="180.0" y="671.0" width="500.0" height="44.0" rx="0" fill="#777269" stroke="none" stroke-width="1" opacity="0.28" transform="rotate(-0.06152145735076653 430.0 693.0)"/>
<rect x="180.0" y="763.0" width="500.0" height="44.0" rx="0" fill="#777269" stroke="none" stroke-width="1" opacity="0.28" transform="rotate(-0.026939614736372075 430.0 785.0)"/>
<circle cx="282.0" cy="970.0" r="54.0" fill="none" stroke="#b8944a" stroke-width="11" opacity="0.78"/>
<rect x="274.0" y="1015.0" width="16.0" height="245.0" rx="5" fill="#b8944a" stroke="none" stroke-width="1" opacity="0.78" transform="rotate(-11 282.0 1137.5)"/>
<rect x="252.0" y="1242.0" width="64.0" height="19.0" rx="0" fill="#b8944a" stroke="none" stroke-width="1" opacity="0.78" transform="rotate(-11 284.0 1251.5)"/>
<rect x="288.0" y="1195.0" width="52.0" height="15.0" rx="0" fill="#b8944a" stroke="none" stroke-width="1" opacity="0.78" transform="rotate(-11 314.0 1202.5)"/>
<path d="M620 1117.0 C497.7 1058.0 525.0 913.0 667.3 910.0" fill="none" stroke="#1d1a16" stroke-width="3.2" opacity="0.18"/>
<path d="M620 1108.5 C486.3 1024.0 533.5 879.0 678.7 893.0" fill="none" stroke="#1d1a16" stroke-width="3.2" opacity="0.18"/>
<path d="M620 1100.0 C475.0 990.0 542.0 845.0 690.0 876.0" fill="none" stroke="#1d1a16" stroke-width="3.2" opacity="0.18"/>
<path d="M620 1091.5 C463.7 956.0 550.5 811.0 701.3 859.0" fill="none" stroke="#1d1a16" stroke-width="3.2" opacity="0.18"/>
<path d="M620 1083.0 C452.3 922.0 559.0 777.0 712.7 842.0" fill="none" stroke="#1d1a16" stroke-width="3.2" opacity="0.18"/>
<path d="M620 1074.5 C441.0 888.0 567.5 743.0 724.0 825.0" fill="none" stroke="#1d1a16" stroke-width="3.2" opacity="0.18"/>
<path d="M620 1066.0 C429.7 854.0 576.0 709.0 735.3 808.0" fill="none" stroke="#1d1a16" stroke-width="3.2" opacity="0.18"/>
<rect x="650.0" y="860.0" width="180.0" height="430.0" rx="0" fill="#1b1917" stroke="none" stroke-width="1" opacity="0.36" transform="rotate(-2 740.0 1075.0)"/>
<rect x="685.0" y="910.0" width="110.0" height="310.0" rx="0" fill="#2f6f72" stroke="none" stroke-width="1" opacity="0.16" transform="rotate(-2 740.0 1065.0)"/>
  </g>
  <rect x="0" y="0" width="1024" height="1536" filter="url(#grain)" opacity="0.27"/>
</svg>
