<svg xmlns="http://www.w3.org/2000/svg" viewBox="0 0 1024 1536" width="1024" height="1536">
  <defs>
    <filter id="grain" x="-10%" y="-10%" width="120%" height="120%">
      <feTurbulence type="fractalNoise" baseFrequency="0.9" numOctaves="3" seed="74"/>
      <feColorMatrix type="saturate" values="0"/>
      <feComponentTransfer>
        <feFuncA type="table" tableValues="0 0.18"/>
      </feComponentTransfer>
    </filter>
  </defs>
  <g>
    <rect x="0.0" y="0.0" width="1024.0" height="1536.0" rx="0" fill="#eee5d3" stroke="none" stroke-width="1" opacity="1.0"/>
<rect x="28.0" y="28.0" width="968.0" height="1480.0" rx="0" fill="none" stroke="#9b8c73" stroke-width="1.3" opacity="0.6"/>
<rect x="737.0" y="950.0" width="375.0" height="88.0" rx="0" fill="#ad5638" stroke="none" stroke-width="1" opacity="0.40379377129017413" transform="rotate(-0.9228198391553342 924.5 994.0)"/>
<rect x="534.0" y="547.0" width="196.0" height="295.0" rx="0" fill="#9b762f" stroke="none" stroke-width="1" opacity="0.2648236854547999" transform="rotate(0.835726388507255 632.0 694.5)"/>
<rect x="62.0" y="181.0" width="230.0" height="339.0" rx="0" fill="#777269" stroke="none" stroke-width="1" opacity="0.3546960449264014" transform="rotate(1.5717022512187029 177.0 350.5)"/>
<rect x="130.0" y="757.0" width="394.0" height="262.0" rx="0" fill="#2f6f72" stroke="none" stroke-width="1" opacity="0.3599284730709851" transform="rotate(3.7112866774683324 327.0 888.0)"/>
<rect x="595.0" y="1013.0" width="307.0" height="83.0" rx="0" fill="#2f6f72" stroke="none" stroke-width="1" opacity="0.2740264376095728" transform="rotate(0.6669647782288992 748.5 1054.5)"/>
<rect x="758.0" y="1047.0" width="328.0" height="353.0" rx="0" fill="#9b762f" stroke="none" stroke-width="1" opacity="0.35032086125225803" transform="rotate(1.0574878239812282 922.0 1223.5)"/>
<rect x="258.0" y="1315.0" width="353.0" height="237.0" rx="0" fill="#2f6f72" stroke="none" stroke-width="1" opacity="0.357853487846468" transform="rotate(-1.0074147409403453 434.5 1433.5)"/>
<rect x="674.0" y="1207.0" width="347.0" height="215.0" rx="0" fill="#d7cbb4" stroke="none" stroke-width="1" opacity="0.36541184680077565" transform="rotate(-2.088569043345408 847.5 1314.5)"/>
<rect x="576.0" y="250.0" width="344.0" height="288.0" rx="0" fill="#9b762f" stroke="none" stroke-width="1" opacity="0.30981355797596266" transform="rotate(3.7888145085483584 748.0 394.0)"/>
<rect x="801.0" y="1357.0" width="157.0" height="216.0" rx="0" fill="#d7cbb4" stroke="none" stroke-width="1" opacity="0.37256702254642654" transform="rotate(-3.246485796591273 879.5 1465.0)"/>
<rect x="779.0" y="205.0" width="332.0" height="106.0" rx="0" fill="#9b762f" stroke="none" stroke-width="1" opacity="0.22542110647851546" transform="rotate(0.6630440283327372 945.0 258.0)"/>
<rect x="468.0" y="382.0" width="269.0" height="223.0" rx="0" fill="#d7cbb4" stroke="none" stroke-width="1" opacity="0.33893971841886594" transform="rotate(-0.227433943370019 602.5 493.5)"/>
<rect x="5.0" y="58.0" width="371.0" height="233.0" rx="0" fill="#9b762f" stroke="none" stroke-width="1" opacity="0.42875617628552626" transform="rotate(-0.9224830962197119 190.5 174.5)"/>
<rect x="721.0" y="1113.0" width="134.0" height="330.0" rx="0" fill="#ad5638" stroke="none" stroke-width="1" opacity="0.29558787650732393" transform="rotate(-0.9740857752694598 788.0 1278.0)"/>
<rect x="438.0" y="456.0" width="258.0" height="192.0" rx="0" fill="#24211d" stroke="none" stroke-width="1" opacity="0.22428594859186807" transform="rotate(1.3036117293929665 567.0 552.0)"/>
<rect x="334.0" y="102.0" width="159.0" height="259.0" rx="0" fill="#24211d" stroke="none" stroke-width="1" opacity="0.24898315649619707" transform="rotate(2.516765609488864 413.5 231.5)"/>
<rect x="628.0" y="290.0" width="416.0" height="180.0" rx="0" fill="#ad5638" stroke="none" stroke-width="1" opacity="0.4105231523926848" transform="rotate(2.0234621920951747 836.0 380.0)"/>
<rect x="59.0" y="807.0" width="191.0" height="279.0" rx="0" fill="#9b762f" stroke="none" stroke-width="1" opacity="0.20725707160461457" transform="rotate(3.505374023203764 154.5 946.5)"/>
<line x1="75.0" y1="38.0" x2="75.0" y2="1498.0" stroke="#9b8c73" stroke-width="1" opacity="0.12"/>
<line x1="171.0" y1="38.0" x2="171.0" y2="1498.0" stroke="#9b8c73" stroke-width="1" opacity="0.12"/>
<line x1="267.0" y1="38.0" x2="267.0" y2="1498.0" stroke="#9b8c73" stroke-width="1" opacity="0.12"/>
<line x1="363.0" y1="38.0" x2="363.0" y2="1498.0" stroke="#9b8c73" stroke-width="1" opacity="0.12"/>
<line x1="459.0" y1="38.0" x2="459.0" y2="1498.0" stroke="#9b8c73" stroke-width="1" opacity="0.12"/>
<line x1="555.0" y1="38.0" x2="555.0" y2="1498.0" stroke="#9b8c73" stroke-width="1" opacity="0.12"/>
<line x1="651.0" y1="38.0" x2="651.0" y2="1498.0" stroke="#9b8c73" stroke-width="1" opacity="0.12"/>
<line x1="747.0" y1="38.0" x2="747.0" y2="1498.0" stroke="#9b8c73" stroke-width="1" opacity="0.12"/>
<line x1="843.0" y1="38.0" x2="843.0" y2="1498.0" stroke="#9b8c73" stroke-width="1" opacity="0.12"/>
<line x1="939.0" y1="38.0" x2="939.0" y2="1498.0" stroke="#9b8c73" stroke-width="1" opacity="0.12"/>
<line x1="38.0" y1="70.0" x2="986.0" y2="70.0" stroke="#9b8c73" stroke-width="1" opacity="0.1"/>
<line x1="38.0" y1="175.0" x2="986.0" y2="175.0" stroke="#9b8c73" stroke-width="1" opacity="0.1"/>
<line x1="38.0" y1="280.0" x2="986.0" y2="280.0" stroke="#9b8c73" stroke-width="1" opacity="0.1"/>
<line x1="38.0" y1="385.0" x2="986.0" y2="385.0" stroke="#9b8c73" stroke-width="1" opacity="0.1"/>
<line x1="38.0" y1="490.0" x2="986.0" y2="490.0" stroke="#9b8c73" stroke-width="1" opacity="0.1"/>
<line x1="38.0" y1="595.0" x2="986.0" y2="595.0" stroke="#9b8c73" stroke-width="1" opacity="0.1"/>
<line x1="38.0" y1="700.0" x2="986.0" y2="700.0" stroke="#9b8c73" stroke-width="1" opacity="0.1"/>
<line x1="38.0" y1="805.0" x2="986.0" y2="805.0" stroke="#9b8c73" stroke-width="1" opacity="0.1"/>
<line x1="38.0" y1="910.0" x2="986.0" y2="910.0" stroke="#9b8c73" stroke-width="1" opacity="0.1"/>
<line x1="38.0" y1="1015.0" x2="986.0" y2="1015.0" stroke="#9b8c73" stroke-width="1" opacity="0.1"/>
<line x1="38.0" y1="1120.0" x2="986.0" y2="1120.0" stroke="#9b8c73" stroke-width="1" opacity="0.1"/>
<line x1="38.0" y1="1225.0" x2="986.0" y2="1225.0" stroke="#9b8c73" stroke-width="1" opacity="0.1"/>
<line x1="38.0" y1="1330.0" x2="986.0" y2="1330.0" stroke="#9b8c73" stroke-width="1" opacity="0.1"/>
<line x1="38.0" y1="1435.0" x2="986.0" y2="1435.0" stroke="#9b8c73" stroke-width="1" opacity="0.1"/>
<circle cx="359.0" cy="952.0" r="5.3" fill="#1d1a16" stroke="none" stroke-width="2" opacity="0.09624567923383534"/>
<circle cx="922.0" cy="686.0" r="3.2" fill="#1d1a16" stroke="none" stroke-width="2" opacity="0.07109665154944854"/>
<circle cx="830.0" cy="235.0" r="4.9" fill="#1d1a16" stroke="none" stroke-width="2" opacity="0.10574578802625048"/>
<circle cx="579.0" cy="882.0" r="5.0" fill="#1d1a16" stroke="none" stroke-width="2" opacity="0.1009351518769239"/>
<circle cx="628.0" cy="1417.0" r="1.8" fill="#1d1a16" stroke="none" stroke-width="2" opacity="0.08181737327389277"/>
<circle cx="283.0" cy="1416.0" r="3.2" fill="#1d1a16" stroke="none" stroke-width="2" opacity="0.10240973044679144"/>
<circle cx="240.0" cy="485.0" r="3.7" fill="#1d1a16" stroke="none" stroke-width="2" opacity="0.06573799008558585"/>
<circle cx="440.0" cy="429.0" r="2.6" fill="#1d1a16" stroke="none" stroke-width="2" opacity="0.043119906847474444"/>
<circle cx="418.0" cy="79.0" r="2.0" fill="#1d1a16" stroke="none" stroke-width="2" opacity="0.11366097247454923"/>
<circle cx="571.0" cy="1067.0" r="5.0" fill="#1d1a16" stroke="none" stroke-width="2" opacity="0.09967840869418908"/>
<circle cx="768.0" cy="1084.0" r="3.8" fill="#1d1a16" stroke="none" stroke-width="2" opacity="0.07842517788566587"/>
<circle cx="715.0" cy="723.0" r="4.0" fill="#1d1a16" stroke="none" stroke-width="2" opacity="0.0700944051949397"/>
<circle cx="600.0" cy="981.0" r="2.4" fill="#1d1a16" stroke="none" stroke-width="2" opacity="0.0729719256501442"/>
<circle cx="639.0" cy="409.0" r="2.1" fill="#1d1a16" stroke="none" stroke-width="2" opacity="0.06870547621663348"/>
<circle cx="191.0" cy="1041.0" r="2.3" fill="#1d1a16" stroke="none" stroke-width="2" opacity="0.08503030100791173"/>
<circle cx="842.0" cy="604.0" r="5.2" fill="#1d1a16" stroke="none" stroke-width="2" opacity="0.06128658744187271"/>
<circle cx="221.0" cy="282.0" r="4.9" fill="#1d1a16" stroke="none" stroke-width="2" opacity="0.05461616857509656"/>
<circle cx="581.0" cy="45.0" r="2.0" fill="#1d1a16" stroke="none" stroke-width="2" opacity="0.0776670779076352"/>
<circle cx="168.0" cy="500.0" r="5.1" fill="#1d1a16" stroke="none" stroke-width="2" opacity="0.11648474249904267"/>
<circle cx="875.0" cy="374.0" r="4.9" fill="#1d1a16" stroke="none" stroke-width="2" opacity="0.06184593186882133"/>
<circle cx="133.0" cy="866.0" r="3.7" fill="#1d1a16" stroke="none" stroke-width="2" opacity="0.04577874970721704"/>
<circle cx="681.0" cy="153.0" r="2.9" fill="#1d1a16" stroke="none" stroke-width="2" opacity="0.05854352834929459"/>
<circle cx="601.0" cy="439.0" r="4.1" fill="#1d1a16" stroke="none" stroke-width="2" opacity="0.040623243679856993"/>
<circle cx="976.0" cy="1163.0" r="2.7" fill="#1d1a16" stroke="none" stroke-width="2" opacity="0.07444152894558503"/>
<circle cx="184.0" cy="689.0" r="4.8" fill="#1d1a16" stroke="none" stroke-width="2" opacity="0.0822033284033187"/>
<circle cx="224.0" cy="641.0" r="2.9" fill="#1d1a16" stroke="none" stroke-width="2" opacity="0.09519446068687845"/>
<circle cx="478.0" cy="1470.0" r="2.8" fill="#1d1a16" stroke="none" stroke-width="2" opacity="0.08689921173303922"/>
<circle cx="166.0" cy="1005.0" r="5.2" fill="#1d1a16" stroke="none" stroke-width="2" opacity="0.11355273047122308"/>
<circle cx="363.0" cy="1432.0" r="2.8" fill="#1d1a16" stroke="none" stroke-width="2" opacity="0.1089929380148282"/>
<circle cx="488.0" cy="419.0" r="2.8" fill="#1d1a16" stroke="none" stroke-width="2" opacity="0.05913122421265104"/>
<circle cx="356.0" cy="1044.0" r="3.4" fill="#1d1a16" stroke="none" stroke-width="2" opacity="0.08186314038742734"/>
<circle cx="183.0" cy="647.0" r="2.7" fill="#1d1a16" stroke="none" stroke-width="2" opacity="0.06160800452873916"/>
<circle cx="162.0" cy="693.0" r="5.3" fill="#1d1a16" stroke="none" stroke-width="2" opacity="0.04346190943175717"/>
<circle cx="904.0" cy="1148.0" r="5.3" fill="#1d1a16" stroke="none" stroke-width="2" opacity="0.06427646099481937"/>
<circle cx="534.0" cy="886.0" r="4.2" fill="#1d1a16" stroke="none" stroke-width="2" opacity="0.047673455617710664"/>
<circle cx="965.0" cy="1243.0" r="5.2" fill="#1d1a16" stroke="none" stroke-width="2" opacity="0.11433141425617957"/>
<circle cx="325.0" cy="218.0" r="1.8" fill="#1d1a16" stroke="none" stroke-width="2" opacity="0.08154854500221359"/>
<circle cx="854.0" cy="858.0" r="1.3" fill="#1d1a16" stroke="none" stroke-width="2" opacity="0.07518535646593504"/>
<circle cx="373.0" cy="1223.0" r="3.5" fill="#1d1a16" stroke="none" stroke-width="2" opacity="0.06376592842144857"/>
<circle cx="934.0" cy="234.0" r="1.4" fill="#1d1a16" stroke="none" stroke-width="2" opacity="0.08584457264868854"/>
<circle cx="163.0" cy="1269.0" r="3.1" fill="#1d1a16" stroke="none" stroke-width="2" opacity="0.08597202658603037"/>
<circle cx="457.0" cy="1461.0" r="5.3" fill="#1d1a16" stroke="none" stroke-width="2" opacity="0.07520782768525561"/>
<circle cx="402.0" cy="750.0" r="1.6" fill="#1d1a16" stroke="none" stroke-width="2" opacity="0.04807633280804985"/>
<circle cx="874.0" cy="882.0" r="4.6" fill="#1d1a16" stroke="none" stroke-width="2" opacity="0.11220683130025641"/>
<circle cx="227.0" cy="346.0" r="5.0" fill="#1d1a16" stroke="none" stroke-width="2" opacity="0.0854252566152307"/>
<circle cx="249.0" cy="1251.0" r="1.7" fill="#1d1a16" stroke="none" stroke-width="2" opacity="0.07159234732943612"/>
<circle cx="715.0" cy="498.0" r="4.6" fill="#1d1a16" stroke="none" stroke-width="2" opacity="0.11438604707022418"/>
<circle cx="374.0" cy="1302.0" r="2.3" fill="#1d1a16" stroke="none" stroke-width="2" opacity="0.0569344533732937"/>
<circle cx="790.0" cy="70.0" r="3.3" fill="#1d1a16" stroke="none" stroke-width="2" opacity="0.10410606827435029"/>
<circle cx="743.0" cy="27.0" r="4.6" fill="#1d1a16" stroke="none" stroke-width="2" opacity="0.09893704280392032"/>
<circle cx="710.0" cy="319.0" r="5.4" fill="#1d1a16" stroke="none" stroke-width="2" opacity="0.06930710234361298"/>
<circle cx="624.0" cy="1171.0" r="2.8" fill="#1d1a16" stroke="none" stroke-width="2" opacity="0.11038550769846947"/>
<circle cx="682.0" cy="546.0" r="4.3" fill="#1d1a16" stroke="none" stroke-width="2" opacity="0.10107071695146601"/>
<circle cx="139.0" cy="1311.0" r="1.5" fill="#1d1a16" stroke="none" stroke-width="2" opacity="0.05669768973716363"/>
<circle cx="155.0" cy="539.0" r="2.1" fill="#1d1a16" stroke="none" stroke-width="2" opacity="0.04811624098804598"/>
<circle cx="320.0" cy="899.0" r="2.7" fill="#1d1a16" stroke="none" stroke-width="2" opacity="0.04527985255761188"/>
<circle cx="975.0" cy="1138.0" r="4.1" fill="#1d1a16" stroke="none" stroke-width="2" opacity="0.0814988980836098"/>
<circle cx="59.0" cy="1275.0" r="1.4" fill="#1d1a16" stroke="none" stroke-width="2" opacity="0.07774644358113203"/>
<circle cx="902.0" cy="87.0" r="1.5" fill="#1d1a16" stroke="none" stroke-width="2" opacity="0.1034095168084804"/>
<circle cx="76.0" cy="74.0" r="3.2" fill="#1d1a16" stroke="none" stroke-width="2" opacity="0.08310128734454778"/>
<circle cx="766.0" cy="838.0" r="2.1" fill="#1d1a16" stroke="none" stroke-width="2" opacity="0.10874875137273346"/>
<circle cx="634.0" cy="794.0" r="2.8" fill="#1d1a16" stroke="none" stroke-width="2" opacity="0.09212826396531357"/>
<circle cx="837.0" cy="683.0" r="1.6" fill="#1d1a16" stroke="none" stroke-width="2" opacity="0.083033318567378"/>
<circle cx="242.0" cy="848.0" r="2.5" fill="#1d1a16" stroke="none" stroke-width="2" opacity="0.06456722776101004"/>
<circle cx="173.0" cy="231.0" r="2.9" fill="#1d1a16" stroke="none" stroke-width="2" opacity="0.04498715878221523"/>
<circle cx="982.0" cy="1156.0" r="1.7" fill="#1d1a16" stroke="none" stroke-width="2" opacity="0.11110055279285538"/>
<circle cx="730.0" cy="1352.0" r="3.5" fill="#1d1a16" stroke="none" stroke-width="2" opacity="0.04413443283928797"/>
<circle cx="407.0" cy="66.0" r="1.3" fill="#1d1a16" stroke="none" stroke-width="2" opacity="0.1165526725927245"/>
<circle cx="442.0" cy="848.0" r="4.8" fill="#1d1a16" stroke="none" stroke-width="2" opacity="0.08807457216068852"/>
<circle cx="523.0" cy="1169.0" r="3.6" fill="#1d1a16" stroke="none" stroke-width="2" opacity="0.041369349353526326"/>
<circle cx="279.0" cy="1108.0" r="2.8" fill="#1d1a16" stroke="none" stroke-width="2" opacity="0.08703117267273447"/>
<circle cx="120.0" cy="590.0" r="4.3" fill="#1d1a16" stroke="none" stroke-width="2" opacity="0.0823748787591182"/>
<circle cx="1004.0" cy="1345.0" r="2.6" fill="#1d1a16" stroke="none" stroke-width="2" opacity="0.04461402908022896"/>
<circle cx="55.0" cy="982.0" r="2.0" fill="#1d1a16" stroke="none" stroke-width="2" opacity="0.07055054192272518"/>
<circle cx="387.0" cy="1275.0" r="5.1" fill="#1d1a16" stroke="none" stroke-width="2" opacity="0.09757708610366958"/>
<circle cx="910.0" cy="78.0" r="2.7" fill="#1d1a16" stroke="none" stroke-width="2" opacity="0.08942937172464313"/>
<circle cx="585.0" cy="1215.0" r="2.9" fill="#1d1a16" stroke="none" stroke-width="2" opacity="0.11011872581746948"/>
<circle cx="803.0" cy="537.0" r="1.6" fill="#1d1a16" stroke="none" stroke-width="2" opacity="0.07637593095465628"/>
<circle cx="250.0" cy="1436.0" r="3.4" fill="#1d1a16" stroke="none" stroke-width="2" opacity="0.06000300831901888"/>
<circle cx="654.0" cy="631.0" r="3.9" fill="#1d1a16" stroke="none" stroke-width="2" opacity="0.06192413540902707"/>
<circle cx="671.0" cy="824.0" r="2.9" fill="#1d1a16" stroke="none" stroke-width="2" opacity="0.1127340859305857"/>
<circle cx="43.0" cy="1426.0" r="3.5" fill="#1d1a16" stroke="none" stroke-width="2" opacity="0.06532209760713367"/>
<circle cx="306.0" cy="1016.0" r="2.3" fill="#1d1a16" stroke="none" stroke-width="2" opacity="0.06019574666073209"/>
<circle cx="352.0" cy="433.0" r="4.8" fill="#1d1a16" stroke="none" stroke-width="2" opacity="0.1119486949395691"/>
<circle cx="238.0" cy="928.0" r="3.6" fill="#1d1a16" stroke="none" stroke-width="2" opacity="0.07023313872430985"/>
<circle cx="607.0" cy="811.0" r="3.9" fill="#1d1a16" stroke="none" stroke-width="2" opacity="0.06074646805050134"/>
<circle cx="723.0" cy="517.0" r="5.0" fill="#1d1a16" stroke="none" stroke-width="2" opacity="0.08328907703586438"/>
<circle cx="590.0" cy="788.0" r="3.0" fill="#1d1a16" stroke="none" stroke-width="2" opacity="0.0507909946702388"/>
<circle cx="121.0" cy="549.0" r="2.0" fill="#1d1a16" stroke="none" stroke-width="2" opacity="0.09463218035614362"/>
<circle cx="652.0" cy="1403.0" r="2.7" fill="#1d1a16" stroke="none" stroke-width="2" opacity="0.05369094532152182"/>
<rect x="160.0" y="205.0" width="610.0" height="720.0" rx="0" fill="#d7cbb4" stroke="#9b8c73" stroke-width="1.4" opacity="0.9" transform="rotate(2 465.0 565.0)"/>
<line x1="196.0" y1="255.0" x2="734.0" y2="255.0" stroke="#9b8c73" stroke-width="1.2" opacity="0.65"/>
<line x1="196.0" y1="333.1" x2="734.0" y2="333.1" stroke="#9b8c73" stroke-width="1.2" opacity="0.65"/>
<line x1="196.0" y1="411.2" x2="734.0" y2="411.2" stroke="#9b8c73" stroke-width="1.2" opacity="0.65"/>
<line x1="196.0" y1="489.4" x2="734.0" y2="489.4" stroke="#9b8c73" stroke-width="1.2" opacity="0.65"/>
<line x1="196.0" y1="567.5" x2="734.0" y2="567.5" stroke="#9b8c73" stroke-width="1.2" opacity="0.65"/>
<line x1="196.0" y1="645.6" x2="734.0" y2="645.6" stroke="#9b8c73" stroke-width="1.2" opacity="0.65"/>
<line x1="196.0" y1="723.8" x2="734.0" y2="723.8" stroke="#9b8c73" stroke-width="1.2" opacity="0.65"/>
<line x1="196.0" y1="801.9" x2="734.0" y2="801.9" stroke="#9b8c73" stroke-width="1.2" opacity="0.65"/>
<line x1="196.0" y1="880.0" x2="734.0" y2="880.0" stroke="#9b8c73" stroke-width="1.2" opacity="0.65"/>
<line x1="224.0" y1="241.0" x2="224.0" y2="889.0" stroke="#2f6f72" stroke-width="1" opacity="0.32"/>
<line x1="384.7" y1="241.0" x2="384.7" y2="889.0" stroke="#2f6f72" stroke-width="1" opacity="0.32"/>
<line x1="545.3" y1="241.0" x2="545.3" y2="889.0" stroke="#2f6f72" stroke-width="1" opacity="0.32"/>
<rect x="515.0" y="669.0" width="48.0" height="10.0" rx="0" fill="#2f6f72" stroke="none" stroke-width="1" opacity="0.31645041527211304"/>
<rect x="489.0" y="659.0" width="48.0" height="10.0" rx="0" fill="#2f6f72" stroke="none" stroke-width="1" opacity="0.2876303193612082"/>
<rect x="443.0" y="384.0" width="88.0" height="10.0" rx="0" fill="#2f6f72" stroke="none" stroke-width="1" opacity="0.29225293266483204"/>
<rect x="294.0" y="334.0" width="48.0" height="10.0" rx="0" fill="#ad5638" stroke="none" stroke-width="1" opacity="0.2481777696995251"/>
<rect x="427.0" y="570.0" width="73.0" height="10.0" rx="0" fill="#ad5638" stroke="none" stroke-width="1" opacity="0.22110976333251176"/>
<rect x="249.0" y="298.0" width="106.0" height="10.0" rx="0" fill="#9b762f" stroke="none" stroke-width="1" opacity="0.3378414970940337"/>
<rect x="221.0" y="558.0" width="74.0" height="10.0" rx="0" fill="#9b762f" stroke="none" stroke-width="1" opacity="0.3236080594792293"/>
<circle cx="498.0" cy="625.0" r="126.0" fill="#ad8c43" stroke="#5b4523" stroke-width="9" opacity="0.88"/>
<path d="M420 600 C430 510 570 510 580 600 C558 678 442 678 420 600 Z" fill="#c2a44c" stroke="#5b4523" stroke-width="6" opacity="0.86"/>
<rect x="470.0" y="420.0" width="58.0" height="155.0" rx="20" fill="#755b2c" stroke="none" stroke-width="1" opacity="0.76"/>
<rect x="170.0" y="1000.0" width="84.0" height="52.0" rx="12" fill="#c8a769" stroke="#7b6040" stroke-width="2" opacity="0.65" transform="rotate(6.914828625183162 212.0 1026.0)"/>
<rect x="280.0" y="1000.0" width="84.0" height="52.0" rx="12" fill="#c8a769" stroke="#7b6040" stroke-width="2" opacity="0.65" transform="rotate(8.50639422802831 322.0 1026.0)"/>
<rect x="390.0" y="1000.0" width="84.0" height="52.0" rx="12" fill="#c8a769" stroke="#7b6040" stroke-width="2" opacity="0.65" transform="rotate(-1.754112419372131 432.0 1026.0)"/>
<rect x="500.0" y="1000.0" width="84.0" height="52.0" rx="12" fill="#c8a769" stroke="#7b6040" stroke-width="2" opacity="0.65" transform="rotate(7.921328922555048 542.0 1026.0)"/>
<rect x="170.0" y="1110.0" width="84.0" height="52.0" rx="12" fill="#c8a769" stroke="#7b6040" stroke-width="2" opacity="0.65" transform="rotate(0.34649694469855774 212.0 1136.0)"/>
<rect x="280.0" y="1110.0" width="84.0" height="52.0" rx="12" fill="#c8a769" stroke="#7b6040" stroke-width="2" opacity="0.65" transform="rotate(-4.607703839464734 322.0 1136.0)"/>
<rect x="390.0" y="1110.0" width="84.0" height="52.0" rx="12" fill="#c8a769" stroke="#7b6040" stroke-width="2" opacity="0.65" transform="rotate(1.9408095756563135 432.0 1136.0)"/>
<rect x="610.0" y="990.0" width="250.0" height="225.0" rx="0" fill="#3b4141" stroke="#232323" stroke-width="2" opacity="0.48" transform="rotate(-3 735.0 1102.5)"/>
<rect x="638.0" y="1024.0" width="190.0" height="35.0" rx="0" fill="#2f6f72" stroke="none" stroke-width="1" opacity="0.18" transform="rotate(-3 733.0 1041.5)"/>
<rect x="103.0" y="120.0" width="90.0" height="1240.0" rx="0" fill="#1b1a17" stroke="none" stroke-width="1" opacity="0.2"/>
<circle cx="235.0" cy="1215.0" r="88.0" fill="none" stroke="#ad5638" stroke-width="7" opacity="0.38"/>
  </g>
  <rect x="0" y="0" width="1024" height="1536" filter="url(#grain)" opacity="0.28"/>
</svg>
