<svg xmlns="http://www.w3.org/2000/svg" viewBox="0 0 1024 1536" width="1024" height="1536">
  <defs>
    <filter id="grain" x="-10%" y="-10%" width="120%" height="120%">
      <feTurbulence type="fractalNoise" baseFrequency="0.86" numOctaves="3" seed="AA"/>
      <feColorMatrix type="saturate" values="0"/>
      <feComponentTransfer>
        <feFuncA type="table" tableValues="0 0.17"/>
      </feComponentTransfer>
    </filter>
  </defs>
  <g>
    <rect x="0.0" y="0.0" width="1024.0" height="1536.0" rx="0" fill="#eee5d3" stroke="none" stroke-width="1" opacity="1.0"/>
<rect x="26.0" y="26.0" width="972.0" height="1484.0" rx="0" fill="none" stroke="#9b8c73" stroke-width="1.2" opacity="0.58"/>
<rect x="712.0" y="760.0" width="363.0" height="342.0" rx="0" fill="#2f6f72" stroke="none" stroke-width="1" opacity="0.3364323839828121" transform="rotate(-3.522452580497932 893.5 931.0)"/>
<rect x="93.0" y="770.0" width="381.0" height="159.0" rx="0" fill="#2f6f72" stroke="none" stroke-width="1" opacity="0.20691079168491522" transform="rotate(-4.4991626920536705 283.5 849.5)"/>
<rect x="-35.0" y="1308.0" width="232.0" height="162.0" rx="0" fill="#2f6f72" stroke="none" stroke-width="1" opacity="0.35325860598694325" transform="rotate(-3.9030547440382075 81.0 1389.0)"/>
<rect x="588.0" y="1357.0" width="418.0" height="141.0" rx="0" fill="#777269" stroke="none" stroke-width="1" opacity="0.28488343575373987" transform="rotate(-3.342611759848928 797.0 1427.5)"/>
<rect x="-49.0" y="580.0" width="273.0" height="140.0" rx="0" fill="#2f6f72" stroke="none" stroke-width="1" opacity="0.3530066747125747" transform="rotate(-1.7402414320646349 87.5 650.0)"/>
<rect x="17.0" y="-34.0" width="317.0" height="243.0" rx="0" fill="#2f6f72" stroke="none" stroke-width="1" opacity="0.20020168343469752" transform="rotate(-0.6120076130541303 175.5 87.5)"/>
<rect x="857.0" y="492.0" width="386.0" height="270.0" rx="0" fill="#24211d" stroke="none" stroke-width="1" opacity="0.2071170837716735" transform="rotate(-1.4988723744187156 1050.0 627.0)"/>
<rect x="130.0" y="115.0" width="185.0" height="266.0" rx="0" fill="#777269" stroke="none" stroke-width="1" opacity="0.14117471439880167" transform="rotate(-3.7784128388909632 222.5 248.0)"/>
<rect x="697.0" y="104.0" width="382.0" height="335.0" rx="0" fill="#d7cbb4" stroke="none" stroke-width="1" opacity="0.2010308283622557" transform="rotate(1.0101689397925258 888.0 271.5)"/>
<rect x="219.0" y="1260.0" width="143.0" height="134.0" rx="0" fill="#d7cbb4" stroke="none" stroke-width="1" opacity="0.19059605680292163" transform="rotate(3.6739311235048246 290.5 1327.0)"/>
<rect x="67.0" y="1272.0" width="414.0" height="225.0" rx="0" fill="#9b762f" stroke="none" stroke-width="1" opacity="0.3411570684824089" transform="rotate(-1.8804254102991482 274.0 1384.5)"/>
<rect x="111.0" y="1083.0" width="325.0" height="60.0" rx="0" fill="#24211d" stroke="none" stroke-width="1" opacity="0.37896014024584235" transform="rotate(-3.831567891369901 273.5 1113.0)"/>
<rect x="795.0" y="-47.0" width="339.0" height="313.0" rx="0" fill="#777269" stroke="none" stroke-width="1" opacity="0.15270167369950546" transform="rotate(3.220919326552589 964.5 109.5)"/>
<rect x="76.0" y="638.0" width="264.0" height="122.0" rx="0" fill="#9b762f" stroke="none" stroke-width="1" opacity="0.3893591781169156" transform="rotate(-1.7831937042699502 208.0 699.0)"/>
<rect x="-18.0" y="59.0" width="137.0" height="197.0" rx="0" fill="#ad5638" stroke="none" stroke-width="1" opacity="0.16703764209575708" transform="rotate(-1.409124646922006 50.5 157.5)"/>
<rect x="336.0" y="811.0" width="262.0" height="166.0" rx="0" fill="#2f6f72" stroke="none" stroke-width="1" opacity="0.2708466104088952" transform="rotate(4.600280945714103 467.0 894.0)"/>
<rect x="588.0" y="892.0" width="301.0" height="294.0" rx="0" fill="#9b762f" stroke="none" stroke-width="1" opacity="0.1333518158543433" transform="rotate(4.600725441366902 738.5 1039.0)"/>
<rect x="831.0" y="542.0" width="252.0" height="92.0" rx="0" fill="#ad5638" stroke="none" stroke-width="1" opacity="0.30028829755030495" transform="rotate(-3.1735399977563272 957.0 588.0)"/>
<rect x="639.0" y="-15.0" width="292.0" height="83.0" rx="0" fill="#2f6f72" stroke="none" stroke-width="1" opacity="0.21921235160193026" transform="rotate(-0.6835200626575668 785.0 26.5)"/>
<rect x="50.0" y="179.0" width="142.0" height="349.0" rx="0" fill="#9b762f" stroke="none" stroke-width="1" opacity="0.36790748442566634" transform="rotate(-1.9943707634925043 121.0 353.5)"/>
<rect x="322.0" y="-48.0" width="358.0" height="199.0" rx="0" fill="#777269" stroke="none" stroke-width="1" opacity="0.3672766743983391" transform="rotate(-3.3360773073175256 501.0 51.5)"/>
<rect x="517.0" y="1132.0" width="496.0" height="252.0" rx="0" fill="#9b762f" stroke="none" stroke-width="1" opacity="0.17951793826209597" transform="rotate(1.5762503327695132 765.0 1258.0)"/>
<rect x="-20.0" y="1088.0" width="186.0" height="287.0" rx="0" fill="#9b762f" stroke="none" stroke-width="1" opacity="0.2219171239373591" transform="rotate(1.0486174770313532 73.0 1231.5)"/>
<line x1="64.0" y1="42.0" x2="64.0" y2="1494.0" stroke="#9b8c73" stroke-width="1" opacity="0.11"/>
<line x1="154.0" y1="42.0" x2="154.0" y2="1494.0" stroke="#9b8c73" stroke-width="1" opacity="0.11"/>
<line x1="244.0" y1="42.0" x2="244.0" y2="1494.0" stroke="#9b8c73" stroke-width="1" opacity="0.11"/>
<line x1="334.0" y1="42.0" x2="334.0" y2="1494.0" stroke="#9b8c73" stroke-width="1" opacity="0.11"/>
<line x1="424.0" y1="42.0" x2="424.0" y2="1494.0" stroke="#9b8c73" stroke-width="1" opacity="0.11"/>
<line x1="514.0" y1="42.0" x2="514.0" y2="1494.0" stroke="#9b8c73" stroke-width="1" opacity="0.11"/>
<line x1="604.0" y1="42.0" x2="604.0" y2="1494.0" stroke="#9b8c73" stroke-width="1" opacity="0.11"/>
<line x1="694.0" y1="42.0" x2="694.0" y2="1494.0" stroke="#9b8c73" stroke-width="1" opacity="0.11"/>
<line x1="784.0" y1="42.0" x2="784.0" y2="1494.0" stroke="#9b8c73" stroke-width="1" opacity="0.11"/>
<line x1="874.0" y1="42.0" x2="874.0" y2="1494.0" stroke="#9b8c73" stroke-width="1" opacity="0.11"/>
<line x1="964.0" y1="42.0" x2="964.0" y2="1494.0" stroke="#9b8c73" stroke-width="1" opacity="0.11"/>
<line x1="42.0" y1="70.0" x2="982.0" y2="70.0" stroke="#9b8c73" stroke-width="1" opacity="0.095"/>
<line x1="42.0" y1="174.0" x2="982.0" y2="174.0" stroke="#9b8c73" stroke-width="1" opacity="0.095"/>
<line x1="42.0" y1="278.0" x2="982.0" y2="278.0" stroke="#9b8c73" stroke-width="1" opacity="0.095"/>
<line x1="42.0" y1="382.0" x2="982.0" y2="382.0" stroke="#9b8c73" stroke-width="1" opacity="0.095"/>
<line x1="42.0" y1="486.0" x2="982.0" y2="486.0" stroke="#9b8c73" stroke-width="1" opacity="0.095"/>
<line x1="42.0" y1="590.0" x2="982.0" y2="590.0" stroke="#9b8c73" stroke-width="1" opacity="0.095"/>
<line x1="42.0" y1="694.0" x2="982.0" y2="694.0" stroke="#9b8c73" stroke-width="1" opacity="0.095"/>
<line x1="42.0" y1="798.0" x2="982.0" y2="798.0" stroke="#9b8c73" stroke-width="1" opacity="0.095"/>
<line x1="42.0" y1="902.0" x2="982.0" y2="902.0" stroke="#9b8c73" stroke-width="1" opacity="0.095"/>
<line x1="42.0" y1="1006.0" x2="982.0" y2="1006.0" stroke="#9b8c73" stroke-width="1" opacity="0.095"/>
<line x1="42.0" y1="1110.0" x2="982.0" y2="1110.0" stroke="#9b8c73" stroke-width="1" opacity="0.095"/>
<line x1="42.0" y1="1214.0" x2="982.0" y2="1214.0" stroke="#9b8c73" stroke-width="1" opacity="0.095"/>
<line x1="42.0" y1="1318.0" x2="982.0" y2="1318.0" stroke="#9b8c73" stroke-width="1" opacity="0.095"/>
<line x1="42.0" y1="1422.0" x2="982.0" y2="1422.0" stroke="#9b8c73" stroke-width="1" opacity="0.095"/>
<line x1="42.0" y1="1526.0" x2="982.0" y2="1526.0" stroke="#9b8c73" stroke-width="1" opacity="0.095"/>
<circle cx="554.0" cy="810.0" r="4.0" fill="#1d1a16" stroke="none" stroke-width="2" opacity="0.09043740116499274"/>
<circle cx="258.0" cy="611.0" r="3.2" fill="#1d1a16" stroke="none" stroke-width="2" opacity="0.10157586059059748"/>
<circle cx="412.0" cy="1477.0" r="1.0" fill="#1d1a16" stroke="none" stroke-width="2" opacity="0.0961753004087548"/>
<circle cx="979.0" cy="212.0" r="4.0" fill="#1d1a16" stroke="none" stroke-width="2" opacity="0.05201099245957347"/>
<circle cx="527.0" cy="562.0" r="3.0" fill="#1d1a16" stroke="none" stroke-width="2" opacity="0.06343423251905878"/>
<circle cx="302.0" cy="1064.0" r="1.7" fill="#1d1a16" stroke="none" stroke-width="2" opacity="0.0376608465757913"/>
<circle cx="736.0" cy="1395.0" r="3.9" fill="#1d1a16" stroke="none" stroke-width="2" opacity="0.04040292368164333"/>
<circle cx="882.0" cy="267.0" r="1.5" fill="#1d1a16" stroke="none" stroke-width="2" opacity="0.03211814740362902"/>
<circle cx="895.0" cy="464.0" r="3.1" fill="#1d1a16" stroke="none" stroke-width="2" opacity="0.08154779945818459"/>
<circle cx="936.0" cy="609.0" r="4.8" fill="#1d1a16" stroke="none" stroke-width="2" opacity="0.08867856743296197"/>
<circle cx="438.0" cy="157.0" r="2.5" fill="#1d1a16" stroke="none" stroke-width="2" opacity="0.09760890432144734"/>
<circle cx="633.0" cy="201.0" r="2.1" fill="#1d1a16" stroke="none" stroke-width="2" opacity="0.09846666060515706"/>
<circle cx="244.0" cy="915.0" r="2.5" fill="#1d1a16" stroke="none" stroke-width="2" opacity="0.04372528453033558"/>
<circle cx="172.0" cy="1414.0" r="3.3" fill="#1d1a16" stroke="none" stroke-width="2" opacity="0.03392101234126556"/>
<circle cx="396.0" cy="1383.0" r="3.8" fill="#1d1a16" stroke="none" stroke-width="2" opacity="0.05502153540724082"/>
<circle cx="153.0" cy="1517.0" r="4.5" fill="#1d1a16" stroke="none" stroke-width="2" opacity="0.031159409504293165"/>
<circle cx="941.0" cy="794.0" r="2.2" fill="#1d1a16" stroke="none" stroke-width="2" opacity="0.06517507469046524"/>
<circle cx="304.0" cy="886.0" r="4.5" fill="#1d1a16" stroke="none" stroke-width="2" opacity="0.08874975341262452"/>
<circle cx="463.0" cy="987.0" r="3.7" fill="#1d1a16" stroke="none" stroke-width="2" opacity="0.06791946947788871"/>
<circle cx="884.0" cy="570.0" r="3.4" fill="#1d1a16" stroke="none" stroke-width="2" opacity="0.07049640258478398"/>
<circle cx="432.0" cy="848.0" r="1.9" fill="#1d1a16" stroke="none" stroke-width="2" opacity="0.09194473441297474"/>
<circle cx="792.0" cy="465.0" r="1.6" fill="#1d1a16" stroke="none" stroke-width="2" opacity="0.09632347956917993"/>
<circle cx="476.0" cy="712.0" r="2.5" fill="#1d1a16" stroke="none" stroke-width="2" opacity="0.09498065753481333"/>
<circle cx="361.0" cy="1126.0" r="4.1" fill="#1d1a16" stroke="none" stroke-width="2" opacity="0.042996895572628195"/>
<circle cx="786.0" cy="216.0" r="4.2" fill="#1d1a16" stroke="none" stroke-width="2" opacity="0.08785692537972982"/>
<circle cx="319.0" cy="492.0" r="3.1" fill="#1d1a16" stroke="none" stroke-width="2" opacity="0.07311630869250996"/>
<circle cx="181.0" cy="1195.0" r="2.1" fill="#1d1a16" stroke="none" stroke-width="2" opacity="0.04300291547436196"/>
<circle cx="619.0" cy="1416.0" r="3.4" fill="#1d1a16" stroke="none" stroke-width="2" opacity="0.039176707448760936"/>
<circle cx="241.0" cy="801.0" r="1.2" fill="#1d1a16" stroke="none" stroke-width="2" opacity="0.08293030798525343"/>
<circle cx="457.0" cy="449.0" r="2.2" fill="#1d1a16" stroke="none" stroke-width="2" opacity="0.03576919944331954"/>
<circle cx="874.0" cy="873.0" r="4.5" fill="#1d1a16" stroke="none" stroke-width="2" opacity="0.030433959955639932"/>
<circle cx="409.0" cy="386.0" r="4.6" fill="#1d1a16" stroke="none" stroke-width="2" opacity="0.05007948693100964"/>
<circle cx="311.0" cy="1076.0" r="2.7" fill="#1d1a16" stroke="none" stroke-width="2" opacity="0.1026457078093104"/>
<circle cx="1004.0" cy="649.0" r="1.5" fill="#1d1a16" stroke="none" stroke-width="2" opacity="0.043062148438451284"/>
<circle cx="26.0" cy="146.0" r="2.4" fill="#1d1a16" stroke="none" stroke-width="2" opacity="0.032143901654264354"/>
<circle cx="392.0" cy="1202.0" r="2.4" fill="#1d1a16" stroke="none" stroke-width="2" opacity="0.05202610158079099"/>
<circle cx="317.0" cy="1047.0" r="2.9" fill="#1d1a16" stroke="none" stroke-width="2" opacity="0.07575979364759147"/>
<circle cx="305.0" cy="90.0" r="1.2" fill="#1d1a16" stroke="none" stroke-width="2" opacity="0.09448408411446582"/>
<circle cx="751.0" cy="430.0" r="1.3" fill="#1d1a16" stroke="none" stroke-width="2" opacity="0.06450524681503045"/>
<circle cx="642.0" cy="454.0" r="2.8" fill="#1d1a16" stroke="none" stroke-width="2" opacity="0.043592318472890634"/>
<circle cx="548.0" cy="165.0" r="4.9" fill="#1d1a16" stroke="none" stroke-width="2" opacity="0.061701310189752286"/>
<circle cx="577.0" cy="299.0" r="4.6" fill="#1d1a16" stroke="none" stroke-width="2" opacity="0.09035224982814397"/>
<circle cx="836.0" cy="656.0" r="2.6" fill="#1d1a16" stroke="none" stroke-width="2" opacity="0.08720221909241574"/>
<circle cx="310.0" cy="951.0" r="4.6" fill="#1d1a16" stroke="none" stroke-width="2" opacity="0.10387603155859053"/>
<circle cx="539.0" cy="936.0" r="1.3" fill="#1d1a16" stroke="none" stroke-width="2" opacity="0.0775425456659342"/>
<circle cx="868.0" cy="678.0" r="1.8" fill="#1d1a16" stroke="none" stroke-width="2" opacity="0.04486988546979501"/>
<circle cx="406.0" cy="1285.0" r="2.1" fill="#1d1a16" stroke="none" stroke-width="2" opacity="0.03837866722047495"/>
<circle cx="322.0" cy="493.0" r="2.5" fill="#1d1a16" stroke="none" stroke-width="2" opacity="0.0947021043568936"/>
<circle cx="602.0" cy="1272.0" r="3.8" fill="#1d1a16" stroke="none" stroke-width="2" opacity="0.07964430415455137"/>
<circle cx="918.0" cy="354.0" r="4.5" fill="#1d1a16" stroke="none" stroke-width="2" opacity="0.04228986494424554"/>
<circle cx="110.0" cy="937.0" r="1.5" fill="#1d1a16" stroke="none" stroke-width="2" opacity="0.06620120063636292"/>
<circle cx="667.0" cy="1386.0" r="5.0" fill="#1d1a16" stroke="none" stroke-width="2" opacity="0.09840657965208367"/>
<circle cx="176.0" cy="853.0" r="1.8" fill="#1d1a16" stroke="none" stroke-width="2" opacity="0.07622036735115112"/>
<circle cx="432.0" cy="862.0" r="1.2" fill="#1d1a16" stroke="none" stroke-width="2" opacity="0.06424309019166269"/>
<circle cx="625.0" cy="112.0" r="2.2" fill="#1d1a16" stroke="none" stroke-width="2" opacity="0.05215014630300594"/>
<circle cx="627.0" cy="1329.0" r="2.0" fill="#1d1a16" stroke="none" stroke-width="2" opacity="0.097131457000045"/>
<circle cx="100.0" cy="408.0" r="2.7" fill="#1d1a16" stroke="none" stroke-width="2" opacity="0.07778756998010003"/>
<circle cx="20.0" cy="1490.0" r="4.1" fill="#1d1a16" stroke="none" stroke-width="2" opacity="0.09659884954639128"/>
<circle cx="681.0" cy="539.0" r="2.5" fill="#1d1a16" stroke="none" stroke-width="2" opacity="0.06470422448979649"/>
<circle cx="185.0" cy="1002.0" r="1.5" fill="#1d1a16" stroke="none" stroke-width="2" opacity="0.04095241573719079"/>
<circle cx="536.0" cy="220.0" r="2.3" fill="#1d1a16" stroke="none" stroke-width="2" opacity="0.04416499370621021"/>
<circle cx="994.0" cy="222.0" r="1.0" fill="#1d1a16" stroke="none" stroke-width="2" opacity="0.03685731400568983"/>
<circle cx="776.0" cy="1089.0" r="1.3" fill="#1d1a16" stroke="none" stroke-width="2" opacity="0.09412911852820945"/>
<circle cx="708.0" cy="77.0" r="5.0" fill="#1d1a16" stroke="none" stroke-width="2" opacity="0.08037306438461139"/>
<circle cx="832.0" cy="169.0" r="3.7" fill="#1d1a16" stroke="none" stroke-width="2" opacity="0.035107015783650664"/>
<circle cx="427.0" cy="1102.0" r="2.6" fill="#1d1a16" stroke="none" stroke-width="2" opacity="0.0895098987584663"/>
<circle cx="356.0" cy="587.0" r="4.0" fill="#1d1a16" stroke="none" stroke-width="2" opacity="0.0901735136092468"/>
<circle cx="72.0" cy="1260.0" r="1.2" fill="#1d1a16" stroke="none" stroke-width="2" opacity="0.07740884458598477"/>
<circle cx="940.0" cy="165.0" r="2.4" fill="#1d1a16" stroke="none" stroke-width="2" opacity="0.04434226190096791"/>
<circle cx="554.0" cy="1360.0" r="2.6" fill="#1d1a16" stroke="none" stroke-width="2" opacity="0.09330300760511966"/>
<circle cx="672.0" cy="663.0" r="5.1" fill="#1d1a16" stroke="none" stroke-width="2" opacity="0.09762332411774853"/>
<circle cx="535.0" cy="843.0" r="4.2" fill="#1d1a16" stroke="none" stroke-width="2" opacity="0.0673291439939923"/>
<circle cx="405.0" cy="1033.0" r="3.2" fill="#1d1a16" stroke="none" stroke-width="2" opacity="0.05817522110744057"/>
<circle cx="432.0" cy="142.0" r="1.2" fill="#1d1a16" stroke="none" stroke-width="2" opacity="0.10318554159960364"/>
<circle cx="94.0" cy="941.0" r="4.8" fill="#1d1a16" stroke="none" stroke-width="2" opacity="0.08094220897905174"/>
<circle cx="799.0" cy="497.0" r="4.1" fill="#1d1a16" stroke="none" stroke-width="2" opacity="0.10306195578164495"/>
<circle cx="248.0" cy="336.0" r="3.6" fill="#1d1a16" stroke="none" stroke-width="2" opacity="0.08706960991319765"/>
<circle cx="342.0" cy="394.0" r="1.6" fill="#1d1a16" stroke="none" stroke-width="2" opacity="0.0567748165324827"/>
<circle cx="309.0" cy="1319.0" r="3.2" fill="#1d1a16" stroke="none" stroke-width="2" opacity="0.058996278299693665"/>
<circle cx="101.0" cy="594.0" r="2.1" fill="#1d1a16" stroke="none" stroke-width="2" opacity="0.061427215542319454"/>
<circle cx="323.0" cy="947.0" r="3.9" fill="#1d1a16" stroke="none" stroke-width="2" opacity="0.0761675963160249"/>
<circle cx="574.0" cy="64.0" r="3.0" fill="#1d1a16" stroke="none" stroke-width="2" opacity="0.03145100330647003"/>
<circle cx="574.0" cy="1379.0" r="1.0" fill="#1d1a16" stroke="none" stroke-width="2" opacity="0.10489549784758428"/>
<circle cx="367.0" cy="801.0" r="4.9" fill="#1d1a16" stroke="none" stroke-width="2" opacity="0.048237212835539056"/>
<circle cx="170.0" cy="963.0" r="1.7" fill="#1d1a16" stroke="none" stroke-width="2" opacity="0.0846503772093618"/>
<circle cx="921.0" cy="620.0" r="2.1" fill="#1d1a16" stroke="none" stroke-width="2" opacity="0.08205064917672242"/>
<circle cx="768.0" cy="44.0" r="1.1" fill="#1d1a16" stroke="none" stroke-width="2" opacity="0.08005896263563395"/>
<circle cx="666.0" cy="428.0" r="1.6" fill="#1d1a16" stroke="none" stroke-width="2" opacity="0.08068336068687962"/>
<circle cx="673.0" cy="1171.0" r="1.7" fill="#1d1a16" stroke="none" stroke-width="2" opacity="0.05313672830313925"/>
<circle cx="204.0" cy="936.0" r="3.9" fill="#1d1a16" stroke="none" stroke-width="2" opacity="0.051525345844603755"/>
<circle cx="895.0" cy="484.0" r="2.1" fill="#1d1a16" stroke="none" stroke-width="2" opacity="0.04468192766152207"/>
<circle cx="672.0" cy="1079.0" r="1.4" fill="#1d1a16" stroke="none" stroke-width="2" opacity="0.035587915588100955"/>
<rect x="138.0" y="175.0" width="620.0" height="715.0" rx="0" fill="#d7cbb4" stroke="#9b8c73" stroke-width="1.3" opacity="0.88" transform="rotate(1.2 448.0 532.5)"/>
<line x1="172.0" y1="227.0" x2="724.0" y2="227.0" stroke="#9b8c73" stroke-width="1.1" opacity="0.56"/>
<line x1="172.0" y1="314.3" x2="724.0" y2="314.3" stroke="#9b8c73" stroke-width="1.1" opacity="0.56"/>
<line x1="172.0" y1="401.6" x2="724.0" y2="401.6" stroke="#9b8c73" stroke-width="1.1" opacity="0.56"/>
<line x1="172.0" y1="488.9" x2="724.0" y2="488.9" stroke="#9b8c73" stroke-width="1.1" opacity="0.56"/>
<line x1="172.0" y1="576.1" x2="724.0" y2="576.1" stroke="#9b8c73" stroke-width="1.1" opacity="0.56"/>
<line x1="172.0" y1="663.4" x2="724.0" y2="663.4" stroke="#9b8c73" stroke-width="1.1" opacity="0.56"/>
<line x1="172.0" y1="750.7" x2="724.0" y2="750.7" stroke="#9b8c73" stroke-width="1.1" opacity="0.56"/>
<line x1="172.0" y1="838.0" x2="724.0" y2="838.0" stroke="#9b8c73" stroke-width="1.1" opacity="0.56"/>
<line x1="192.0" y1="209.0" x2="192.0" y2="856.0" stroke="#2f6f72" stroke-width="1" opacity="0.28"/>
<line x1="362.7" y1="209.0" x2="362.7" y2="856.0" stroke="#2f6f72" stroke-width="1" opacity="0.28"/>
<line x1="533.3" y1="209.0" x2="533.3" y2="856.0" stroke="#2f6f72" stroke-width="1" opacity="0.28"/>
<rect x="235.0" y="636.0" width="52.0" height="10.0" rx="0" fill="#9b762f" stroke="none" stroke-width="1" opacity="0.31745096690116603"/>
<rect x="601.0" y="611.0" width="105.0" height="10.0" rx="0" fill="#9b762f" stroke="none" stroke-width="1" opacity="0.18662184239543492"/>
<rect x="352.0" y="259.0" width="94.0" height="10.0" rx="0" fill="#1d1a16" stroke="none" stroke-width="1" opacity="0.170609186025529"/>
<rect x="412.0" y="484.0" width="75.0" height="10.0" rx="0" fill="#1d1a16" stroke="none" stroke-width="1" opacity="0.32702666431547167"/>
<rect x="418.0" y="648.0" width="61.0" height="10.0" rx="0" fill="#ad5638" stroke="none" stroke-width="1" opacity="0.33506409181445174"/>
<rect x="184.0" y="262.0" width="78.0" height="10.0" rx="0" fill="#9b762f" stroke="none" stroke-width="1" opacity="0.2891227800502448"/>
<rect x="575.0" y="718.0" width="107.0" height="10.0" rx="0" fill="#1d1a16" stroke="none" stroke-width="1" opacity="0.3077076804857088"/>
<rect x="86.0" y="905.0" width="860.0" height="210.0" rx="0" fill="#182326" stroke="none" stroke-width="1" opacity="0.44" transform="rotate(-1 516.0 1010.0)"/>
<path d="M96 925 C260 890 420 961 590 920 C740 883 850 937 938 905" fill="none" stroke="#2f6f72" stroke-width="2.2" opacity="0.22"/>
<path d="M96 953 C260 918 420 989 590 948 C740 911 850 965 938 933" fill="none" stroke="#2f6f72" stroke-width="2.2" opacity="0.22"/>
<path d="M96 981 C260 946 420 1017 590 976 C740 939 850 993 938 961" fill="none" stroke="#2f6f72" stroke-width="2.2" opacity="0.22"/>
<path d="M96 1009 C260 974 420 1045 590 1004 C740 967 850 1021 938 989" fill="none" stroke="#2f6f72" stroke-width="2.2" opacity="0.22"/>
<path d="M96 1037 C260 1002 420 1073 590 1032 C740 995 850 1049 938 1017" fill="none" stroke="#2f6f72" stroke-width="2.2" opacity="0.22"/>
<path d="M96 1065 C260 1030 420 1101 590 1060 C740 1023 850 1077 938 1045" fill="none" stroke="#2f6f72" stroke-width="2.2" opacity="0.22"/>
<path d="M96 1093 C260 1058 420 1129 590 1088 C740 1051 850 1105 938 1073" fill="none" stroke="#2f6f72" stroke-width="2.2" opacity="0.22"/>
<path d="M505 395 L685 700 L348 705 Z" fill="#11100f" stroke="#4c463f" stroke-width="8" opacity="0.86"/>
<path d="M505 395 L535 705" fill="none" stroke="#8d7b54" stroke-width="4" opacity="0.3"/>
<circle cx="515.0" cy="615.0" r="70.0" fill="none" stroke="#2f6f72" stroke-width="2.2" opacity="0.13"/>
<circle cx="515.0" cy="615.0" r="116.0" fill="none" stroke="#2f6f72" stroke-width="2.2" opacity="0.13"/>
<circle cx="515.0" cy="615.0" r="162.0" fill="none" stroke="#2f6f72" stroke-width="2.2" opacity="0.13"/>
<circle cx="515.0" cy="615.0" r="208.0" fill="none" stroke="#2f6f72" stroke-width="2.2" opacity="0.13"/>
<circle cx="515.0" cy="615.0" r="254.0" fill="none" stroke="#2f6f72" stroke-width="2.2" opacity="0.13"/>
<circle cx="515.0" cy="615.0" r="300.0" fill="none" stroke="#2f6f72" stroke-width="2.2" opacity="0.13"/>
<rect x="185.0" y="1138.0" width="610.0" height="78.0" rx="0" fill="#6f6045" stroke="none" stroke-width="1" opacity="0.24" transform="rotate(2 490.0 1177.0)"/>
<circle cx="220.0" cy="1168.0" r="18.0" fill="#9b762f" stroke="none" stroke-width="2" opacity="0.24"/>
<circle cx="274.0" cy="1165.0" r="18.0" fill="#9b762f" stroke="none" stroke-width="2" opacity="0.24"/>
<circle cx="328.0" cy="1172.0" r="18.0" fill="#9b762f" stroke="none" stroke-width="2" opacity="0.24"/>
<circle cx="382.0" cy="1165.0" r="18.0" fill="#9b762f" stroke="none" stroke-width="2" opacity="0.24"/>
<circle cx="436.0" cy="1174.0" r="18.0" fill="#9b762f" stroke="none" stroke-width="2" opacity="0.24"/>
<circle cx="490.0" cy="1164.0" r="18.0" fill="#9b762f" stroke="none" stroke-width="2" opacity="0.24"/>
<circle cx="544.0" cy="1174.0" r="18.0" fill="#9b762f" stroke="none" stroke-width="2" opacity="0.24"/>
<circle cx="598.0" cy="1167.0" r="18.0" fill="#9b762f" stroke="none" stroke-width="2" opacity="0.24"/>
<circle cx="652.0" cy="1178.0" r="18.0" fill="#9b762f" stroke="none" stroke-width="2" opacity="0.24"/>
<circle cx="706.0" cy="1173.0" r="18.0" fill="#9b762f" stroke="none" stroke-width="2" opacity="0.24"/>
<circle cx="760.0" cy="1164.0" r="18.0" fill="#9b762f" stroke="none" stroke-width="2" opacity="0.24"/>
  </g>
  <rect x="0" y="0" width="1024" height="1536" filter="url(#grain)" opacity="0.27"/>
</svg>
