<svg xmlns="http://www.w3.org/2000/svg" viewBox="0 0 1024 1536" width="1024" height="1536">
  <defs>
    <filter id="grain" x="-10%" y="-10%" width="120%" height="120%">
      <feTurbulence type="fractalNoise" baseFrequency="0.86" numOctaves="3" seed="A5"/>
      <feColorMatrix type="saturate" values="0"/>
      <feComponentTransfer>
        <feFuncA type="table" tableValues="0 0.17"/>
      </feComponentTransfer>
    </filter>
  </defs>
  <g>
    <rect x="0.0" y="0.0" width="1024.0" height="1536.0" rx="0" fill="#eee5d3" stroke="none" stroke-width="1" opacity="1.0"/>
<rect x="26.0" y="26.0" width="972.0" height="1484.0" rx="0" fill="none" stroke="#9b8c73" stroke-width="1.2" opacity="0.58"/>
<rect x="-79.0" y="920.0" width="215.0" height="196.0" rx="0" fill="#ad5638" stroke="none" stroke-width="1" opacity="0.37455668060186714" transform="rotate(4.509478495992492 28.5 1018.0)"/>
<rect x="47.0" y="788.0" width="224.0" height="61.0" rx="0" fill="#9b762f" stroke="none" stroke-width="1" opacity="0.24331747869492582" transform="rotate(-3.9743966988145942 159.0 818.5)"/>
<rect x="453.0" y="280.0" width="378.0" height="120.0" rx="0" fill="#ad5638" stroke="none" stroke-width="1" opacity="0.32322726746501795" transform="rotate(3.1426427316531624 642.0 340.0)"/>
<rect x="561.0" y="1157.0" width="453.0" height="243.0" rx="0" fill="#777269" stroke="none" stroke-width="1" opacity="0.3868518206090362" transform="rotate(3.481563220792224 787.5 1278.5)"/>
<rect x="195.0" y="747.0" width="416.0" height="306.0" rx="0" fill="#777269" stroke="none" stroke-width="1" opacity="0.1814137574263863" transform="rotate(-2.481657643469648 403.0 900.0)"/>
<rect x="639.0" y="364.0" width="130.0" height="331.0" rx="0" fill="#24211d" stroke="none" stroke-width="1" opacity="0.33058742169018696" transform="rotate(4.068233807823742 704.0 529.5)"/>
<rect x="218.0" y="347.0" width="155.0" height="186.0" rx="0" fill="#9b762f" stroke="none" stroke-width="1" opacity="0.19615699535150719" transform="rotate(-3.8478603324717406 295.5 440.0)"/>
<rect x="592.0" y="780.0" width="221.0" height="273.0" rx="0" fill="#ad5638" stroke="none" stroke-width="1" opacity="0.364901449012088" transform="rotate(-2.5535934785164867 702.5 916.5)"/>
<rect x="539.0" y="696.0" width="297.0" height="85.0" rx="0" fill="#d7cbb4" stroke="none" stroke-width="1" opacity="0.2349036740219811" transform="rotate(-3.8954889637943317 687.5 738.5)"/>
<rect x="-76.0" y="1397.0" width="291.0" height="217.0" rx="0" fill="#2f6f72" stroke="none" stroke-width="1" opacity="0.31756528790161487" transform="rotate(-4.37351701398766 69.5 1505.5)"/>
<rect x="418.0" y="1289.0" width="194.0" height="255.0" rx="0" fill="#ad5638" stroke="none" stroke-width="1" opacity="0.28623400788888725" transform="rotate(0.13911929283713942 515.0 1416.5)"/>
<rect x="414.0" y="1400.0" width="251.0" height="156.0" rx="0" fill="#2f6f72" stroke="none" stroke-width="1" opacity="0.16877407718730417" transform="rotate(-2.077136539395726 539.5 1478.0)"/>
<rect x="125.0" y="819.0" width="306.0" height="138.0" rx="0" fill="#24211d" stroke="none" stroke-width="1" opacity="0.2977175650966506" transform="rotate(-2.219900016176512 278.0 888.0)"/>
<rect x="692.0" y="812.0" width="449.0" height="187.0" rx="0" fill="#9b762f" stroke="none" stroke-width="1" opacity="0.19026671220610006" transform="rotate(4.219908863315459 916.5 905.5)"/>
<rect x="54.0" y="1097.0" width="489.0" height="276.0" rx="0" fill="#24211d" stroke="none" stroke-width="1" opacity="0.393744324595274" transform="rotate(-1.432836008910832 298.5 1235.0)"/>
<rect x="-6.0" y="1276.0" width="365.0" height="75.0" rx="0" fill="#24211d" stroke="none" stroke-width="1" opacity="0.29633958360871343" transform="rotate(-0.027820863612263658 176.5 1313.5)"/>
<rect x="-80.0" y="73.0" width="286.0" height="135.0" rx="0" fill="#2f6f72" stroke="none" stroke-width="1" opacity="0.3279337825196491" transform="rotate(-2.715981215057186 63.0 140.5)"/>
<rect x="469.0" y="1378.0" width="181.0" height="101.0" rx="0" fill="#ad5638" stroke="none" stroke-width="1" opacity="0.26893803497391033" transform="rotate(-1.9236697919304158 559.5 1428.5)"/>
<rect x="733.0" y="10.0" width="291.0" height="244.0" rx="0" fill="#2f6f72" stroke="none" stroke-width="1" opacity="0.230935653025305" transform="rotate(3.819633949431524 878.5 132.0)"/>
<rect x="275.0" y="480.0" width="241.0" height="317.0" rx="0" fill="#777269" stroke="none" stroke-width="1" opacity="0.32456491704138357" transform="rotate(-1.8144086355732534 395.5 638.5)"/>
<rect x="-30.0" y="1056.0" width="291.0" height="138.0" rx="0" fill="#2f6f72" stroke="none" stroke-width="1" opacity="0.3583814548742249" transform="rotate(-2.751352553566959 115.5 1125.0)"/>
<rect x="556.0" y="251.0" width="459.0" height="246.0" rx="0" fill="#d7cbb4" stroke="none" stroke-width="1" opacity="0.2405276189919629" transform="rotate(0.963032507007032 785.5 374.0)"/>
<line x1="64.0" y1="42.0" x2="64.0" y2="1494.0" stroke="#9b8c73" stroke-width="1" opacity="0.11"/>
<line x1="154.0" y1="42.0" x2="154.0" y2="1494.0" stroke="#9b8c73" stroke-width="1" opacity="0.11"/>
<line x1="244.0" y1="42.0" x2="244.0" y2="1494.0" stroke="#9b8c73" stroke-width="1" opacity="0.11"/>
<line x1="334.0" y1="42.0" x2="334.0" y2="1494.0" stroke="#9b8c73" stroke-width="1" opacity="0.11"/>
<line x1="424.0" y1="42.0" x2="424.0" y2="1494.0" stroke="#9b8c73" stroke-width="1" opacity="0.11"/>
<line x1="514.0" y1="42.0" x2="514.0" y2="1494.0" stroke="#9b8c73" stroke-width="1" opacity="0.11"/>
<line x1="604.0" y1="42.0" x2="604.0" y2="1494.0" stroke="#9b8c73" stroke-width="1" opacity="0.11"/>
<line x1="694.0" y1="42.0" x2="694.0" y2="1494.0" stroke="#9b8c73" stroke-width="1" opacity="0.11"/>
<line x1="784.0" y1="42.0" x2="784.0" y2="1494.0" stroke="#9b8c73" stroke-width="1" opacity="0.11"/>
<line x1="874.0" y1="42.0" x2="874.0" y2="1494.0" stroke="#9b8c73" stroke-width="1" opacity="0.11"/>
<line x1="964.0" y1="42.0" x2="964.0" y2="1494.0" stroke="#9b8c73" stroke-width="1" opacity="0.11"/>
<line x1="42.0" y1="70.0" x2="982.0" y2="70.0" stroke="#9b8c73" stroke-width="1" opacity="0.095"/>
<line x1="42.0" y1="174.0" x2="982.0" y2="174.0" stroke="#9b8c73" stroke-width="1" opacity="0.095"/>
<line x1="42.0" y1="278.0" x2="982.0" y2="278.0" stroke="#9b8c73" stroke-width="1" opacity="0.095"/>
<line x1="42.0" y1="382.0" x2="982.0" y2="382.0" stroke="#9b8c73" stroke-width="1" opacity="0.095"/>
<line x1="42.0" y1="486.0" x2="982.0" y2="486.0" stroke="#9b8c73" stroke-width="1" opacity="0.095"/>
<line x1="42.0" y1="590.0" x2="982.0" y2="590.0" stroke="#9b8c73" stroke-width="1" opacity="0.095"/>
<line x1="42.0" y1="694.0" x2="982.0" y2="694.0" stroke="#9b8c73" stroke-width="1" opacity="0.095"/>
<line x1="42.0" y1="798.0" x2="982.0" y2="798.0" stroke="#9b8c73" stroke-width="1" opacity="0.095"/>
<line x1="42.0" y1="902.0" x2="982.0" y2="902.0" stroke="#9b8c73" stroke-width="1" opacity="0.095"/>
<line x1="42.0" y1="1006.0" x2="982.0" y2="1006.0" stroke="#9b8c73" stroke-width="1" opacity="0.095"/>
<line x1="42.0" y1="1110.0" x2="982.0" y2="1110.0" stroke="#9b8c73" stroke-width="1" opacity="0.095"/>
<line x1="42.0" y1="1214.0" x2="982.0" y2="1214.0" stroke="#9b8c73" stroke-width="1" opacity="0.095"/>
<line x1="42.0" y1="1318.0" x2="982.0" y2="1318.0" stroke="#9b8c73" stroke-width="1" opacity="0.095"/>
<line x1="42.0" y1="1422.0" x2="982.0" y2="1422.0" stroke="#9b8c73" stroke-width="1" opacity="0.095"/>
<line x1="42.0" y1="1526.0" x2="982.0" y2="1526.0" stroke="#9b8c73" stroke-width="1" opacity="0.095"/>
<circle cx="694.0" cy="455.0" r="1.1" fill="#1d1a16" stroke="none" stroke-width="2" opacity="0.08298783471107671"/>
<circle cx="219.0" cy="1402.0" r="4.5" fill="#1d1a16" stroke="none" stroke-width="2" opacity="0.1045242862092268"/>
<circle cx="1006.0" cy="957.0" r="2.3" fill="#1d1a16" stroke="none" stroke-width="2" opacity="0.08880067418611329"/>
<circle cx="951.0" cy="592.0" r="2.3" fill="#1d1a16" stroke="none" stroke-width="2" opacity="0.07658548605992582"/>
<circle cx="354.0" cy="1106.0" r="3.8" fill="#1d1a16" stroke="none" stroke-width="2" opacity="0.03802791877257379"/>
<circle cx="23.0" cy="144.0" r="2.8" fill="#1d1a16" stroke="none" stroke-width="2" opacity="0.07217290283249475"/>
<circle cx="792.0" cy="914.0" r="2.4" fill="#1d1a16" stroke="none" stroke-width="2" opacity="0.10499729868481197"/>
<circle cx="682.0" cy="867.0" r="4.4" fill="#1d1a16" stroke="none" stroke-width="2" opacity="0.09187556015181728"/>
<circle cx="206.0" cy="1191.0" r="2.1" fill="#1d1a16" stroke="none" stroke-width="2" opacity="0.03918605624812382"/>
<circle cx="628.0" cy="1424.0" r="4.9" fill="#1d1a16" stroke="none" stroke-width="2" opacity="0.0827887167008097"/>
<circle cx="862.0" cy="1518.0" r="3.3" fill="#1d1a16" stroke="none" stroke-width="2" opacity="0.09810728891380169"/>
<circle cx="681.0" cy="1014.0" r="4.5" fill="#1d1a16" stroke="none" stroke-width="2" opacity="0.09140991050441327"/>
<circle cx="55.0" cy="1138.0" r="4.8" fill="#1d1a16" stroke="none" stroke-width="2" opacity="0.10186314287115004"/>
<circle cx="312.0" cy="255.0" r="2.8" fill="#1d1a16" stroke="none" stroke-width="2" opacity="0.0924019826757316"/>
<circle cx="893.0" cy="869.0" r="3.9" fill="#1d1a16" stroke="none" stroke-width="2" opacity="0.06908548572191472"/>
<circle cx="577.0" cy="341.0" r="3.9" fill="#1d1a16" stroke="none" stroke-width="2" opacity="0.08134788387820463"/>
<circle cx="114.0" cy="152.0" r="4.7" fill="#1d1a16" stroke="none" stroke-width="2" opacity="0.10441922164632407"/>
<circle cx="654.0" cy="257.0" r="1.5" fill="#1d1a16" stroke="none" stroke-width="2" opacity="0.10023676361239053"/>
<circle cx="723.0" cy="260.0" r="4.2" fill="#1d1a16" stroke="none" stroke-width="2" opacity="0.060109102185944036"/>
<circle cx="433.0" cy="194.0" r="3.6" fill="#1d1a16" stroke="none" stroke-width="2" opacity="0.04015212161397629"/>
<circle cx="560.0" cy="625.0" r="5.0" fill="#1d1a16" stroke="none" stroke-width="2" opacity="0.08477946979416881"/>
<circle cx="979.0" cy="659.0" r="3.0" fill="#1d1a16" stroke="none" stroke-width="2" opacity="0.04339344621996617"/>
<circle cx="422.0" cy="228.0" r="4.1" fill="#1d1a16" stroke="none" stroke-width="2" opacity="0.10083298332403312"/>
<circle cx="349.0" cy="628.0" r="1.6" fill="#1d1a16" stroke="none" stroke-width="2" opacity="0.05706668577818563"/>
<circle cx="235.0" cy="164.0" r="4.9" fill="#1d1a16" stroke="none" stroke-width="2" opacity="0.061672314213807956"/>
<circle cx="595.0" cy="963.0" r="2.7" fill="#1d1a16" stroke="none" stroke-width="2" opacity="0.06855929436367704"/>
<circle cx="82.0" cy="596.0" r="3.9" fill="#1d1a16" stroke="none" stroke-width="2" opacity="0.056632481686795785"/>
<circle cx="953.0" cy="1094.0" r="3.9" fill="#1d1a16" stroke="none" stroke-width="2" opacity="0.08795718425991284"/>
<circle cx="128.0" cy="409.0" r="1.4" fill="#1d1a16" stroke="none" stroke-width="2" opacity="0.050485318392397054"/>
<circle cx="55.0" cy="733.0" r="3.4" fill="#1d1a16" stroke="none" stroke-width="2" opacity="0.09309511285606455"/>
<circle cx="366.0" cy="700.0" r="1.9" fill="#1d1a16" stroke="none" stroke-width="2" opacity="0.08211891369726289"/>
<circle cx="199.0" cy="509.0" r="1.9" fill="#1d1a16" stroke="none" stroke-width="2" opacity="0.03579752367617698"/>
<circle cx="945.0" cy="669.0" r="4.2" fill="#1d1a16" stroke="none" stroke-width="2" opacity="0.07782455912390462"/>
<circle cx="211.0" cy="195.0" r="3.8" fill="#1d1a16" stroke="none" stroke-width="2" opacity="0.049500418245421694"/>
<circle cx="563.0" cy="972.0" r="3.6" fill="#1d1a16" stroke="none" stroke-width="2" opacity="0.030456317457736304"/>
<circle cx="534.0" cy="234.0" r="1.8" fill="#1d1a16" stroke="none" stroke-width="2" opacity="0.05352391404068574"/>
<circle cx="421.0" cy="42.0" r="3.6" fill="#1d1a16" stroke="none" stroke-width="2" opacity="0.06104245345782648"/>
<circle cx="525.0" cy="928.0" r="3.1" fill="#1d1a16" stroke="none" stroke-width="2" opacity="0.05366970876221461"/>
<circle cx="481.0" cy="239.0" r="2.5" fill="#1d1a16" stroke="none" stroke-width="2" opacity="0.04556519984419933"/>
<circle cx="230.0" cy="1029.0" r="4.0" fill="#1d1a16" stroke="none" stroke-width="2" opacity="0.031598891745092575"/>
<circle cx="72.0" cy="1114.0" r="3.3" fill="#1d1a16" stroke="none" stroke-width="2" opacity="0.047911650431981576"/>
<circle cx="186.0" cy="836.0" r="3.3" fill="#1d1a16" stroke="none" stroke-width="2" opacity="0.0994223006162208"/>
<circle cx="878.0" cy="701.0" r="4.6" fill="#1d1a16" stroke="none" stroke-width="2" opacity="0.04026186469734309"/>
<circle cx="349.0" cy="1457.0" r="3.1" fill="#1d1a16" stroke="none" stroke-width="2" opacity="0.08521049985353493"/>
<circle cx="990.0" cy="1034.0" r="3.4" fill="#1d1a16" stroke="none" stroke-width="2" opacity="0.10318897737602752"/>
<circle cx="360.0" cy="516.0" r="5.0" fill="#1d1a16" stroke="none" stroke-width="2" opacity="0.03633835448255718"/>
<circle cx="586.0" cy="342.0" r="2.5" fill="#1d1a16" stroke="none" stroke-width="2" opacity="0.05151027482871587"/>
<circle cx="665.0" cy="988.0" r="1.1" fill="#1d1a16" stroke="none" stroke-width="2" opacity="0.07744609223251941"/>
<circle cx="102.0" cy="558.0" r="3.9" fill="#1d1a16" stroke="none" stroke-width="2" opacity="0.0450735741193727"/>
<circle cx="489.0" cy="244.0" r="4.7" fill="#1d1a16" stroke="none" stroke-width="2" opacity="0.04496216362450159"/>
<circle cx="937.0" cy="1116.0" r="4.2" fill="#1d1a16" stroke="none" stroke-width="2" opacity="0.07883929856696242"/>
<circle cx="606.0" cy="1071.0" r="1.9" fill="#1d1a16" stroke="none" stroke-width="2" opacity="0.09442273946691347"/>
<circle cx="509.0" cy="1185.0" r="5.0" fill="#1d1a16" stroke="none" stroke-width="2" opacity="0.06426280014596272"/>
<circle cx="521.0" cy="487.0" r="4.1" fill="#1d1a16" stroke="none" stroke-width="2" opacity="0.03718504293840848"/>
<circle cx="484.0" cy="1040.0" r="2.8" fill="#1d1a16" stroke="none" stroke-width="2" opacity="0.08472185293355461"/>
<circle cx="387.0" cy="281.0" r="5.1" fill="#1d1a16" stroke="none" stroke-width="2" opacity="0.07268907072347575"/>
<circle cx="865.0" cy="774.0" r="2.5" fill="#1d1a16" stroke="none" stroke-width="2" opacity="0.04472705315750748"/>
<circle cx="709.0" cy="1142.0" r="3.8" fill="#1d1a16" stroke="none" stroke-width="2" opacity="0.06371705354530229"/>
<circle cx="795.0" cy="1215.0" r="1.5" fill="#1d1a16" stroke="none" stroke-width="2" opacity="0.048565967633464976"/>
<circle cx="640.0" cy="934.0" r="2.2" fill="#1d1a16" stroke="none" stroke-width="2" opacity="0.08492036478291426"/>
<circle cx="667.0" cy="935.0" r="4.6" fill="#1d1a16" stroke="none" stroke-width="2" opacity="0.06856349043953551"/>
<circle cx="839.0" cy="1513.0" r="2.9" fill="#1d1a16" stroke="none" stroke-width="2" opacity="0.0550323141484263"/>
<circle cx="21.0" cy="618.0" r="2.3" fill="#1d1a16" stroke="none" stroke-width="2" opacity="0.09198500841583047"/>
<circle cx="173.0" cy="895.0" r="4.2" fill="#1d1a16" stroke="none" stroke-width="2" opacity="0.09190538274816612"/>
<circle cx="82.0" cy="1425.0" r="1.7" fill="#1d1a16" stroke="none" stroke-width="2" opacity="0.06399616075612044"/>
<circle cx="987.0" cy="604.0" r="3.0" fill="#1d1a16" stroke="none" stroke-width="2" opacity="0.08478832042549944"/>
<circle cx="842.0" cy="1443.0" r="2.9" fill="#1d1a16" stroke="none" stroke-width="2" opacity="0.06993667080538332"/>
<circle cx="996.0" cy="1374.0" r="4.8" fill="#1d1a16" stroke="none" stroke-width="2" opacity="0.052814008631757295"/>
<circle cx="184.0" cy="1432.0" r="2.1" fill="#1d1a16" stroke="none" stroke-width="2" opacity="0.08681439437515477"/>
<circle cx="234.0" cy="928.0" r="4.3" fill="#1d1a16" stroke="none" stroke-width="2" opacity="0.07532130714314379"/>
<circle cx="91.0" cy="828.0" r="1.4" fill="#1d1a16" stroke="none" stroke-width="2" opacity="0.06773652486862963"/>
<circle cx="929.0" cy="917.0" r="2.9" fill="#1d1a16" stroke="none" stroke-width="2" opacity="0.04030538223279385"/>
<circle cx="241.0" cy="177.0" r="2.8" fill="#1d1a16" stroke="none" stroke-width="2" opacity="0.07972565940467827"/>
<circle cx="202.0" cy="1496.0" r="4.6" fill="#1d1a16" stroke="none" stroke-width="2" opacity="0.08144317765982959"/>
<circle cx="434.0" cy="951.0" r="3.1" fill="#1d1a16" stroke="none" stroke-width="2" opacity="0.0433887276535425"/>
<circle cx="39.0" cy="374.0" r="3.8" fill="#1d1a16" stroke="none" stroke-width="2" opacity="0.0683811228407897"/>
<circle cx="370.0" cy="462.0" r="1.8" fill="#1d1a16" stroke="none" stroke-width="2" opacity="0.07556535767633601"/>
<circle cx="225.0" cy="868.0" r="4.6" fill="#1d1a16" stroke="none" stroke-width="2" opacity="0.07861695257231496"/>
<circle cx="453.0" cy="643.0" r="1.1" fill="#1d1a16" stroke="none" stroke-width="2" opacity="0.059592270434981054"/>
<circle cx="679.0" cy="508.0" r="2.5" fill="#1d1a16" stroke="none" stroke-width="2" opacity="0.032353779676760716"/>
<circle cx="693.0" cy="555.0" r="3.8" fill="#1d1a16" stroke="none" stroke-width="2" opacity="0.09988821225272448"/>
<circle cx="986.0" cy="937.0" r="2.4" fill="#1d1a16" stroke="none" stroke-width="2" opacity="0.08388018404708825"/>
<circle cx="341.0" cy="617.0" r="1.5" fill="#1d1a16" stroke="none" stroke-width="2" opacity="0.0638565771860485"/>
<circle cx="131.0" cy="806.0" r="4.5" fill="#1d1a16" stroke="none" stroke-width="2" opacity="0.03222632521746211"/>
<circle cx="381.0" cy="1453.0" r="4.5" fill="#1d1a16" stroke="none" stroke-width="2" opacity="0.038334577614402475"/>
<circle cx="58.0" cy="1074.0" r="1.2" fill="#1d1a16" stroke="none" stroke-width="2" opacity="0.0786744286161263"/>
<circle cx="783.0" cy="737.0" r="3.1" fill="#1d1a16" stroke="none" stroke-width="2" opacity="0.034906278356920784"/>
<circle cx="761.0" cy="1513.0" r="3.8" fill="#1d1a16" stroke="none" stroke-width="2" opacity="0.09110400900731609"/>
<circle cx="917.0" cy="349.0" r="1.6" fill="#1d1a16" stroke="none" stroke-width="2" opacity="0.09326249190493728"/>
<circle cx="399.0" cy="879.0" r="4.6" fill="#1d1a16" stroke="none" stroke-width="2" opacity="0.056997173912258545"/>
<rect x="130.0" y="185.0" width="640.0" height="760.0" rx="0" fill="#d7cbb4" stroke="#9b8c73" stroke-width="1.3" opacity="0.88" transform="rotate(-1.2 450.0 565.0)"/>
<line x1="164.0" y1="237.0" x2="736.0" y2="237.0" stroke="#9b8c73" stroke-width="1.1" opacity="0.56"/>
<line x1="164.0" y1="330.7" x2="736.0" y2="330.7" stroke="#9b8c73" stroke-width="1.1" opacity="0.56"/>
<line x1="164.0" y1="424.4" x2="736.0" y2="424.4" stroke="#9b8c73" stroke-width="1.1" opacity="0.56"/>
<line x1="164.0" y1="518.1" x2="736.0" y2="518.1" stroke="#9b8c73" stroke-width="1.1" opacity="0.56"/>
<line x1="164.0" y1="611.9" x2="736.0" y2="611.9" stroke="#9b8c73" stroke-width="1.1" opacity="0.56"/>
<line x1="164.0" y1="705.6" x2="736.0" y2="705.6" stroke="#9b8c73" stroke-width="1.1" opacity="0.56"/>
<line x1="164.0" y1="799.3" x2="736.0" y2="799.3" stroke="#9b8c73" stroke-width="1.1" opacity="0.56"/>
<line x1="164.0" y1="893.0" x2="736.0" y2="893.0" stroke="#9b8c73" stroke-width="1.1" opacity="0.56"/>
<line x1="184.0" y1="219.0" x2="184.0" y2="911.0" stroke="#2f6f72" stroke-width="1" opacity="0.28"/>
<line x1="361.3" y1="219.0" x2="361.3" y2="911.0" stroke="#2f6f72" stroke-width="1" opacity="0.28"/>
<line x1="538.7" y1="219.0" x2="538.7" y2="911.0" stroke="#2f6f72" stroke-width="1" opacity="0.28"/>
<rect x="222.0" y="431.0" width="74.0" height="10.0" rx="0" fill="#2f6f72" stroke="none" stroke-width="1" opacity="0.3169922668852416"/>
<rect x="178.0" y="710.0" width="112.0" height="10.0" rx="0" fill="#1d1a16" stroke="none" stroke-width="1" opacity="0.3192240329451552"/>
<rect x="522.0" y="621.0" width="55.0" height="10.0" rx="0" fill="#9b762f" stroke="none" stroke-width="1" opacity="0.1826155678722009"/>
<rect x="297.0" y="241.0" width="107.0" height="10.0" rx="0" fill="#2f6f72" stroke="none" stroke-width="1" opacity="0.2564678143705474"/>
<rect x="621.0" y="757.0" width="57.0" height="10.0" rx="0" fill="#ad5638" stroke="none" stroke-width="1" opacity="0.31647764776380827"/>
<rect x="487.0" y="473.0" width="100.0" height="10.0" rx="0" fill="#1d1a16" stroke="none" stroke-width="1" opacity="0.2712017116371769"/>
<rect x="278.0" y="496.0" width="102.0" height="10.0" rx="0" fill="#ad5638" stroke="none" stroke-width="1" opacity="0.17742747980006915"/>
<circle cx="505.0" cy="675.0" r="210.0" fill="#211a16" stroke="#4a3527" stroke-width="12" opacity="0.86"/>
<circle cx="505.0" cy="675.0" r="150.0" fill="#3a2d24" stroke="#b68d3f" stroke-width="10" opacity="0.82"/>
<circle cx="505.0" cy="675.0" r="72.0" fill="#eee5d3" stroke="#5c4429" stroke-width="5" opacity="0.86"/>
<line x1="617.0" y1="675.0" x2="647.0" y2="675.0" stroke="#b68d3f" stroke-width="4" opacity="0.58"/>
<line x1="607.3" y1="720.6" x2="634.7" y2="732.8" stroke="#b68d3f" stroke-width="4" opacity="0.58"/>
<line x1="579.9" y1="758.2" x2="600.0" y2="780.5" stroke="#b68d3f" stroke-width="4" opacity="0.58"/>
<line x1="539.6" y1="781.5" x2="548.9" y2="810.1" stroke="#b68d3f" stroke-width="4" opacity="0.58"/>
<line x1="493.3" y1="786.4" x2="490.2" y2="816.2" stroke="#b68d3f" stroke-width="4" opacity="0.58"/>
<line x1="449.0" y1="772.0" x2="434.0" y2="798.0" stroke="#b68d3f" stroke-width="4" opacity="0.58"/>
<line x1="414.4" y1="740.8" x2="390.1" y2="758.5" stroke="#b68d3f" stroke-width="4" opacity="0.58"/>
<line x1="395.4" y1="698.3" x2="366.1" y2="704.5" stroke="#b68d3f" stroke-width="4" opacity="0.58"/>
<line x1="395.4" y1="651.7" x2="366.1" y2="645.5" stroke="#b68d3f" stroke-width="4" opacity="0.58"/>
<line x1="414.4" y1="609.2" x2="390.1" y2="591.5" stroke="#b68d3f" stroke-width="4" opacity="0.58"/>
<line x1="449.0" y1="578.0" x2="434.0" y2="552.0" stroke="#b68d3f" stroke-width="4" opacity="0.58"/>
<line x1="493.3" y1="563.6" x2="490.2" y2="533.8" stroke="#b68d3f" stroke-width="4" opacity="0.58"/>
<line x1="539.6" y1="568.5" x2="548.9" y2="539.9" stroke="#b68d3f" stroke-width="4" opacity="0.58"/>
<line x1="579.9" y1="591.8" x2="600.0" y2="569.5" stroke="#b68d3f" stroke-width="4" opacity="0.58"/>
<line x1="607.3" y1="629.4" x2="634.7" y2="617.2" stroke="#b68d3f" stroke-width="4" opacity="0.58"/>
<path d="M392 565 C458 515 548 518 610 570 C660 612 672 700 630 760 C575 840 438 835 386 752 C340 678 346 610 392 565 Z" fill="none" stroke="#d8c06f" stroke-width="4" opacity="0.32"/>
<rect x="180.0" y="1000.0" width="625.0" height="95.0" rx="0" fill="#262624" stroke="none" stroke-width="1" opacity="0.28" transform="rotate(2 492.5 1047.5)"/>
<line x1="205.0" y1="988.0" x2="203.0" y2="1120.0" stroke="#2f6f72" stroke-width="1.4" opacity="0.18"/>
<line x1="247.0" y1="988.0" x2="246.0" y2="1120.0" stroke="#2f6f72" stroke-width="1.4" opacity="0.18"/>
<line x1="289.0" y1="988.0" x2="281.0" y2="1120.0" stroke="#2f6f72" stroke-width="1.4" opacity="0.18"/>
<line x1="331.0" y1="988.0" x2="326.0" y2="1120.0" stroke="#2f6f72" stroke-width="1.4" opacity="0.18"/>
<line x1="373.0" y1="988.0" x2="374.0" y2="1120.0" stroke="#2f6f72" stroke-width="1.4" opacity="0.18"/>
<line x1="415.0" y1="988.0" x2="411.0" y2="1120.0" stroke="#2f6f72" stroke-width="1.4" opacity="0.18"/>
<line x1="457.0" y1="988.0" x2="462.0" y2="1120.0" stroke="#2f6f72" stroke-width="1.4" opacity="0.18"/>
<line x1="499.0" y1="988.0" x2="488.0" y2="1120.0" stroke="#2f6f72" stroke-width="1.4" opacity="0.18"/>
<line x1="541.0" y1="988.0" x2="545.0" y2="1120.0" stroke="#2f6f72" stroke-width="1.4" opacity="0.18"/>
<line x1="583.0" y1="988.0" x2="578.0" y2="1120.0" stroke="#2f6f72" stroke-width="1.4" opacity="0.18"/>
<line x1="625.0" y1="988.0" x2="632.0" y2="1120.0" stroke="#2f6f72" stroke-width="1.4" opacity="0.18"/>
<line x1="667.0" y1="988.0" x2="672.0" y2="1120.0" stroke="#2f6f72" stroke-width="1.4" opacity="0.18"/>
<line x1="709.0" y1="988.0" x2="713.0" y2="1120.0" stroke="#2f6f72" stroke-width="1.4" opacity="0.18"/>
<line x1="751.0" y1="988.0" x2="743.0" y2="1120.0" stroke="#2f6f72" stroke-width="1.4" opacity="0.18"/>
<circle cx="690.0" cy="392.0" r="36.0" fill="#ad5638" stroke="#6b3b2d" stroke-width="3" opacity="0.58"/>
<path d="M670 358 C710 390 690 438 733 470" fill="none" stroke="#ad5638" stroke-width="2" opacity="0.26"/>
<path d="M676 358 C714 390 687 438 729 470" fill="none" stroke="#ad5638" stroke-width="2" opacity="0.26"/>
<path d="M682 358 C718 390 684 438 725 470" fill="none" stroke="#ad5638" stroke-width="2" opacity="0.26"/>
<path d="M688 358 C722 390 681 438 721 470" fill="none" stroke="#ad5638" stroke-width="2" opacity="0.26"/>
<path d="M694 358 C726 390 678 438 717 470" fill="none" stroke="#ad5638" stroke-width="2" opacity="0.26"/>
<path d="M700 358 C730 390 675 438 713 470" fill="none" stroke="#ad5638" stroke-width="2" opacity="0.26"/>
<path d="M706 358 C734 390 672 438 709 470" fill="none" stroke="#ad5638" stroke-width="2" opacity="0.26"/>
<path d="M712 358 C738 390 669 438 705 470" fill="none" stroke="#ad5638" stroke-width="2" opacity="0.26"/>
<path d="M718 358 C742 390 666 438 701 470" fill="none" stroke="#ad5638" stroke-width="2" opacity="0.26"/>
<path d="M724 358 C746 390 663 438 697 470" fill="none" stroke="#ad5638" stroke-width="2" opacity="0.26"/>
  </g>
  <rect x="0" y="0" width="1024" height="1536" filter="url(#grain)" opacity="0.27"/>
</svg>
