<svg xmlns="http://www.w3.org/2000/svg" viewBox="0 0 1024 1536" width="1024" height="1536">
  <defs>
    <filter id="grain" x="-10%" y="-10%" width="120%" height="120%">
      <feTurbulence type="fractalNoise" baseFrequency="0.86" numOctaves="3" seed="115"/>
      <feColorMatrix type="saturate" values="0"/>
      <feComponentTransfer>
        <feFuncA type="table" tableValues="0 0.17"/>
      </feComponentTransfer>
    </filter>
  </defs>
  <g>
    <rect x="0.0" y="0.0" width="1024.0" height="1536.0" rx="0" fill="#e7e7df" stroke="none" stroke-width="1" opacity="1.0"/>
<rect x="26.0" y="26.0" width="972.0" height="1484.0" rx="0" fill="none" stroke="#9b8c73" stroke-width="1.2" opacity="0.54"/>
<rect x="712.0" y="642.0" width="453.0" height="306.0" rx="0" fill="#25211d" stroke="none" stroke-width="1" opacity="0.2671469438063182" transform="rotate(1.9679825780081375 938.5 795.0)"/>
<rect x="57.0" y="971.0" width="367.0" height="86.0" rx="0" fill="#777269" stroke="none" stroke-width="1" opacity="0.3050014372051194" transform="rotate(-1.2678133512145844 240.5 1014.0)"/>
<rect x="247.0" y="404.0" width="243.0" height="204.0" rx="0" fill="#25211d" stroke="none" stroke-width="1" opacity="0.3492510788352286" transform="rotate(1.2845781422734328 368.5 506.0)"/>
<rect x="68.0" y="19.0" width="477.0" height="316.0" rx="0" fill="#2f6f72" stroke="none" stroke-width="1" opacity="0.33069008639111785" transform="rotate(3.4452584795079098 306.5 177.0)"/>
<rect x="705.0" y="475.0" width="164.0" height="202.0" rx="0" fill="#d7cbb4" stroke="none" stroke-width="1" opacity="0.3245439729240157" transform="rotate(-0.9456803365073463 787.0 576.0)"/>
<rect x="847.0" y="855.0" width="295.0" height="118.0" rx="0" fill="#ad5638" stroke="none" stroke-width="1" opacity="0.11306200200764786" transform="rotate(-3.13368143492523 994.5 914.0)"/>
<rect x="-7.0" y="387.0" width="366.0" height="284.0" rx="0" fill="#9b762f" stroke="none" stroke-width="1" opacity="0.13172981176362303" transform="rotate(3.434893785296527 176.0 529.0)"/>
<rect x="432.0" y="912.0" width="388.0" height="238.0" rx="0" fill="#bcc9ce" stroke="none" stroke-width="1" opacity="0.24247301803462262" transform="rotate(-0.023334537932679922 626.0 1031.0)"/>
<rect x="731.0" y="1199.0" width="418.0" height="283.0" rx="0" fill="#bcc9ce" stroke="none" stroke-width="1" opacity="0.332921584014238" transform="rotate(-1.5079795780620264 940.0 1340.5)"/>
<rect x="750.0" y="669.0" width="465.0" height="122.0" rx="0" fill="#9b762f" stroke="none" stroke-width="1" opacity="0.30993334654831534" transform="rotate(1.2811320129125283 982.5 730.0)"/>
<rect x="878.0" y="971.0" width="288.0" height="257.0" rx="0" fill="#2f6f72" stroke="none" stroke-width="1" opacity="0.11379607976798463" transform="rotate(-3.8128157139254237 1022.0 1099.5)"/>
<rect x="-3.0" y="328.0" width="438.0" height="343.0" rx="0" fill="#9b762f" stroke="none" stroke-width="1" opacity="0.340889475972003" transform="rotate(3.7853856444206198 216.0 499.5)"/>
<rect x="326.0" y="293.0" width="502.0" height="96.0" rx="0" fill="#ad5638" stroke="none" stroke-width="1" opacity="0.11096232959511733" transform="rotate(0.5940895590358952 577.0 341.0)"/>
<rect x="205.0" y="626.0" width="528.0" height="180.0" rx="0" fill="#777269" stroke="none" stroke-width="1" opacity="0.18638812833329743" transform="rotate(-1.3358127812536167 469.0 716.0)"/>
<rect x="137.0" y="108.0" width="195.0" height="292.0" rx="0" fill="#bcc9ce" stroke="none" stroke-width="1" opacity="0.21591578491692653" transform="rotate(1.3483229283594973 234.5 254.0)"/>
<rect x="77.0" y="214.0" width="196.0" height="127.0" rx="0" fill="#d7cbb4" stroke="none" stroke-width="1" opacity="0.3484874069329973" transform="rotate(1.047614418146865 175.0 277.5)"/>
<rect x="227.0" y="882.0" width="261.0" height="155.0" rx="0" fill="#d7cbb4" stroke="none" stroke-width="1" opacity="0.17068554224813143" transform="rotate(-3.064603350352622 357.5 959.5)"/>
<rect x="498.0" y="1393.0" width="123.0" height="283.0" rx="0" fill="#bcc9ce" stroke="none" stroke-width="1" opacity="0.26464666746083576" transform="rotate(-1.6151056657149132 559.5 1534.5)"/>
<rect x="353.0" y="722.0" width="466.0" height="230.0" rx="0" fill="#ad5638" stroke="none" stroke-width="1" opacity="0.27547648254075907" transform="rotate(-0.22632479171584308 586.0 837.0)"/>
<rect x="569.0" y="1386.0" width="422.0" height="213.0" rx="0" fill="#2f6f72" stroke="none" stroke-width="1" opacity="0.3085032229840941" transform="rotate(-3.4700547216150808 780.0 1492.5)"/>
<rect x="41.0" y="459.0" width="372.0" height="288.0" rx="0" fill="#ad5638" stroke="none" stroke-width="1" opacity="0.11406469938181897" transform="rotate(2.002264636408402 227.0 603.0)"/>
<rect x="545.0" y="43.0" width="419.0" height="81.0" rx="0" fill="#7f8aa5" stroke="none" stroke-width="1" opacity="0.15885197618288827" transform="rotate(-4.546509703743856 754.5 83.5)"/>
<rect x="180.0" y="808.0" width="423.0" height="128.0" rx="0" fill="#9b762f" stroke="none" stroke-width="1" opacity="0.326375311703844" transform="rotate(-3.4555325547840847 391.5 872.0)"/>
<rect x="581.0" y="463.0" width="314.0" height="149.0" rx="0" fill="#ad5638" stroke="none" stroke-width="1" opacity="0.2618800768415734" transform="rotate(-1.1339014631689817 738.0 537.5)"/>
<rect x="96.0" y="1027.0" width="146.0" height="130.0" rx="0" fill="#bcc9ce" stroke="none" stroke-width="1" opacity="0.21422642335336511" transform="rotate(-0.43257781254993244 169.0 1092.0)"/>
<line x1="58.0" y1="40.0" x2="58.0" y2="1496.0" stroke="#9b8c73" stroke-width="1" opacity="0.1"/>
<line x1="150.0" y1="40.0" x2="150.0" y2="1496.0" stroke="#9b8c73" stroke-width="1" opacity="0.1"/>
<line x1="242.0" y1="40.0" x2="242.0" y2="1496.0" stroke="#9b8c73" stroke-width="1" opacity="0.1"/>
<line x1="334.0" y1="40.0" x2="334.0" y2="1496.0" stroke="#9b8c73" stroke-width="1" opacity="0.1"/>
<line x1="426.0" y1="40.0" x2="426.0" y2="1496.0" stroke="#9b8c73" stroke-width="1" opacity="0.1"/>
<line x1="518.0" y1="40.0" x2="518.0" y2="1496.0" stroke="#9b8c73" stroke-width="1" opacity="0.1"/>
<line x1="610.0" y1="40.0" x2="610.0" y2="1496.0" stroke="#9b8c73" stroke-width="1" opacity="0.1"/>
<line x1="702.0" y1="40.0" x2="702.0" y2="1496.0" stroke="#9b8c73" stroke-width="1" opacity="0.1"/>
<line x1="794.0" y1="40.0" x2="794.0" y2="1496.0" stroke="#9b8c73" stroke-width="1" opacity="0.1"/>
<line x1="886.0" y1="40.0" x2="886.0" y2="1496.0" stroke="#9b8c73" stroke-width="1" opacity="0.1"/>
<line x1="978.0" y1="40.0" x2="978.0" y2="1496.0" stroke="#9b8c73" stroke-width="1" opacity="0.1"/>
<line x1="42.0" y1="72.0" x2="982.0" y2="72.0" stroke="#9b8c73" stroke-width="1" opacity="0.09"/>
<line x1="42.0" y1="184.0" x2="982.0" y2="184.0" stroke="#9b8c73" stroke-width="1" opacity="0.09"/>
<line x1="42.0" y1="296.0" x2="982.0" y2="296.0" stroke="#9b8c73" stroke-width="1" opacity="0.09"/>
<line x1="42.0" y1="408.0" x2="982.0" y2="408.0" stroke="#9b8c73" stroke-width="1" opacity="0.09"/>
<line x1="42.0" y1="520.0" x2="982.0" y2="520.0" stroke="#9b8c73" stroke-width="1" opacity="0.09"/>
<line x1="42.0" y1="632.0" x2="982.0" y2="632.0" stroke="#9b8c73" stroke-width="1" opacity="0.09"/>
<line x1="42.0" y1="744.0" x2="982.0" y2="744.0" stroke="#9b8c73" stroke-width="1" opacity="0.09"/>
<line x1="42.0" y1="856.0" x2="982.0" y2="856.0" stroke="#9b8c73" stroke-width="1" opacity="0.09"/>
<line x1="42.0" y1="968.0" x2="982.0" y2="968.0" stroke="#9b8c73" stroke-width="1" opacity="0.09"/>
<line x1="42.0" y1="1080.0" x2="982.0" y2="1080.0" stroke="#9b8c73" stroke-width="1" opacity="0.09"/>
<line x1="42.0" y1="1192.0" x2="982.0" y2="1192.0" stroke="#9b8c73" stroke-width="1" opacity="0.09"/>
<line x1="42.0" y1="1304.0" x2="982.0" y2="1304.0" stroke="#9b8c73" stroke-width="1" opacity="0.09"/>
<line x1="42.0" y1="1416.0" x2="982.0" y2="1416.0" stroke="#9b8c73" stroke-width="1" opacity="0.09"/>
<line x1="42.0" y1="1528.0" x2="982.0" y2="1528.0" stroke="#9b8c73" stroke-width="1" opacity="0.09"/>
<circle cx="422.0" cy="30.0" r="1.4" fill="#1d1a16" stroke="none" stroke-width="2" opacity="0.05121645920388325"/>
<circle cx="48.0" cy="1517.0" r="1.9" fill="#1d1a16" stroke="none" stroke-width="2" opacity="0.08549104167192421"/>
<circle cx="326.0" cy="419.0" r="4.7" fill="#1d1a16" stroke="none" stroke-width="2" opacity="0.05188174203701553"/>
<circle cx="257.0" cy="1336.0" r="3.5" fill="#1d1a16" stroke="none" stroke-width="2" opacity="0.0531825945458871"/>
<circle cx="527.0" cy="735.0" r="2.0" fill="#1d1a16" stroke="none" stroke-width="2" opacity="0.043942705026359954"/>
<circle cx="755.0" cy="964.0" r="4.6" fill="#1d1a16" stroke="none" stroke-width="2" opacity="0.05279978315792758"/>
<circle cx="192.0" cy="618.0" r="4.0" fill="#1d1a16" stroke="none" stroke-width="2" opacity="0.04839748158153022"/>
<circle cx="319.0" cy="806.0" r="2.5" fill="#1d1a16" stroke="none" stroke-width="2" opacity="0.055874217660984146"/>
<circle cx="108.0" cy="461.0" r="4.9" fill="#1d1a16" stroke="none" stroke-width="2" opacity="0.04771110110888812"/>
<circle cx="546.0" cy="1163.0" r="1.1" fill="#1d1a16" stroke="none" stroke-width="2" opacity="0.09288098228489891"/>
<circle cx="831.0" cy="994.0" r="2.0" fill="#1d1a16" stroke="none" stroke-width="2" opacity="0.07340984500771439"/>
<circle cx="579.0" cy="1409.0" r="3.2" fill="#1d1a16" stroke="none" stroke-width="2" opacity="0.02971179080034439"/>
<circle cx="157.0" cy="1217.0" r="1.2" fill="#1d1a16" stroke="none" stroke-width="2" opacity="0.03713826555667305"/>
<circle cx="432.0" cy="1397.0" r="4.5" fill="#1d1a16" stroke="none" stroke-width="2" opacity="0.045064368901037516"/>
<circle cx="667.0" cy="451.0" r="1.8" fill="#1d1a16" stroke="none" stroke-width="2" opacity="0.07452691605049283"/>
<circle cx="461.0" cy="1111.0" r="4.5" fill="#1d1a16" stroke="none" stroke-width="2" opacity="0.07341690834759126"/>
<circle cx="39.0" cy="622.0" r="2.1" fill="#1d1a16" stroke="none" stroke-width="2" opacity="0.0862915085585299"/>
<circle cx="261.0" cy="833.0" r="3.6" fill="#1d1a16" stroke="none" stroke-width="2" opacity="0.08183025971895957"/>
<circle cx="345.0" cy="1143.0" r="2.4" fill="#1d1a16" stroke="none" stroke-width="2" opacity="0.07958226880257444"/>
<circle cx="560.0" cy="243.0" r="2.8" fill="#1d1a16" stroke="none" stroke-width="2" opacity="0.07679146757359874"/>
<circle cx="241.0" cy="132.0" r="4.6" fill="#1d1a16" stroke="none" stroke-width="2" opacity="0.057426251772079405"/>
<circle cx="350.0" cy="1061.0" r="2.9" fill="#1d1a16" stroke="none" stroke-width="2" opacity="0.04413960770418086"/>
<circle cx="323.0" cy="934.0" r="2.1" fill="#1d1a16" stroke="none" stroke-width="2" opacity="0.07818526502915071"/>
<circle cx="334.0" cy="169.0" r="1.9" fill="#1d1a16" stroke="none" stroke-width="2" opacity="0.0862755095851077"/>
<circle cx="473.0" cy="1191.0" r="4.5" fill="#1d1a16" stroke="none" stroke-width="2" opacity="0.08275501974855269"/>
<circle cx="751.0" cy="207.0" r="1.6" fill="#1d1a16" stroke="none" stroke-width="2" opacity="0.0605271784134412"/>
<circle cx="856.0" cy="427.0" r="3.0" fill="#1d1a16" stroke="none" stroke-width="2" opacity="0.07216295856202824"/>
<circle cx="80.0" cy="374.0" r="1.8" fill="#1d1a16" stroke="none" stroke-width="2" opacity="0.07443894367527765"/>
<circle cx="689.0" cy="1204.0" r="4.2" fill="#1d1a16" stroke="none" stroke-width="2" opacity="0.07690865441365077"/>
<circle cx="329.0" cy="1259.0" r="2.9" fill="#1d1a16" stroke="none" stroke-width="2" opacity="0.0480098967823922"/>
<circle cx="838.0" cy="976.0" r="4.3" fill="#1d1a16" stroke="none" stroke-width="2" opacity="0.059922890098343916"/>
<circle cx="248.0" cy="895.0" r="2.2" fill="#1d1a16" stroke="none" stroke-width="2" opacity="0.09307917478540387"/>
<circle cx="987.0" cy="808.0" r="1.8" fill="#1d1a16" stroke="none" stroke-width="2" opacity="0.07777561806620618"/>
<circle cx="619.0" cy="467.0" r="1.5" fill="#1d1a16" stroke="none" stroke-width="2" opacity="0.032807605683989126"/>
<circle cx="151.0" cy="1183.0" r="4.4" fill="#1d1a16" stroke="none" stroke-width="2" opacity="0.050427506707217955"/>
<circle cx="134.0" cy="692.0" r="3.6" fill="#1d1a16" stroke="none" stroke-width="2" opacity="0.03470770366939911"/>
<circle cx="788.0" cy="754.0" r="1.5" fill="#1d1a16" stroke="none" stroke-width="2" opacity="0.0924962079810705"/>
<circle cx="207.0" cy="264.0" r="2.9" fill="#1d1a16" stroke="none" stroke-width="2" opacity="0.05320826540885995"/>
<circle cx="881.0" cy="1305.0" r="5.0" fill="#1d1a16" stroke="none" stroke-width="2" opacity="0.0844243200487953"/>
<circle cx="206.0" cy="121.0" r="4.3" fill="#1d1a16" stroke="none" stroke-width="2" opacity="0.08798081212963807"/>
<circle cx="586.0" cy="715.0" r="1.5" fill="#1d1a16" stroke="none" stroke-width="2" opacity="0.039231947094239925"/>
<circle cx="875.0" cy="111.0" r="4.8" fill="#1d1a16" stroke="none" stroke-width="2" opacity="0.07166063586987934"/>
<circle cx="741.0" cy="776.0" r="2.8" fill="#1d1a16" stroke="none" stroke-width="2" opacity="0.07960696060436209"/>
<circle cx="336.0" cy="749.0" r="1.0" fill="#1d1a16" stroke="none" stroke-width="2" opacity="0.06462025682994077"/>
<circle cx="519.0" cy="860.0" r="2.8" fill="#1d1a16" stroke="none" stroke-width="2" opacity="0.03439553971610207"/>
<circle cx="954.0" cy="502.0" r="4.9" fill="#1d1a16" stroke="none" stroke-width="2" opacity="0.07320829764285244"/>
<circle cx="602.0" cy="518.0" r="0.8" fill="#1d1a16" stroke="none" stroke-width="2" opacity="0.030937508520322093"/>
<circle cx="221.0" cy="1411.0" r="3.2" fill="#1d1a16" stroke="none" stroke-width="2" opacity="0.05820159649050479"/>
<circle cx="282.0" cy="1110.0" r="4.8" fill="#1d1a16" stroke="none" stroke-width="2" opacity="0.07220608564850395"/>
<circle cx="821.0" cy="1146.0" r="3.6" fill="#1d1a16" stroke="none" stroke-width="2" opacity="0.060935225912707475"/>
<circle cx="854.0" cy="1081.0" r="1.5" fill="#1d1a16" stroke="none" stroke-width="2" opacity="0.08878191080051823"/>
<circle cx="551.0" cy="852.0" r="1.4" fill="#1d1a16" stroke="none" stroke-width="2" opacity="0.06475218316729461"/>
<circle cx="224.0" cy="317.0" r="4.9" fill="#1d1a16" stroke="none" stroke-width="2" opacity="0.07364112199415707"/>
<circle cx="637.0" cy="1159.0" r="1.2" fill="#1d1a16" stroke="none" stroke-width="2" opacity="0.08578164982441808"/>
<circle cx="355.0" cy="537.0" r="3.7" fill="#1d1a16" stroke="none" stroke-width="2" opacity="0.06479877808733361"/>
<circle cx="886.0" cy="622.0" r="3.9" fill="#1d1a16" stroke="none" stroke-width="2" opacity="0.09482573234265845"/>
<circle cx="996.0" cy="990.0" r="2.9" fill="#1d1a16" stroke="none" stroke-width="2" opacity="0.06734262586614091"/>
<circle cx="724.0" cy="922.0" r="2.0" fill="#1d1a16" stroke="none" stroke-width="2" opacity="0.035791191496798026"/>
<circle cx="950.0" cy="748.0" r="1.5" fill="#1d1a16" stroke="none" stroke-width="2" opacity="0.07523574855655069"/>
<circle cx="41.0" cy="718.0" r="2.2" fill="#1d1a16" stroke="none" stroke-width="2" opacity="0.03904804549763502"/>
<circle cx="85.0" cy="1356.0" r="4.4" fill="#1d1a16" stroke="none" stroke-width="2" opacity="0.06758360026993022"/>
<circle cx="180.0" cy="1077.0" r="0.9" fill="#1d1a16" stroke="none" stroke-width="2" opacity="0.060827746093338"/>
<circle cx="430.0" cy="1065.0" r="3.9" fill="#1d1a16" stroke="none" stroke-width="2" opacity="0.05898108696590682"/>
<circle cx="246.0" cy="1025.0" r="3.3" fill="#1d1a16" stroke="none" stroke-width="2" opacity="0.09480865767990926"/>
<circle cx="412.0" cy="282.0" r="2.0" fill="#1d1a16" stroke="none" stroke-width="2" opacity="0.0896278132552279"/>
<circle cx="385.0" cy="944.0" r="3.6" fill="#1d1a16" stroke="none" stroke-width="2" opacity="0.09491934832719146"/>
<circle cx="825.0" cy="134.0" r="4.7" fill="#1d1a16" stroke="none" stroke-width="2" opacity="0.06743929574806456"/>
<circle cx="313.0" cy="403.0" r="2.8" fill="#1d1a16" stroke="none" stroke-width="2" opacity="0.03913705436125566"/>
<circle cx="177.0" cy="143.0" r="3.8" fill="#1d1a16" stroke="none" stroke-width="2" opacity="0.06080231132311367"/>
<circle cx="727.0" cy="862.0" r="1.3" fill="#1d1a16" stroke="none" stroke-width="2" opacity="0.03712506807141895"/>
<circle cx="614.0" cy="264.0" r="4.2" fill="#1d1a16" stroke="none" stroke-width="2" opacity="0.06453299828999964"/>
<circle cx="820.0" cy="745.0" r="2.9" fill="#1d1a16" stroke="none" stroke-width="2" opacity="0.08860266729012542"/>
<circle cx="585.0" cy="981.0" r="1.1" fill="#1d1a16" stroke="none" stroke-width="2" opacity="0.06426253504342694"/>
<circle cx="530.0" cy="386.0" r="2.8" fill="#1d1a16" stroke="none" stroke-width="2" opacity="0.03165806516788175"/>
<circle cx="157.0" cy="56.0" r="1.0" fill="#1d1a16" stroke="none" stroke-width="2" opacity="0.03482961702550195"/>
<circle cx="978.0" cy="872.0" r="3.4" fill="#1d1a16" stroke="none" stroke-width="2" opacity="0.029234058528101393"/>
<circle cx="416.0" cy="674.0" r="3.0" fill="#1d1a16" stroke="none" stroke-width="2" opacity="0.04403299571346034"/>
<circle cx="100.0" cy="723.0" r="3.0" fill="#1d1a16" stroke="none" stroke-width="2" opacity="0.05164406808855236"/>
<circle cx="406.0" cy="160.0" r="1.7" fill="#1d1a16" stroke="none" stroke-width="2" opacity="0.0894098188306032"/>
<circle cx="713.0" cy="814.0" r="2.4" fill="#1d1a16" stroke="none" stroke-width="2" opacity="0.034857869951436006"/>
<circle cx="650.0" cy="828.0" r="3.5" fill="#1d1a16" stroke="none" stroke-width="2" opacity="0.028291201483547697"/>
<circle cx="290.0" cy="1310.0" r="1.8" fill="#1d1a16" stroke="none" stroke-width="2" opacity="0.037109367572626825"/>
<circle cx="859.0" cy="1362.0" r="1.7" fill="#1d1a16" stroke="none" stroke-width="2" opacity="0.0457183541476502"/>
<circle cx="265.0" cy="853.0" r="4.8" fill="#1d1a16" stroke="none" stroke-width="2" opacity="0.05584341349008849"/>
<circle cx="232.0" cy="37.0" r="0.8" fill="#1d1a16" stroke="none" stroke-width="2" opacity="0.07346510914190467"/>
<circle cx="647.0" cy="293.0" r="2.4" fill="#1d1a16" stroke="none" stroke-width="2" opacity="0.05397666914453681"/>
<circle cx="974.0" cy="182.0" r="3.9" fill="#1d1a16" stroke="none" stroke-width="2" opacity="0.044125672208730454"/>
<circle cx="966.0" cy="722.0" r="1.5" fill="#1d1a16" stroke="none" stroke-width="2" opacity="0.07837051962276292"/>
<circle cx="541.0" cy="648.0" r="3.4" fill="#1d1a16" stroke="none" stroke-width="2" opacity="0.04586209764911084"/>
<circle cx="443.0" cy="1437.0" r="2.6" fill="#1d1a16" stroke="none" stroke-width="2" opacity="0.05211808138604046"/>
<circle cx="235.0" cy="735.0" r="4.0" fill="#1d1a16" stroke="none" stroke-width="2" opacity="0.0416441105196048"/>
<circle cx="522.0" cy="1124.0" r="1.6" fill="#1d1a16" stroke="none" stroke-width="2" opacity="0.07440206238993434"/>
<circle cx="587.0" cy="993.0" r="0.8" fill="#1d1a16" stroke="none" stroke-width="2" opacity="0.05879934581407719"/>
<circle cx="233.0" cy="1220.0" r="2.5" fill="#1d1a16" stroke="none" stroke-width="2" opacity="0.052848154262924045"/>
<circle cx="71.0" cy="553.0" r="3.9" fill="#1d1a16" stroke="none" stroke-width="2" opacity="0.033024468476227135"/>
<circle cx="625.0" cy="502.0" r="3.8" fill="#1d1a16" stroke="none" stroke-width="2" opacity="0.07618241276996736"/>
<circle cx="990.0" cy="785.0" r="4.3" fill="#1d1a16" stroke="none" stroke-width="2" opacity="0.04684189728867097"/>
<circle cx="65.0" cy="631.0" r="3.1" fill="#1d1a16" stroke="none" stroke-width="2" opacity="0.03301524582102813"/>
<circle cx="292.0" cy="821.0" r="2.6" fill="#1d1a16" stroke="none" stroke-width="2" opacity="0.09264583845794339"/>
<circle cx="263.0" cy="101.0" r="4.0" fill="#1d1a16" stroke="none" stroke-width="2" opacity="0.07482282375611403"/>
<circle cx="308.0" cy="908.0" r="1.4" fill="#1d1a16" stroke="none" stroke-width="2" opacity="0.06874686687675662"/>
<circle cx="743.0" cy="91.0" r="4.5" fill="#1d1a16" stroke="none" stroke-width="2" opacity="0.06542381070443778"/>
<circle cx="551.0" cy="1231.0" r="3.4" fill="#1d1a16" stroke="none" stroke-width="2" opacity="0.06810983033225936"/>
<circle cx="594.0" cy="1436.0" r="4.1" fill="#1d1a16" stroke="none" stroke-width="2" opacity="0.03196170190777395"/>
<circle cx="368.0" cy="387.0" r="3.9" fill="#1d1a16" stroke="none" stroke-width="2" opacity="0.07672488936226884"/>
<circle cx="445.0" cy="620.0" r="4.4" fill="#1d1a16" stroke="none" stroke-width="2" opacity="0.06943445799470765"/>
<circle cx="489.0" cy="144.0" r="0.9" fill="#1d1a16" stroke="none" stroke-width="2" opacity="0.08804787780578396"/>
<circle cx="997.0" cy="286.0" r="3.2" fill="#1d1a16" stroke="none" stroke-width="2" opacity="0.08857725570096187"/>
<circle cx="424.0" cy="1462.0" r="2.9" fill="#1d1a16" stroke="none" stroke-width="2" opacity="0.07520620516237045"/>
<circle cx="927.0" cy="119.0" r="0.8" fill="#1d1a16" stroke="none" stroke-width="2" opacity="0.0925599635633039"/>
<circle cx="65.0" cy="1020.0" r="2.7" fill="#1d1a16" stroke="none" stroke-width="2" opacity="0.09300093690712605"/>
<circle cx="391.0" cy="357.0" r="3.5" fill="#1d1a16" stroke="none" stroke-width="2" opacity="0.04883328281816096"/>
<rect x="165.0" y="160.0" width="690.0" height="760.0" rx="0" fill="#d9d8cf" stroke="#9b8c73" stroke-width="1.4" opacity="0.66" transform="rotate(1.2 510.0 540.0)"/>
<circle cx="558.0" cy="560.0" r="3.5" fill="#ad5638" stroke="none" stroke-width="2" opacity="0.28"/>
<circle cx="566.0" cy="571.0" r="3.5" fill="#2f6f72" stroke="none" stroke-width="2" opacity="0.28"/>
<circle cx="568.7" cy="585.0" r="3.5" fill="#ad5638" stroke="none" stroke-width="2" opacity="0.28"/>
<circle cx="564.4" cy="600.5" r="3.5" fill="#2f6f72" stroke="none" stroke-width="2" opacity="0.28"/>
<circle cx="552.5" cy="615.7" r="3.5" fill="#2f6f72" stroke="none" stroke-width="2" opacity="0.28"/>
<circle cx="533.0" cy="628.9" r="3.5" fill="#3a496d" stroke="none" stroke-width="2" opacity="0.28"/>
<circle cx="506.6" cy="638.1" r="3.5" fill="#2f6f72" stroke="none" stroke-width="2" opacity="0.28"/>
<circle cx="475.1" cy="641.6" r="3.5" fill="#2f6f72" stroke="none" stroke-width="2" opacity="0.28"/>
<circle cx="441.1" cy="638.2" r="3.5" fill="#ad5638" stroke="none" stroke-width="2" opacity="0.28"/>
<circle cx="407.4" cy="627.2" r="3.5" fill="#ad5638" stroke="none" stroke-width="2" opacity="0.28"/>
<circle cx="377.4" cy="608.6" r="3.5" fill="#ad5638" stroke="none" stroke-width="2" opacity="0.28"/>
<circle cx="354.4" cy="583.2" r="3.5" fill="#ad5638" stroke="none" stroke-width="2" opacity="0.28"/>
<circle cx="341.4" cy="552.4" r="3.5" fill="#ad5638" stroke="none" stroke-width="2" opacity="0.28"/>
<circle cx="340.6" cy="518.2" r="3.5" fill="#2f6f72" stroke="none" stroke-width="2" opacity="0.28"/>
<circle cx="353.6" cy="483.5" r="3.5" fill="#3a496d" stroke="none" stroke-width="2" opacity="0.28"/>
<circle cx="380.6" cy="450.9" r="3.5" fill="#3a496d" stroke="none" stroke-width="2" opacity="0.28"/>
<circle cx="420.9" cy="423.7" r="3.5" fill="#ad5638" stroke="none" stroke-width="2" opacity="0.28"/>
<circle cx="472.3" cy="404.4" r="3.5" fill="#3a496d" stroke="none" stroke-width="2" opacity="0.28"/>
<circle cx="531.6" cy="395.5" r="3.5" fill="#ad5638" stroke="none" stroke-width="2" opacity="0.28"/>
<circle cx="594.7" cy="398.7" r="3.5" fill="#3a496d" stroke="none" stroke-width="2" opacity="0.28"/>
<circle cx="656.7" cy="414.6" r="3.5" fill="#2f6f72" stroke="none" stroke-width="2" opacity="0.28"/>
<circle cx="712.7" cy="443.1" r="3.5" fill="#3a496d" stroke="none" stroke-width="2" opacity="0.28"/>
<circle cx="757.6" cy="482.9" r="3.5" fill="#2f6f72" stroke="none" stroke-width="2" opacity="0.28"/>
<circle cx="787.0" cy="531.6" r="3.5" fill="#ad5638" stroke="none" stroke-width="2" opacity="0.28"/>
<circle cx="797.6" cy="586.2" r="3.5" fill="#2f6f72" stroke="none" stroke-width="2" opacity="0.28"/>
<circle cx="787.2" cy="642.7" r="3.5" fill="#3a496d" stroke="none" stroke-width="2" opacity="0.28"/>
<circle cx="755.0" cy="696.8" r="3.5" fill="#ad5638" stroke="none" stroke-width="2" opacity="0.28"/>
<circle cx="702.2" cy="744.3" r="3.5" fill="#3a496d" stroke="none" stroke-width="2" opacity="0.28"/>
<circle cx="631.6" cy="781.1" r="3.5" fill="#2f6f72" stroke="none" stroke-width="2" opacity="0.28"/>
<circle cx="547.3" cy="803.6" r="3.5" fill="#3a496d" stroke="none" stroke-width="2" opacity="0.28"/>
<circle cx="455.2" cy="809.2" r="3.5" fill="#3a496d" stroke="none" stroke-width="2" opacity="0.28"/>
<circle cx="361.7" cy="796.6" r="3.5" fill="#ad5638" stroke="none" stroke-width="2" opacity="0.28"/>
<circle cx="273.8" cy="765.6" r="3.5" fill="#3a496d" stroke="none" stroke-width="2" opacity="0.28"/>
<circle cx="198.6" cy="717.6" r="3.5" fill="#2f6f72" stroke="none" stroke-width="2" opacity="0.28"/>
<circle cx="142.4" cy="655.3" r="3.5" fill="#2f6f72" stroke="none" stroke-width="2" opacity="0.28"/>
<circle cx="110.4" cy="582.6" r="3.5" fill="#ad5638" stroke="none" stroke-width="2" opacity="0.28"/>
<circle cx="106.4" cy="504.6" r="3.5" fill="#2f6f72" stroke="none" stroke-width="2" opacity="0.28"/>
<circle cx="132.0" cy="426.7" r="3.5" fill="#ad5638" stroke="none" stroke-width="2" opacity="0.28"/>
<circle cx="186.7" cy="354.8" r="3.5" fill="#2f6f72" stroke="none" stroke-width="2" opacity="0.28"/>
<circle cx="267.8" cy="294.5" r="3.5" fill="#ad5638" stroke="none" stroke-width="2" opacity="0.28"/>
<line x1="510.0" y1="560.0" x2="840.0" y2="560.0" stroke="#2f6f72" stroke-width="1.7" opacity="0.14"/>
<line x1="510.0" y1="560.0" x2="814.9" y2="649.9" stroke="#2f6f72" stroke-width="1.7" opacity="0.14"/>
<line x1="510.0" y1="560.0" x2="743.3" y2="726.2" stroke="#2f6f72" stroke-width="1.7" opacity="0.14"/>
<line x1="510.0" y1="560.0" x2="636.3" y2="777.1" stroke="#2f6f72" stroke-width="1.7" opacity="0.14"/>
<line x1="510.0" y1="560.0" x2="510.0" y2="795.0" stroke="#2f6f72" stroke-width="1.7" opacity="0.14"/>
<line x1="510.0" y1="560.0" x2="383.7" y2="777.1" stroke="#2f6f72" stroke-width="1.7" opacity="0.14"/>
<line x1="510.0" y1="560.0" x2="276.7" y2="726.2" stroke="#2f6f72" stroke-width="1.7" opacity="0.14"/>
<line x1="510.0" y1="560.0" x2="205.1" y2="649.9" stroke="#2f6f72" stroke-width="1.7" opacity="0.14"/>
<line x1="510.0" y1="560.0" x2="180.0" y2="560.0" stroke="#2f6f72" stroke-width="1.7" opacity="0.14"/>
<line x1="510.0" y1="560.0" x2="205.1" y2="470.1" stroke="#2f6f72" stroke-width="1.7" opacity="0.14"/>
<line x1="510.0" y1="560.0" x2="276.7" y2="393.8" stroke="#2f6f72" stroke-width="1.7" opacity="0.14"/>
<line x1="510.0" y1="560.0" x2="383.7" y2="342.9" stroke="#2f6f72" stroke-width="1.7" opacity="0.14"/>
<line x1="510.0" y1="560.0" x2="510.0" y2="325.0" stroke="#2f6f72" stroke-width="1.7" opacity="0.14"/>
<line x1="510.0" y1="560.0" x2="636.3" y2="342.9" stroke="#2f6f72" stroke-width="1.7" opacity="0.14"/>
<line x1="510.0" y1="560.0" x2="743.3" y2="393.8" stroke="#2f6f72" stroke-width="1.7" opacity="0.14"/>
<line x1="510.0" y1="560.0" x2="814.9" y2="470.1" stroke="#2f6f72" stroke-width="1.7" opacity="0.14"/>
<rect x="240.0" y="1030.0" width="560.0" height="130.0" rx="0" fill="#1b2025" stroke="none" stroke-width="1" opacity="0.34" transform="rotate(-1 520.0 1095.0)"/>
  </g>
  <rect x="0" y="0" width="1024" height="1536" filter="url(#grain)" opacity="0.27"/>
</svg>
