<svg xmlns="http://www.w3.org/2000/svg" viewBox="0 0 1024 1536" width="1024" height="1536">
  <defs>
    <filter id="grain" x="-10%" y="-10%" width="120%" height="120%">
      <feTurbulence type="fractalNoise" baseFrequency="0.86" numOctaves="3" seed="A9"/>
      <feColorMatrix type="saturate" values="0"/>
      <feComponentTransfer>
        <feFuncA type="table" tableValues="0 0.17"/>
      </feComponentTransfer>
    </filter>
  </defs>
  <g>
    <rect x="0.0" y="0.0" width="1024.0" height="1536.0" rx="0" fill="#eee5d3" stroke="none" stroke-width="1" opacity="1.0"/>
<rect x="26.0" y="26.0" width="972.0" height="1484.0" rx="0" fill="none" stroke="#9b8c73" stroke-width="1.2" opacity="0.58"/>
<rect x="841.0" y="1216.0" width="236.0" height="226.0" rx="0" fill="#d7cbb4" stroke="none" stroke-width="1" opacity="0.20621110033602186" transform="rotate(-0.2911762866092591 959.0 1329.0)"/>
<rect x="240.0" y="683.0" width="448.0" height="213.0" rx="0" fill="#24211d" stroke="none" stroke-width="1" opacity="0.26300444543052537" transform="rotate(-2.9376703995862865 464.0 789.5)"/>
<rect x="549.0" y="1033.0" width="287.0" height="312.0" rx="0" fill="#d7cbb4" stroke="none" stroke-width="1" opacity="0.35347998280959186" transform="rotate(1.8886079490573664 692.5 1189.0)"/>
<rect x="-81.0" y="518.0" width="298.0" height="232.0" rx="0" fill="#d7cbb4" stroke="none" stroke-width="1" opacity="0.13418052225747168" transform="rotate(3.0686165648701866 68.0 634.0)"/>
<rect x="560.0" y="1229.0" width="297.0" height="59.0" rx="0" fill="#24211d" stroke="none" stroke-width="1" opacity="0.21369671701508056" transform="rotate(2.5154381812625983 708.5 1258.5)"/>
<rect x="462.0" y="1363.0" width="397.0" height="271.0" rx="0" fill="#d7cbb4" stroke="none" stroke-width="1" opacity="0.21099647755776385" transform="rotate(4.026305139695537 660.5 1498.5)"/>
<rect x="489.0" y="867.0" width="318.0" height="278.0" rx="0" fill="#2f6f72" stroke="none" stroke-width="1" opacity="0.24502252138711964" transform="rotate(3.459054328851999 648.0 1006.0)"/>
<rect x="64.0" y="1308.0" width="211.0" height="132.0" rx="0" fill="#9b762f" stroke="none" stroke-width="1" opacity="0.2907756377438614" transform="rotate(-3.1511728269621386 169.5 1374.0)"/>
<rect x="526.0" y="550.0" width="500.0" height="277.0" rx="0" fill="#24211d" stroke="none" stroke-width="1" opacity="0.16415848242834605" transform="rotate(-2.3560530181618207 776.0 688.5)"/>
<rect x="398.0" y="611.0" width="493.0" height="233.0" rx="0" fill="#d7cbb4" stroke="none" stroke-width="1" opacity="0.13529822100306427" transform="rotate(1.7415264437698967 644.5 727.5)"/>
<rect x="458.0" y="1383.0" width="449.0" height="233.0" rx="0" fill="#24211d" stroke="none" stroke-width="1" opacity="0.19543421988417214" transform="rotate(-3.520014976324571 682.5 1499.5)"/>
<rect x="730.0" y="753.0" width="282.0" height="304.0" rx="0" fill="#2f6f72" stroke="none" stroke-width="1" opacity="0.272049162240423" transform="rotate(0.2308102217006418 871.0 905.0)"/>
<rect x="560.0" y="1168.0" width="208.0" height="320.0" rx="0" fill="#777269" stroke="none" stroke-width="1" opacity="0.29780899103447" transform="rotate(-1.0129164332984049 664.0 1328.0)"/>
<rect x="588.0" y="717.0" width="510.0" height="270.0" rx="0" fill="#ad5638" stroke="none" stroke-width="1" opacity="0.24461996762095495" transform="rotate(-4.505132864318736 843.0 852.0)"/>
<rect x="478.0" y="1129.0" width="245.0" height="314.0" rx="0" fill="#d7cbb4" stroke="none" stroke-width="1" opacity="0.3523218100048126" transform="rotate(4.254857644401842 600.5 1286.0)"/>
<rect x="133.0" y="930.0" width="361.0" height="284.0" rx="0" fill="#2f6f72" stroke="none" stroke-width="1" opacity="0.2284753439796387" transform="rotate(-1.8349516986491463 313.5 1072.0)"/>
<rect x="513.0" y="566.0" width="170.0" height="64.0" rx="0" fill="#24211d" stroke="none" stroke-width="1" opacity="0.3840128555858768" transform="rotate(1.569125574391296 598.0 598.0)"/>
<rect x="480.0" y="99.0" width="180.0" height="226.0" rx="0" fill="#d7cbb4" stroke="none" stroke-width="1" opacity="0.26104773498817835" transform="rotate(-4.177979523090853 570.0 212.0)"/>
<rect x="431.0" y="453.0" width="454.0" height="229.0" rx="0" fill="#d7cbb4" stroke="none" stroke-width="1" opacity="0.37418892338875986" transform="rotate(-2.3540371203776336 658.0 567.5)"/>
<rect x="41.0" y="415.0" width="401.0" height="272.0" rx="0" fill="#777269" stroke="none" stroke-width="1" opacity="0.28405955150965445" transform="rotate(-0.0005129486258033111 241.5 551.0)"/>
<rect x="868.0" y="666.0" width="201.0" height="268.0" rx="0" fill="#24211d" stroke="none" stroke-width="1" opacity="0.28605910072709" transform="rotate(-3.795660124088723 968.5 800.0)"/>
<rect x="493.0" y="1.0" width="314.0" height="333.0" rx="0" fill="#2f6f72" stroke="none" stroke-width="1" opacity="0.2531900741984596" transform="rotate(0.34533416577810083 650.0 167.5)"/>
<rect x="78.0" y="975.0" width="489.0" height="298.0" rx="0" fill="#777269" stroke="none" stroke-width="1" opacity="0.23051356276507484" transform="rotate(0.9590937666781656 322.5 1124.0)"/>
<line x1="64.0" y1="42.0" x2="64.0" y2="1494.0" stroke="#9b8c73" stroke-width="1" opacity="0.11"/>
<line x1="154.0" y1="42.0" x2="154.0" y2="1494.0" stroke="#9b8c73" stroke-width="1" opacity="0.11"/>
<line x1="244.0" y1="42.0" x2="244.0" y2="1494.0" stroke="#9b8c73" stroke-width="1" opacity="0.11"/>
<line x1="334.0" y1="42.0" x2="334.0" y2="1494.0" stroke="#9b8c73" stroke-width="1" opacity="0.11"/>
<line x1="424.0" y1="42.0" x2="424.0" y2="1494.0" stroke="#9b8c73" stroke-width="1" opacity="0.11"/>
<line x1="514.0" y1="42.0" x2="514.0" y2="1494.0" stroke="#9b8c73" stroke-width="1" opacity="0.11"/>
<line x1="604.0" y1="42.0" x2="604.0" y2="1494.0" stroke="#9b8c73" stroke-width="1" opacity="0.11"/>
<line x1="694.0" y1="42.0" x2="694.0" y2="1494.0" stroke="#9b8c73" stroke-width="1" opacity="0.11"/>
<line x1="784.0" y1="42.0" x2="784.0" y2="1494.0" stroke="#9b8c73" stroke-width="1" opacity="0.11"/>
<line x1="874.0" y1="42.0" x2="874.0" y2="1494.0" stroke="#9b8c73" stroke-width="1" opacity="0.11"/>
<line x1="964.0" y1="42.0" x2="964.0" y2="1494.0" stroke="#9b8c73" stroke-width="1" opacity="0.11"/>
<line x1="42.0" y1="70.0" x2="982.0" y2="70.0" stroke="#9b8c73" stroke-width="1" opacity="0.095"/>
<line x1="42.0" y1="174.0" x2="982.0" y2="174.0" stroke="#9b8c73" stroke-width="1" opacity="0.095"/>
<line x1="42.0" y1="278.0" x2="982.0" y2="278.0" stroke="#9b8c73" stroke-width="1" opacity="0.095"/>
<line x1="42.0" y1="382.0" x2="982.0" y2="382.0" stroke="#9b8c73" stroke-width="1" opacity="0.095"/>
<line x1="42.0" y1="486.0" x2="982.0" y2="486.0" stroke="#9b8c73" stroke-width="1" opacity="0.095"/>
<line x1="42.0" y1="590.0" x2="982.0" y2="590.0" stroke="#9b8c73" stroke-width="1" opacity="0.095"/>
<line x1="42.0" y1="694.0" x2="982.0" y2="694.0" stroke="#9b8c73" stroke-width="1" opacity="0.095"/>
<line x1="42.0" y1="798.0" x2="982.0" y2="798.0" stroke="#9b8c73" stroke-width="1" opacity="0.095"/>
<line x1="42.0" y1="902.0" x2="982.0" y2="902.0" stroke="#9b8c73" stroke-width="1" opacity="0.095"/>
<line x1="42.0" y1="1006.0" x2="982.0" y2="1006.0" stroke="#9b8c73" stroke-width="1" opacity="0.095"/>
<line x1="42.0" y1="1110.0" x2="982.0" y2="1110.0" stroke="#9b8c73" stroke-width="1" opacity="0.095"/>
<line x1="42.0" y1="1214.0" x2="982.0" y2="1214.0" stroke="#9b8c73" stroke-width="1" opacity="0.095"/>
<line x1="42.0" y1="1318.0" x2="982.0" y2="1318.0" stroke="#9b8c73" stroke-width="1" opacity="0.095"/>
<line x1="42.0" y1="1422.0" x2="982.0" y2="1422.0" stroke="#9b8c73" stroke-width="1" opacity="0.095"/>
<line x1="42.0" y1="1526.0" x2="982.0" y2="1526.0" stroke="#9b8c73" stroke-width="1" opacity="0.095"/>
<circle cx="978.0" cy="958.0" r="4.9" fill="#1d1a16" stroke="none" stroke-width="2" opacity="0.050310414934667216"/>
<circle cx="255.0" cy="655.0" r="1.3" fill="#1d1a16" stroke="none" stroke-width="2" opacity="0.051581430319485866"/>
<circle cx="142.0" cy="102.0" r="3.8" fill="#1d1a16" stroke="none" stroke-width="2" opacity="0.050949743779501705"/>
<circle cx="149.0" cy="817.0" r="2.1" fill="#1d1a16" stroke="none" stroke-width="2" opacity="0.056106052343983054"/>
<circle cx="221.0" cy="1109.0" r="1.7" fill="#1d1a16" stroke="none" stroke-width="2" opacity="0.03915483788317622"/>
<circle cx="182.0" cy="239.0" r="1.4" fill="#1d1a16" stroke="none" stroke-width="2" opacity="0.08808875655730583"/>
<circle cx="863.0" cy="891.0" r="1.5" fill="#1d1a16" stroke="none" stroke-width="2" opacity="0.08851789299844766"/>
<circle cx="73.0" cy="137.0" r="4.9" fill="#1d1a16" stroke="none" stroke-width="2" opacity="0.07713165989931438"/>
<circle cx="398.0" cy="421.0" r="2.0" fill="#1d1a16" stroke="none" stroke-width="2" opacity="0.09909039888947838"/>
<circle cx="244.0" cy="242.0" r="1.9" fill="#1d1a16" stroke="none" stroke-width="2" opacity="0.09827783702099026"/>
<circle cx="860.0" cy="1204.0" r="4.7" fill="#1d1a16" stroke="none" stroke-width="2" opacity="0.09991171321654421"/>
<circle cx="35.0" cy="1209.0" r="4.1" fill="#1d1a16" stroke="none" stroke-width="2" opacity="0.07049138891674604"/>
<circle cx="189.0" cy="1092.0" r="3.7" fill="#1d1a16" stroke="none" stroke-width="2" opacity="0.0826979677850666"/>
<circle cx="392.0" cy="1340.0" r="1.6" fill="#1d1a16" stroke="none" stroke-width="2" opacity="0.03829771233426421"/>
<circle cx="49.0" cy="1433.0" r="2.6" fill="#1d1a16" stroke="none" stroke-width="2" opacity="0.04544477112578652"/>
<circle cx="765.0" cy="1466.0" r="2.7" fill="#1d1a16" stroke="none" stroke-width="2" opacity="0.08948877529378163"/>
<circle cx="959.0" cy="1185.0" r="1.7" fill="#1d1a16" stroke="none" stroke-width="2" opacity="0.04447659480218018"/>
<circle cx="843.0" cy="1471.0" r="3.4" fill="#1d1a16" stroke="none" stroke-width="2" opacity="0.08482523923481412"/>
<circle cx="402.0" cy="211.0" r="1.5" fill="#1d1a16" stroke="none" stroke-width="2" opacity="0.061339571303618855"/>
<circle cx="490.0" cy="611.0" r="1.6" fill="#1d1a16" stroke="none" stroke-width="2" opacity="0.034365817586528596"/>
<circle cx="291.0" cy="90.0" r="1.5" fill="#1d1a16" stroke="none" stroke-width="2" opacity="0.04473404164990865"/>
<circle cx="313.0" cy="207.0" r="4.5" fill="#1d1a16" stroke="none" stroke-width="2" opacity="0.031442440097504035"/>
<circle cx="158.0" cy="413.0" r="2.8" fill="#1d1a16" stroke="none" stroke-width="2" opacity="0.041653822614710685"/>
<circle cx="360.0" cy="1016.0" r="3.1" fill="#1d1a16" stroke="none" stroke-width="2" opacity="0.06673943301488042"/>
<circle cx="163.0" cy="917.0" r="4.4" fill="#1d1a16" stroke="none" stroke-width="2" opacity="0.07248583332345751"/>
<circle cx="452.0" cy="1316.0" r="4.0" fill="#1d1a16" stroke="none" stroke-width="2" opacity="0.09972205742915133"/>
<circle cx="494.0" cy="607.0" r="4.3" fill="#1d1a16" stroke="none" stroke-width="2" opacity="0.07726740539866236"/>
<circle cx="500.0" cy="389.0" r="2.1" fill="#1d1a16" stroke="none" stroke-width="2" opacity="0.07153573146506584"/>
<circle cx="964.0" cy="1205.0" r="4.9" fill="#1d1a16" stroke="none" stroke-width="2" opacity="0.051299248907890546"/>
<circle cx="516.0" cy="402.0" r="2.1" fill="#1d1a16" stroke="none" stroke-width="2" opacity="0.07873549438137042"/>
<circle cx="706.0" cy="914.0" r="3.5" fill="#1d1a16" stroke="none" stroke-width="2" opacity="0.09983033911979332"/>
<circle cx="907.0" cy="501.0" r="4.3" fill="#1d1a16" stroke="none" stroke-width="2" opacity="0.0753160104527964"/>
<circle cx="583.0" cy="900.0" r="3.9" fill="#1d1a16" stroke="none" stroke-width="2" opacity="0.07409495668534435"/>
<circle cx="697.0" cy="562.0" r="3.9" fill="#1d1a16" stroke="none" stroke-width="2" opacity="0.09763939049030707"/>
<circle cx="82.0" cy="1277.0" r="2.3" fill="#1d1a16" stroke="none" stroke-width="2" opacity="0.05801811873854487"/>
<circle cx="982.0" cy="928.0" r="1.2" fill="#1d1a16" stroke="none" stroke-width="2" opacity="0.039549343906559314"/>
<circle cx="947.0" cy="505.0" r="3.7" fill="#1d1a16" stroke="none" stroke-width="2" opacity="0.033325423220671925"/>
<circle cx="509.0" cy="1309.0" r="3.3" fill="#1d1a16" stroke="none" stroke-width="2" opacity="0.048284205821325754"/>
<circle cx="582.0" cy="980.0" r="1.4" fill="#1d1a16" stroke="none" stroke-width="2" opacity="0.03829402446452124"/>
<circle cx="712.0" cy="431.0" r="1.8" fill="#1d1a16" stroke="none" stroke-width="2" opacity="0.0837685127207769"/>
<circle cx="930.0" cy="1115.0" r="5.0" fill="#1d1a16" stroke="none" stroke-width="2" opacity="0.041715212064749846"/>
<circle cx="859.0" cy="891.0" r="3.3" fill="#1d1a16" stroke="none" stroke-width="2" opacity="0.06613749894439433"/>
<circle cx="250.0" cy="871.0" r="1.8" fill="#1d1a16" stroke="none" stroke-width="2" opacity="0.06542379468110934"/>
<circle cx="630.0" cy="847.0" r="2.8" fill="#1d1a16" stroke="none" stroke-width="2" opacity="0.06220321643802019"/>
<circle cx="81.0" cy="416.0" r="4.3" fill="#1d1a16" stroke="none" stroke-width="2" opacity="0.035138068888500705"/>
<circle cx="996.0" cy="1301.0" r="2.7" fill="#1d1a16" stroke="none" stroke-width="2" opacity="0.09766972689486668"/>
<circle cx="311.0" cy="1189.0" r="4.9" fill="#1d1a16" stroke="none" stroke-width="2" opacity="0.036985547586123914"/>
<circle cx="715.0" cy="1121.0" r="5.2" fill="#1d1a16" stroke="none" stroke-width="2" opacity="0.04499460404312593"/>
<circle cx="638.0" cy="817.0" r="2.8" fill="#1d1a16" stroke="none" stroke-width="2" opacity="0.04953969864669818"/>
<circle cx="450.0" cy="486.0" r="4.4" fill="#1d1a16" stroke="none" stroke-width="2" opacity="0.06617714048903009"/>
<circle cx="806.0" cy="645.0" r="3.4" fill="#1d1a16" stroke="none" stroke-width="2" opacity="0.09614152932311895"/>
<circle cx="234.0" cy="85.0" r="1.7" fill="#1d1a16" stroke="none" stroke-width="2" opacity="0.07370745728821484"/>
<circle cx="905.0" cy="734.0" r="2.5" fill="#1d1a16" stroke="none" stroke-width="2" opacity="0.04151627890747554"/>
<circle cx="20.0" cy="979.0" r="3.3" fill="#1d1a16" stroke="none" stroke-width="2" opacity="0.07970442094004612"/>
<circle cx="296.0" cy="983.0" r="4.2" fill="#1d1a16" stroke="none" stroke-width="2" opacity="0.09141102043423394"/>
<circle cx="775.0" cy="56.0" r="4.3" fill="#1d1a16" stroke="none" stroke-width="2" opacity="0.0683412802171109"/>
<circle cx="320.0" cy="1407.0" r="3.6" fill="#1d1a16" stroke="none" stroke-width="2" opacity="0.08687923653187972"/>
<circle cx="680.0" cy="151.0" r="4.2" fill="#1d1a16" stroke="none" stroke-width="2" opacity="0.0582729212121187"/>
<circle cx="725.0" cy="1017.0" r="3.1" fill="#1d1a16" stroke="none" stroke-width="2" opacity="0.05617520251158356"/>
<circle cx="275.0" cy="567.0" r="1.6" fill="#1d1a16" stroke="none" stroke-width="2" opacity="0.04650100393898887"/>
<circle cx="234.0" cy="1083.0" r="3.5" fill="#1d1a16" stroke="none" stroke-width="2" opacity="0.10000184246030636"/>
<circle cx="259.0" cy="1065.0" r="2.7" fill="#1d1a16" stroke="none" stroke-width="2" opacity="0.03069467785111692"/>
<circle cx="457.0" cy="1483.0" r="1.5" fill="#1d1a16" stroke="none" stroke-width="2" opacity="0.05054674135447083"/>
<circle cx="117.0" cy="121.0" r="2.0" fill="#1d1a16" stroke="none" stroke-width="2" opacity="0.069131489890764"/>
<circle cx="199.0" cy="785.0" r="3.4" fill="#1d1a16" stroke="none" stroke-width="2" opacity="0.08966094507409897"/>
<circle cx="442.0" cy="40.0" r="1.8" fill="#1d1a16" stroke="none" stroke-width="2" opacity="0.07190343405465544"/>
<circle cx="389.0" cy="748.0" r="4.5" fill="#1d1a16" stroke="none" stroke-width="2" opacity="0.0645451927260554"/>
<circle cx="845.0" cy="211.0" r="1.4" fill="#1d1a16" stroke="none" stroke-width="2" opacity="0.05176938264065905"/>
<circle cx="571.0" cy="179.0" r="1.7" fill="#1d1a16" stroke="none" stroke-width="2" opacity="0.08289261531282474"/>
<circle cx="684.0" cy="1400.0" r="1.6" fill="#1d1a16" stroke="none" stroke-width="2" opacity="0.047093733598476115"/>
<circle cx="691.0" cy="846.0" r="3.7" fill="#1d1a16" stroke="none" stroke-width="2" opacity="0.031003079842713267"/>
<circle cx="634.0" cy="1359.0" r="3.0" fill="#1d1a16" stroke="none" stroke-width="2" opacity="0.06886683884778728"/>
<circle cx="819.0" cy="1077.0" r="3.2" fill="#1d1a16" stroke="none" stroke-width="2" opacity="0.05541738547182777"/>
<circle cx="137.0" cy="953.0" r="1.7" fill="#1d1a16" stroke="none" stroke-width="2" opacity="0.10389915536012984"/>
<circle cx="790.0" cy="404.0" r="3.2" fill="#1d1a16" stroke="none" stroke-width="2" opacity="0.032949517687534007"/>
<circle cx="994.0" cy="245.0" r="3.8" fill="#1d1a16" stroke="none" stroke-width="2" opacity="0.03372590668072298"/>
<circle cx="324.0" cy="964.0" r="1.9" fill="#1d1a16" stroke="none" stroke-width="2" opacity="0.05819236195250806"/>
<circle cx="153.0" cy="343.0" r="1.5" fill="#1d1a16" stroke="none" stroke-width="2" opacity="0.10105251668772974"/>
<circle cx="70.0" cy="1068.0" r="4.3" fill="#1d1a16" stroke="none" stroke-width="2" opacity="0.08288081773422404"/>
<circle cx="149.0" cy="1142.0" r="2.7" fill="#1d1a16" stroke="none" stroke-width="2" opacity="0.10195608025944895"/>
<circle cx="606.0" cy="192.0" r="3.1" fill="#1d1a16" stroke="none" stroke-width="2" opacity="0.08123881477960385"/>
<circle cx="368.0" cy="117.0" r="3.7" fill="#1d1a16" stroke="none" stroke-width="2" opacity="0.10325393215548943"/>
<circle cx="50.0" cy="1019.0" r="2.4" fill="#1d1a16" stroke="none" stroke-width="2" opacity="0.08732237350010336"/>
<circle cx="265.0" cy="874.0" r="3.9" fill="#1d1a16" stroke="none" stroke-width="2" opacity="0.05752773222028286"/>
<circle cx="668.0" cy="814.0" r="2.4" fill="#1d1a16" stroke="none" stroke-width="2" opacity="0.050710279738254066"/>
<circle cx="369.0" cy="1176.0" r="4.3" fill="#1d1a16" stroke="none" stroke-width="2" opacity="0.0654175034797848"/>
<circle cx="803.0" cy="1378.0" r="4.0" fill="#1d1a16" stroke="none" stroke-width="2" opacity="0.0502692215406846"/>
<circle cx="960.0" cy="471.0" r="4.6" fill="#1d1a16" stroke="none" stroke-width="2" opacity="0.05315558931628626"/>
<circle cx="801.0" cy="57.0" r="2.6" fill="#1d1a16" stroke="none" stroke-width="2" opacity="0.09521984755217675"/>
<circle cx="681.0" cy="895.0" r="2.1" fill="#1d1a16" stroke="none" stroke-width="2" opacity="0.06711669742890544"/>
<circle cx="55.0" cy="412.0" r="4.5" fill="#1d1a16" stroke="none" stroke-width="2" opacity="0.09605656114246892"/>
<circle cx="542.0" cy="49.0" r="3.6" fill="#1d1a16" stroke="none" stroke-width="2" opacity="0.07787668073106757"/>
<rect x="128.0" y="165.0" width="640.0" height="765.0" rx="0" fill="#d7cbb4" stroke="#9b8c73" stroke-width="1.3" opacity="0.88" transform="rotate(-1.0 448.0 547.5)"/>
<line x1="162.0" y1="217.0" x2="734.0" y2="217.0" stroke="#9b8c73" stroke-width="1.1" opacity="0.56"/>
<line x1="162.0" y1="311.4" x2="734.0" y2="311.4" stroke="#9b8c73" stroke-width="1.1" opacity="0.56"/>
<line x1="162.0" y1="405.9" x2="734.0" y2="405.9" stroke="#9b8c73" stroke-width="1.1" opacity="0.56"/>
<line x1="162.0" y1="500.3" x2="734.0" y2="500.3" stroke="#9b8c73" stroke-width="1.1" opacity="0.56"/>
<line x1="162.0" y1="594.7" x2="734.0" y2="594.7" stroke="#9b8c73" stroke-width="1.1" opacity="0.56"/>
<line x1="162.0" y1="689.1" x2="734.0" y2="689.1" stroke="#9b8c73" stroke-width="1.1" opacity="0.56"/>
<line x1="162.0" y1="783.6" x2="734.0" y2="783.6" stroke="#9b8c73" stroke-width="1.1" opacity="0.56"/>
<line x1="162.0" y1="878.0" x2="734.0" y2="878.0" stroke="#9b8c73" stroke-width="1.1" opacity="0.56"/>
<line x1="182.0" y1="199.0" x2="182.0" y2="896.0" stroke="#2f6f72" stroke-width="1" opacity="0.28"/>
<line x1="359.3" y1="199.0" x2="359.3" y2="896.0" stroke="#2f6f72" stroke-width="1" opacity="0.28"/>
<line x1="536.7" y1="199.0" x2="536.7" y2="896.0" stroke="#2f6f72" stroke-width="1" opacity="0.28"/>
<rect x="503.0" y="463.0" width="81.0" height="10.0" rx="0" fill="#1d1a16" stroke="none" stroke-width="1" opacity="0.3212328388353398"/>
<rect x="497.0" y="483.0" width="73.0" height="10.0" rx="0" fill="#1d1a16" stroke="none" stroke-width="1" opacity="0.15961887263402696"/>
<rect x="470.0" y="758.0" width="71.0" height="10.0" rx="0" fill="#1d1a16" stroke="none" stroke-width="1" opacity="0.19618523804289426"/>
<rect x="324.0" y="550.0" width="66.0" height="10.0" rx="0" fill="#9b762f" stroke="none" stroke-width="1" opacity="0.20556768739609688"/>
<rect x="355.0" y="808.0" width="78.0" height="10.0" rx="0" fill="#2f6f72" stroke="none" stroke-width="1" opacity="0.1860167730692605"/>
<rect x="287.0" y="350.0" width="34.0" height="10.0" rx="0" fill="#1d1a16" stroke="none" stroke-width="1" opacity="0.22626096552549324"/>
<rect x="546.0" y="846.0" width="61.0" height="10.0" rx="0" fill="#ad5638" stroke="none" stroke-width="1" opacity="0.28609533404703025"/>
<path d="M230 330 C160 500 305 690 190 880 C135 980 310 1090 245 1245" fill="none" stroke="#2f6f72" stroke-width="5.53871352276182" opacity="0.41266584962971575"/>
<path d="M286 330 C216 500 361 690 246 880 C191 980 366 1090 301 1245" fill="none" stroke="#2f6f72" stroke-width="3.861668024421847" opacity="0.24194359799721796"/>
<path d="M342 330 C272 500 417 690 302 880 C247 980 422 1090 357 1245" fill="none" stroke="#2f6f72" stroke-width="4.491593844983037" opacity="0.3741939346507742"/>
<path d="M398 330 C328 500 473 690 358 880 C303 980 478 1090 413 1245" fill="none" stroke="#ad5638" stroke-width="4.328028143879177" opacity="0.3104128329417841"/>
<path d="M454 330 C384 500 529 690 414 880 C359 980 534 1090 469 1245" fill="none" stroke="#3a2f63" stroke-width="3.4572411681448485" opacity="0.36738435140442116"/>
<path d="M510 330 C440 500 585 690 470 880 C415 980 590 1090 525 1245" fill="none" stroke="#3a2f63" stroke-width="3.998099486675281" opacity="0.3211864712570993"/>
<path d="M566 330 C496 500 641 690 526 880 C471 980 646 1090 581 1245" fill="none" stroke="#ad5638" stroke-width="5.306018767006919" opacity="0.28620162616816136"/>
<path d="M622 330 C552 500 697 690 582 880 C527 980 702 1090 637 1245" fill="none" stroke="#2f6f72" stroke-width="3.6905094885039404" opacity="0.3948758074616755"/>
<path d="M678 330 C608 500 753 690 638 880 C583 980 758 1090 693 1245" fill="none" stroke="#3a2f63" stroke-width="3.8883915727768126" opacity="0.31647828340814255"/>
<rect x="245.0" y="585.0" width="500.0" height="190.0" rx="12" fill="#d9c8b9" stroke="#9b8c73" stroke-width="2" opacity="0.62" transform="rotate(3 495.0 680.0)"/>
<circle cx="320.0" cy="663.0" r="23.0" fill="#5b5072" stroke="none" stroke-width="2" opacity="0.26"/>
<circle cx="382.0" cy="681.0" r="21.0" fill="#5b5072" stroke="none" stroke-width="2" opacity="0.26"/>
<circle cx="444.0" cy="693.0" r="18.0" fill="#2f6f72" stroke="none" stroke-width="2" opacity="0.26"/>
<circle cx="506.0" cy="686.0" r="12.0" fill="#2f6f72" stroke="none" stroke-width="2" opacity="0.26"/>
<circle cx="568.0" cy="665.0" r="20.0" fill="#2f6f72" stroke="none" stroke-width="2" opacity="0.26"/>
<circle cx="630.0" cy="690.0" r="15.0" fill="#ad5638" stroke="none" stroke-width="2" opacity="0.26"/>
<circle cx="692.0" cy="692.0" r="26.0" fill="#5b5072" stroke="none" stroke-width="2" opacity="0.26"/>
<rect x="180.0" y="990.0" width="660.0" height="88.0" rx="0" fill="#2a2522" stroke="none" stroke-width="1" opacity="0.26" transform="rotate(-2 510.0 1034.0)"/>
<circle cx="755.0" cy="355.0" r="58.0" fill="#5b5072" stroke="none" stroke-width="2" opacity="0.32"/>
<circle cx="705.0" cy="414.0" r="28.0" fill="#ad5638" stroke="none" stroke-width="2" opacity="0.28"/>
  </g>
  <rect x="0" y="0" width="1024" height="1536" filter="url(#grain)" opacity="0.27"/>
</svg>
