<svg xmlns="http://www.w3.org/2000/svg" viewBox="0 0 1024 1536" width="1024" height="1536">
  <defs>
    <filter id="grain" x="-10%" y="-10%" width="120%" height="120%">
      <feTurbulence type="fractalNoise" baseFrequency="0.86" numOctaves="3" seed="AC"/>
      <feColorMatrix type="saturate" values="0"/>
      <feComponentTransfer>
        <feFuncA type="table" tableValues="0 0.17"/>
      </feComponentTransfer>
    </filter>
  </defs>
  <g>
    <rect x="0.0" y="0.0" width="1024.0" height="1536.0" rx="0" fill="#eee5d3" stroke="none" stroke-width="1" opacity="1.0"/>
<rect x="26.0" y="26.0" width="972.0" height="1484.0" rx="0" fill="none" stroke="#9b8c73" stroke-width="1.2" opacity="0.58"/>
<rect x="-40.0" y="-1.0" width="483.0" height="287.0" rx="0" fill="#9b762f" stroke="none" stroke-width="1" opacity="0.24825639413942513" transform="rotate(-0.6801579093470274 201.5 142.5)"/>
<rect x="656.0" y="1374.0" width="361.0" height="138.0" rx="0" fill="#24211d" stroke="none" stroke-width="1" opacity="0.331424067700397" transform="rotate(0.4347950890636083 836.5 1443.0)"/>
<rect x="825.0" y="413.0" width="131.0" height="163.0" rx="0" fill="#24211d" stroke="none" stroke-width="1" opacity="0.37737487294498834" transform="rotate(1.7542442452779712 890.5 494.5)"/>
<rect x="611.0" y="1123.0" width="402.0" height="344.0" rx="0" fill="#2f6f72" stroke="none" stroke-width="1" opacity="0.2457950699931588" transform="rotate(-1.9307029028940081 812.0 1295.0)"/>
<rect x="154.0" y="1058.0" width="121.0" height="255.0" rx="0" fill="#24211d" stroke="none" stroke-width="1" opacity="0.13776416967362104" transform="rotate(-3.416971623037699 214.5 1185.5)"/>
<rect x="533.0" y="-7.0" width="416.0" height="327.0" rx="0" fill="#777269" stroke="none" stroke-width="1" opacity="0.3012938070966772" transform="rotate(-1.6090562810611329 741.0 156.5)"/>
<rect x="731.0" y="936.0" width="332.0" height="177.0" rx="0" fill="#24211d" stroke="none" stroke-width="1" opacity="0.3175975927013646" transform="rotate(-0.0658928596991597 897.0 1024.5)"/>
<rect x="-18.0" y="544.0" width="508.0" height="150.0" rx="0" fill="#9b762f" stroke="none" stroke-width="1" opacity="0.36201106383031745" transform="rotate(0.2247735605233867 236.0 619.0)"/>
<rect x="222.0" y="675.0" width="399.0" height="215.0" rx="0" fill="#2f6f72" stroke="none" stroke-width="1" opacity="0.21448542242074278" transform="rotate(4.3340157384922255 421.5 782.5)"/>
<rect x="550.0" y="-52.0" width="308.0" height="219.0" rx="0" fill="#2f6f72" stroke="none" stroke-width="1" opacity="0.19112216658667874" transform="rotate(1.4164183488140063 704.0 57.5)"/>
<rect x="-36.0" y="1190.0" width="208.0" height="260.0" rx="0" fill="#9b762f" stroke="none" stroke-width="1" opacity="0.25827160956994477" transform="rotate(2.6556239534819444 68.0 1320.0)"/>
<rect x="665.0" y="1183.0" width="301.0" height="308.0" rx="0" fill="#d7cbb4" stroke="none" stroke-width="1" opacity="0.3596869205943487" transform="rotate(0.04394763800007162 815.5 1337.0)"/>
<rect x="420.0" y="1019.0" width="158.0" height="127.0" rx="0" fill="#24211d" stroke="none" stroke-width="1" opacity="0.17539002362235084" transform="rotate(1.1935511558594172 499.0 1082.5)"/>
<rect x="854.0" y="458.0" width="370.0" height="241.0" rx="0" fill="#d7cbb4" stroke="none" stroke-width="1" opacity="0.2980620788279934" transform="rotate(3.3595806554866234 1039.0 578.5)"/>
<rect x="214.0" y="184.0" width="273.0" height="316.0" rx="0" fill="#ad5638" stroke="none" stroke-width="1" opacity="0.24870985345402105" transform="rotate(3.4693685873802016 350.5 342.0)"/>
<rect x="393.0" y="294.0" width="328.0" height="165.0" rx="0" fill="#777269" stroke="none" stroke-width="1" opacity="0.2866536751589232" transform="rotate(1.5795859634091611 557.0 376.5)"/>
<rect x="387.0" y="865.0" width="298.0" height="239.0" rx="0" fill="#9b762f" stroke="none" stroke-width="1" opacity="0.35935724627592447" transform="rotate(2.1315243168579032 536.0 984.5)"/>
<rect x="110.0" y="248.0" width="425.0" height="289.0" rx="0" fill="#2f6f72" stroke="none" stroke-width="1" opacity="0.32081303393775695" transform="rotate(-4.326571134578757 322.5 392.5)"/>
<rect x="98.0" y="69.0" width="480.0" height="65.0" rx="0" fill="#ad5638" stroke="none" stroke-width="1" opacity="0.18344851832465664" transform="rotate(-1.5269856295398414 338.0 101.5)"/>
<rect x="215.0" y="1044.0" width="501.0" height="233.0" rx="0" fill="#ad5638" stroke="none" stroke-width="1" opacity="0.16544198919598763" transform="rotate(-0.39777206923758346 465.5 1160.5)"/>
<rect x="462.0" y="798.0" width="473.0" height="311.0" rx="0" fill="#24211d" stroke="none" stroke-width="1" opacity="0.17462068906401518" transform="rotate(4.3216529714818455 698.5 953.5)"/>
<rect x="278.0" y="751.0" width="365.0" height="172.0" rx="0" fill="#ad5638" stroke="none" stroke-width="1" opacity="0.2638229167986551" transform="rotate(-3.6272580720212124 460.5 837.0)"/>
<rect x="823.0" y="1269.0" width="289.0" height="161.0" rx="0" fill="#777269" stroke="none" stroke-width="1" opacity="0.3879463412332506" transform="rotate(-3.4856338703807204 967.5 1349.5)"/>
<line x1="64.0" y1="42.0" x2="64.0" y2="1494.0" stroke="#9b8c73" stroke-width="1" opacity="0.11"/>
<line x1="154.0" y1="42.0" x2="154.0" y2="1494.0" stroke="#9b8c73" stroke-width="1" opacity="0.11"/>
<line x1="244.0" y1="42.0" x2="244.0" y2="1494.0" stroke="#9b8c73" stroke-width="1" opacity="0.11"/>
<line x1="334.0" y1="42.0" x2="334.0" y2="1494.0" stroke="#9b8c73" stroke-width="1" opacity="0.11"/>
<line x1="424.0" y1="42.0" x2="424.0" y2="1494.0" stroke="#9b8c73" stroke-width="1" opacity="0.11"/>
<line x1="514.0" y1="42.0" x2="514.0" y2="1494.0" stroke="#9b8c73" stroke-width="1" opacity="0.11"/>
<line x1="604.0" y1="42.0" x2="604.0" y2="1494.0" stroke="#9b8c73" stroke-width="1" opacity="0.11"/>
<line x1="694.0" y1="42.0" x2="694.0" y2="1494.0" stroke="#9b8c73" stroke-width="1" opacity="0.11"/>
<line x1="784.0" y1="42.0" x2="784.0" y2="1494.0" stroke="#9b8c73" stroke-width="1" opacity="0.11"/>
<line x1="874.0" y1="42.0" x2="874.0" y2="1494.0" stroke="#9b8c73" stroke-width="1" opacity="0.11"/>
<line x1="964.0" y1="42.0" x2="964.0" y2="1494.0" stroke="#9b8c73" stroke-width="1" opacity="0.11"/>
<line x1="42.0" y1="70.0" x2="982.0" y2="70.0" stroke="#9b8c73" stroke-width="1" opacity="0.095"/>
<line x1="42.0" y1="174.0" x2="982.0" y2="174.0" stroke="#9b8c73" stroke-width="1" opacity="0.095"/>
<line x1="42.0" y1="278.0" x2="982.0" y2="278.0" stroke="#9b8c73" stroke-width="1" opacity="0.095"/>
<line x1="42.0" y1="382.0" x2="982.0" y2="382.0" stroke="#9b8c73" stroke-width="1" opacity="0.095"/>
<line x1="42.0" y1="486.0" x2="982.0" y2="486.0" stroke="#9b8c73" stroke-width="1" opacity="0.095"/>
<line x1="42.0" y1="590.0" x2="982.0" y2="590.0" stroke="#9b8c73" stroke-width="1" opacity="0.095"/>
<line x1="42.0" y1="694.0" x2="982.0" y2="694.0" stroke="#9b8c73" stroke-width="1" opacity="0.095"/>
<line x1="42.0" y1="798.0" x2="982.0" y2="798.0" stroke="#9b8c73" stroke-width="1" opacity="0.095"/>
<line x1="42.0" y1="902.0" x2="982.0" y2="902.0" stroke="#9b8c73" stroke-width="1" opacity="0.095"/>
<line x1="42.0" y1="1006.0" x2="982.0" y2="1006.0" stroke="#9b8c73" stroke-width="1" opacity="0.095"/>
<line x1="42.0" y1="1110.0" x2="982.0" y2="1110.0" stroke="#9b8c73" stroke-width="1" opacity="0.095"/>
<line x1="42.0" y1="1214.0" x2="982.0" y2="1214.0" stroke="#9b8c73" stroke-width="1" opacity="0.095"/>
<line x1="42.0" y1="1318.0" x2="982.0" y2="1318.0" stroke="#9b8c73" stroke-width="1" opacity="0.095"/>
<line x1="42.0" y1="1422.0" x2="982.0" y2="1422.0" stroke="#9b8c73" stroke-width="1" opacity="0.095"/>
<line x1="42.0" y1="1526.0" x2="982.0" y2="1526.0" stroke="#9b8c73" stroke-width="1" opacity="0.095"/>
<circle cx="746.0" cy="1222.0" r="4.2" fill="#1d1a16" stroke="none" stroke-width="2" opacity="0.08647575473831154"/>
<circle cx="20.0" cy="219.0" r="3.0" fill="#1d1a16" stroke="none" stroke-width="2" opacity="0.03850054683670536"/>
<circle cx="330.0" cy="375.0" r="4.1" fill="#1d1a16" stroke="none" stroke-width="2" opacity="0.045058644217324584"/>
<circle cx="473.0" cy="376.0" r="3.5" fill="#1d1a16" stroke="none" stroke-width="2" opacity="0.060921211540126724"/>
<circle cx="461.0" cy="58.0" r="2.7" fill="#1d1a16" stroke="none" stroke-width="2" opacity="0.07871180509030387"/>
<circle cx="139.0" cy="686.0" r="3.8" fill="#1d1a16" stroke="none" stroke-width="2" opacity="0.1042088923264966"/>
<circle cx="371.0" cy="1111.0" r="3.5" fill="#1d1a16" stroke="none" stroke-width="2" opacity="0.035759803511875826"/>
<circle cx="633.0" cy="911.0" r="2.2" fill="#1d1a16" stroke="none" stroke-width="2" opacity="0.09406867046694471"/>
<circle cx="624.0" cy="1215.0" r="3.6" fill="#1d1a16" stroke="none" stroke-width="2" opacity="0.086572346137912"/>
<circle cx="970.0" cy="112.0" r="4.9" fill="#1d1a16" stroke="none" stroke-width="2" opacity="0.039925415524103294"/>
<circle cx="388.0" cy="1160.0" r="4.0" fill="#1d1a16" stroke="none" stroke-width="2" opacity="0.09709659938767619"/>
<circle cx="864.0" cy="594.0" r="1.0" fill="#1d1a16" stroke="none" stroke-width="2" opacity="0.04947765158346572"/>
<circle cx="668.0" cy="651.0" r="2.2" fill="#1d1a16" stroke="none" stroke-width="2" opacity="0.0830594309086746"/>
<circle cx="601.0" cy="303.0" r="2.9" fill="#1d1a16" stroke="none" stroke-width="2" opacity="0.07673006989446812"/>
<circle cx="724.0" cy="1133.0" r="1.9" fill="#1d1a16" stroke="none" stroke-width="2" opacity="0.08991038289991746"/>
<circle cx="911.0" cy="442.0" r="1.6" fill="#1d1a16" stroke="none" stroke-width="2" opacity="0.06320563355283362"/>
<circle cx="954.0" cy="499.0" r="1.0" fill="#1d1a16" stroke="none" stroke-width="2" opacity="0.09772036993907333"/>
<circle cx="29.0" cy="860.0" r="1.7" fill="#1d1a16" stroke="none" stroke-width="2" opacity="0.03204610861557734"/>
<circle cx="246.0" cy="65.0" r="1.6" fill="#1d1a16" stroke="none" stroke-width="2" opacity="0.09851310683362509"/>
<circle cx="47.0" cy="892.0" r="4.0" fill="#1d1a16" stroke="none" stroke-width="2" opacity="0.10462043761679128"/>
<circle cx="628.0" cy="838.0" r="4.9" fill="#1d1a16" stroke="none" stroke-width="2" opacity="0.09044553110471801"/>
<circle cx="855.0" cy="352.0" r="1.1" fill="#1d1a16" stroke="none" stroke-width="2" opacity="0.05749538250927018"/>
<circle cx="82.0" cy="703.0" r="3.6" fill="#1d1a16" stroke="none" stroke-width="2" opacity="0.046195940192867754"/>
<circle cx="452.0" cy="1450.0" r="1.5" fill="#1d1a16" stroke="none" stroke-width="2" opacity="0.03551564078842303"/>
<circle cx="85.0" cy="521.0" r="2.1" fill="#1d1a16" stroke="none" stroke-width="2" opacity="0.060278596959091185"/>
<circle cx="632.0" cy="858.0" r="4.1" fill="#1d1a16" stroke="none" stroke-width="2" opacity="0.0339831618848532"/>
<circle cx="663.0" cy="336.0" r="3.0" fill="#1d1a16" stroke="none" stroke-width="2" opacity="0.075485545249808"/>
<circle cx="914.0" cy="877.0" r="3.6" fill="#1d1a16" stroke="none" stroke-width="2" opacity="0.09096615381609541"/>
<circle cx="871.0" cy="730.0" r="3.3" fill="#1d1a16" stroke="none" stroke-width="2" opacity="0.10227929660384966"/>
<circle cx="736.0" cy="1289.0" r="1.9" fill="#1d1a16" stroke="none" stroke-width="2" opacity="0.08450003094355454"/>
<circle cx="351.0" cy="486.0" r="3.2" fill="#1d1a16" stroke="none" stroke-width="2" opacity="0.08987106331811223"/>
<circle cx="413.0" cy="491.0" r="3.3" fill="#1d1a16" stroke="none" stroke-width="2" opacity="0.031784532318230446"/>
<circle cx="613.0" cy="711.0" r="2.5" fill="#1d1a16" stroke="none" stroke-width="2" opacity="0.034946619136095695"/>
<circle cx="317.0" cy="562.0" r="2.1" fill="#1d1a16" stroke="none" stroke-width="2" opacity="0.09257755222286523"/>
<circle cx="676.0" cy="422.0" r="5.1" fill="#1d1a16" stroke="none" stroke-width="2" opacity="0.057065085414264596"/>
<circle cx="674.0" cy="1001.0" r="4.4" fill="#1d1a16" stroke="none" stroke-width="2" opacity="0.06469404374817908"/>
<circle cx="506.0" cy="661.0" r="2.6" fill="#1d1a16" stroke="none" stroke-width="2" opacity="0.10260589829463666"/>
<circle cx="168.0" cy="1445.0" r="1.9" fill="#1d1a16" stroke="none" stroke-width="2" opacity="0.07635210515872035"/>
<circle cx="508.0" cy="892.0" r="4.6" fill="#1d1a16" stroke="none" stroke-width="2" opacity="0.0875438677931809"/>
<circle cx="987.0" cy="837.0" r="1.5" fill="#1d1a16" stroke="none" stroke-width="2" opacity="0.07833186526133099"/>
<circle cx="422.0" cy="78.0" r="3.1" fill="#1d1a16" stroke="none" stroke-width="2" opacity="0.05159854850599967"/>
<circle cx="587.0" cy="1201.0" r="5.0" fill="#1d1a16" stroke="none" stroke-width="2" opacity="0.05665877093866714"/>
<circle cx="523.0" cy="733.0" r="2.7" fill="#1d1a16" stroke="none" stroke-width="2" opacity="0.08593867299070335"/>
<circle cx="848.0" cy="671.0" r="4.2" fill="#1d1a16" stroke="none" stroke-width="2" opacity="0.03100470591589905"/>
<circle cx="910.0" cy="324.0" r="4.5" fill="#1d1a16" stroke="none" stroke-width="2" opacity="0.04487387073198154"/>
<circle cx="791.0" cy="1474.0" r="2.5" fill="#1d1a16" stroke="none" stroke-width="2" opacity="0.03756039439688649"/>
<circle cx="465.0" cy="696.0" r="2.9" fill="#1d1a16" stroke="none" stroke-width="2" opacity="0.0977895314079456"/>
<circle cx="22.0" cy="1260.0" r="2.1" fill="#1d1a16" stroke="none" stroke-width="2" opacity="0.06163080030695898"/>
<circle cx="715.0" cy="79.0" r="2.7" fill="#1d1a16" stroke="none" stroke-width="2" opacity="0.0689351606653471"/>
<circle cx="43.0" cy="1318.0" r="2.5" fill="#1d1a16" stroke="none" stroke-width="2" opacity="0.05663084336095853"/>
<circle cx="500.0" cy="986.0" r="4.5" fill="#1d1a16" stroke="none" stroke-width="2" opacity="0.09128943760063452"/>
<circle cx="854.0" cy="1245.0" r="1.9" fill="#1d1a16" stroke="none" stroke-width="2" opacity="0.08702147346957309"/>
<circle cx="480.0" cy="975.0" r="3.9" fill="#1d1a16" stroke="none" stroke-width="2" opacity="0.1048198923069253"/>
<circle cx="550.0" cy="623.0" r="4.6" fill="#1d1a16" stroke="none" stroke-width="2" opacity="0.0905025340839655"/>
<circle cx="94.0" cy="1480.0" r="1.4" fill="#1d1a16" stroke="none" stroke-width="2" opacity="0.0926172387408618"/>
<circle cx="910.0" cy="1413.0" r="2.0" fill="#1d1a16" stroke="none" stroke-width="2" opacity="0.07087480645725669"/>
<circle cx="64.0" cy="362.0" r="4.4" fill="#1d1a16" stroke="none" stroke-width="2" opacity="0.04118446148490527"/>
<circle cx="665.0" cy="1485.0" r="4.5" fill="#1d1a16" stroke="none" stroke-width="2" opacity="0.10062697823205982"/>
<circle cx="960.0" cy="697.0" r="2.1" fill="#1d1a16" stroke="none" stroke-width="2" opacity="0.05129172281086623"/>
<circle cx="56.0" cy="1389.0" r="1.8" fill="#1d1a16" stroke="none" stroke-width="2" opacity="0.08086958185233267"/>
<circle cx="819.0" cy="299.0" r="1.2" fill="#1d1a16" stroke="none" stroke-width="2" opacity="0.09700636713690908"/>
<circle cx="745.0" cy="1442.0" r="2.9" fill="#1d1a16" stroke="none" stroke-width="2" opacity="0.08479189175557464"/>
<circle cx="889.0" cy="1037.0" r="3.9" fill="#1d1a16" stroke="none" stroke-width="2" opacity="0.08110548157786746"/>
<circle cx="77.0" cy="417.0" r="2.8" fill="#1d1a16" stroke="none" stroke-width="2" opacity="0.1030272221740652"/>
<circle cx="550.0" cy="1054.0" r="3.4" fill="#1d1a16" stroke="none" stroke-width="2" opacity="0.10385192728698844"/>
<circle cx="558.0" cy="162.0" r="3.4" fill="#1d1a16" stroke="none" stroke-width="2" opacity="0.0902773854415243"/>
<circle cx="439.0" cy="530.0" r="4.8" fill="#1d1a16" stroke="none" stroke-width="2" opacity="0.0961898731730549"/>
<circle cx="160.0" cy="1137.0" r="3.4" fill="#1d1a16" stroke="none" stroke-width="2" opacity="0.03871798045497277"/>
<circle cx="829.0" cy="1357.0" r="3.0" fill="#1d1a16" stroke="none" stroke-width="2" opacity="0.05199079960725246"/>
<circle cx="61.0" cy="865.0" r="1.6" fill="#1d1a16" stroke="none" stroke-width="2" opacity="0.0832172169025385"/>
<circle cx="859.0" cy="138.0" r="3.4" fill="#1d1a16" stroke="none" stroke-width="2" opacity="0.0762031105325425"/>
<circle cx="636.0" cy="1437.0" r="3.0" fill="#1d1a16" stroke="none" stroke-width="2" opacity="0.0425530867791806"/>
<circle cx="396.0" cy="411.0" r="2.7" fill="#1d1a16" stroke="none" stroke-width="2" opacity="0.04807042798057065"/>
<circle cx="663.0" cy="885.0" r="3.2" fill="#1d1a16" stroke="none" stroke-width="2" opacity="0.10340805359234063"/>
<circle cx="749.0" cy="1396.0" r="5.0" fill="#1d1a16" stroke="none" stroke-width="2" opacity="0.06499488123921127"/>
<circle cx="559.0" cy="63.0" r="3.6" fill="#1d1a16" stroke="none" stroke-width="2" opacity="0.07353622754321251"/>
<circle cx="194.0" cy="667.0" r="1.8" fill="#1d1a16" stroke="none" stroke-width="2" opacity="0.10185464832864183"/>
<circle cx="518.0" cy="624.0" r="1.2" fill="#1d1a16" stroke="none" stroke-width="2" opacity="0.09281519803258233"/>
<circle cx="78.0" cy="292.0" r="1.2" fill="#1d1a16" stroke="none" stroke-width="2" opacity="0.08307582528645187"/>
<circle cx="877.0" cy="1192.0" r="2.5" fill="#1d1a16" stroke="none" stroke-width="2" opacity="0.10487296886064433"/>
<circle cx="443.0" cy="836.0" r="3.0" fill="#1d1a16" stroke="none" stroke-width="2" opacity="0.03964637354803341"/>
<circle cx="789.0" cy="1140.0" r="5.1" fill="#1d1a16" stroke="none" stroke-width="2" opacity="0.045524775587138216"/>
<circle cx="431.0" cy="1110.0" r="1.5" fill="#1d1a16" stroke="none" stroke-width="2" opacity="0.09403877136911949"/>
<circle cx="655.0" cy="186.0" r="2.3" fill="#1d1a16" stroke="none" stroke-width="2" opacity="0.0917532490961977"/>
<circle cx="736.0" cy="593.0" r="2.0" fill="#1d1a16" stroke="none" stroke-width="2" opacity="0.07783225765834445"/>
<circle cx="61.0" cy="265.0" r="1.9" fill="#1d1a16" stroke="none" stroke-width="2" opacity="0.05664851984639099"/>
<circle cx="824.0" cy="833.0" r="4.6" fill="#1d1a16" stroke="none" stroke-width="2" opacity="0.09414102865294159"/>
<circle cx="442.0" cy="435.0" r="4.6" fill="#1d1a16" stroke="none" stroke-width="2" opacity="0.03350722258316994"/>
<circle cx="97.0" cy="1196.0" r="3.5" fill="#1d1a16" stroke="none" stroke-width="2" opacity="0.04972844220431952"/>
<circle cx="462.0" cy="26.0" r="2.9" fill="#1d1a16" stroke="none" stroke-width="2" opacity="0.09648661040052932"/>
<circle cx="148.0" cy="275.0" r="3.0" fill="#1d1a16" stroke="none" stroke-width="2" opacity="0.09022581966591936"/>
<circle cx="893.0" cy="856.0" r="3.9" fill="#1d1a16" stroke="none" stroke-width="2" opacity="0.10402392500782323"/>
<rect x="138.0" y="185.0" width="620.0" height="730.0" rx="0" fill="#d7cbb4" stroke="#9b8c73" stroke-width="1.3" opacity="0.88" transform="rotate(1.4 448.0 550.0)"/>
<line x1="172.0" y1="237.0" x2="724.0" y2="237.0" stroke="#9b8c73" stroke-width="1.1" opacity="0.56"/>
<line x1="172.0" y1="326.4" x2="724.0" y2="326.4" stroke="#9b8c73" stroke-width="1.1" opacity="0.56"/>
<line x1="172.0" y1="415.9" x2="724.0" y2="415.9" stroke="#9b8c73" stroke-width="1.1" opacity="0.56"/>
<line x1="172.0" y1="505.3" x2="724.0" y2="505.3" stroke="#9b8c73" stroke-width="1.1" opacity="0.56"/>
<line x1="172.0" y1="594.7" x2="724.0" y2="594.7" stroke="#9b8c73" stroke-width="1.1" opacity="0.56"/>
<line x1="172.0" y1="684.1" x2="724.0" y2="684.1" stroke="#9b8c73" stroke-width="1.1" opacity="0.56"/>
<line x1="172.0" y1="773.6" x2="724.0" y2="773.6" stroke="#9b8c73" stroke-width="1.1" opacity="0.56"/>
<line x1="172.0" y1="863.0" x2="724.0" y2="863.0" stroke="#9b8c73" stroke-width="1.1" opacity="0.56"/>
<line x1="192.0" y1="219.0" x2="192.0" y2="881.0" stroke="#2f6f72" stroke-width="1" opacity="0.28"/>
<line x1="362.7" y1="219.0" x2="362.7" y2="881.0" stroke="#2f6f72" stroke-width="1" opacity="0.28"/>
<line x1="533.3" y1="219.0" x2="533.3" y2="881.0" stroke="#2f6f72" stroke-width="1" opacity="0.28"/>
<rect x="494.0" y="465.0" width="112.0" height="10.0" rx="0" fill="#ad5638" stroke="none" stroke-width="1" opacity="0.25446174131767973"/>
<rect x="512.0" y="376.0" width="85.0" height="10.0" rx="0" fill="#9b762f" stroke="none" stroke-width="1" opacity="0.3091960352899813"/>
<rect x="260.0" y="436.0" width="61.0" height="10.0" rx="0" fill="#9b762f" stroke="none" stroke-width="1" opacity="0.2235379258534239"/>
<rect x="431.0" y="262.0" width="73.0" height="10.0" rx="0" fill="#1d1a16" stroke="none" stroke-width="1" opacity="0.28118236909628436"/>
<rect x="325.0" y="692.0" width="35.0" height="10.0" rx="0" fill="#1d1a16" stroke="none" stroke-width="1" opacity="0.33275314439458664"/>
<rect x="411.0" y="398.0" width="78.0" height="10.0" rx="0" fill="#1d1a16" stroke="none" stroke-width="1" opacity="0.25677870969925853"/>
<rect x="450.0" y="576.0" width="76.0" height="10.0" rx="0" fill="#9b762f" stroke="none" stroke-width="1" opacity="0.33389832743436865"/>
<rect x="210.0" y="490.0" width="515.0" height="340.0" rx="18" fill="#232323" stroke="#514b43" stroke-width="6" opacity="0.78" transform="rotate(-1 467.5 660.0)"/>
<rect x="260.0" y="540.0" width="405.0" height="198.0" rx="8" fill="#183333" stroke="#6a7864" stroke-width="4" opacity="0.78" transform="rotate(-1 462.5 639.0)"/>
<line x1="285.0" y1="570.0" x2="636.0" y2="573.0" stroke="#6d9c72" stroke-width="2" opacity="0.28"/>
<line x1="285.0" y1="596.0" x2="636.0" y2="598.0" stroke="#6d9c72" stroke-width="2" opacity="0.28"/>
<line x1="285.0" y1="622.0" x2="636.0" y2="625.0" stroke="#6d9c72" stroke-width="2" opacity="0.28"/>
<line x1="285.0" y1="648.0" x2="636.0" y2="647.0" stroke="#6d9c72" stroke-width="2" opacity="0.28"/>
<line x1="285.0" y1="674.0" x2="636.0" y2="672.0" stroke="#6d9c72" stroke-width="2" opacity="0.28"/>
<line x1="285.0" y1="700.0" x2="636.0" y2="701.0" stroke="#6d9c72" stroke-width="2" opacity="0.28"/>
<rect x="248.0" y="812.0" width="455.0" height="80.0" rx="5" fill="#d4c6ae" stroke="#81715a" stroke-width="2" opacity="0.72" transform="rotate(-1 475.5 852.0)"/>
<rect x="278.0" y="832.0" width="18.0" height="16.0" rx="3" fill="#5c5148" stroke="none" stroke-width="1" opacity="0.44" transform="rotate(-1 287.0 840.0)"/>
<rect x="310.0" y="832.0" width="18.0" height="16.0" rx="3" fill="#5c5148" stroke="none" stroke-width="1" opacity="0.44" transform="rotate(-1 319.0 840.0)"/>
<rect x="342.0" y="832.0" width="18.0" height="16.0" rx="3" fill="#5c5148" stroke="none" stroke-width="1" opacity="0.44" transform="rotate(-1 351.0 840.0)"/>
<rect x="374.0" y="832.0" width="18.0" height="16.0" rx="3" fill="#5c5148" stroke="none" stroke-width="1" opacity="0.44" transform="rotate(-1 383.0 840.0)"/>
<rect x="406.0" y="832.0" width="18.0" height="16.0" rx="3" fill="#5c5148" stroke="none" stroke-width="1" opacity="0.44" transform="rotate(-1 415.0 840.0)"/>
<rect x="438.0" y="832.0" width="18.0" height="16.0" rx="3" fill="#5c5148" stroke="none" stroke-width="1" opacity="0.44" transform="rotate(-1 447.0 840.0)"/>
<rect x="470.0" y="832.0" width="18.0" height="16.0" rx="3" fill="#5c5148" stroke="none" stroke-width="1" opacity="0.44" transform="rotate(-1 479.0 840.0)"/>
<rect x="502.0" y="832.0" width="18.0" height="16.0" rx="3" fill="#5c5148" stroke="none" stroke-width="1" opacity="0.44" transform="rotate(-1 511.0 840.0)"/>
<rect x="534.0" y="832.0" width="18.0" height="16.0" rx="3" fill="#5c5148" stroke="none" stroke-width="1" opacity="0.44" transform="rotate(-1 543.0 840.0)"/>
<rect x="566.0" y="832.0" width="18.0" height="16.0" rx="3" fill="#5c5148" stroke="none" stroke-width="1" opacity="0.44" transform="rotate(-1 575.0 840.0)"/>
<rect x="598.0" y="832.0" width="18.0" height="16.0" rx="3" fill="#5c5148" stroke="none" stroke-width="1" opacity="0.44" transform="rotate(-1 607.0 840.0)"/>
<rect x="630.0" y="832.0" width="18.0" height="16.0" rx="3" fill="#5c5148" stroke="none" stroke-width="1" opacity="0.44" transform="rotate(-1 639.0 840.0)"/>
<rect x="662.0" y="832.0" width="18.0" height="16.0" rx="3" fill="#5c5148" stroke="none" stroke-width="1" opacity="0.44" transform="rotate(-1 671.0 840.0)"/>
<path d="M155 1060 C275 985 450 990 610 1055 C705 1092 790 1078 880 1028" fill="none" stroke="#ad5638" stroke-width="5" opacity="0.3"/>
<rect x="132.0" y="1038.0" width="720.0" height="148.0" rx="0" fill="#8b7b62" stroke="none" stroke-width="1" opacity="0.18" transform="rotate(-2 492.0 1112.0)"/>
<circle cx="742.0" cy="348.0" r="52.0" fill="#ad5638" stroke="none" stroke-width="2" opacity="0.26"/>
  </g>
  <rect x="0" y="0" width="1024" height="1536" filter="url(#grain)" opacity="0.27"/>
</svg>
