<svg xmlns="http://www.w3.org/2000/svg" viewBox="0 0 1024 1536" width="1024" height="1536">
  <defs>
    <filter id="grain" x="-10%" y="-10%" width="120%" height="120%">
      <feTurbulence type="fractalNoise" baseFrequency="0.84" numOctaves="3" seed="A1"/>
      <feColorMatrix type="saturate" values="0"/>
      <feComponentTransfer>
        <feFuncA type="table" tableValues="0 0.17"/>
      </feComponentTransfer>
    </filter>
  </defs>
  <g>
    <rect x="0.0" y="0.0" width="1024.0" height="1536.0" rx="0" fill="#eee5d3" stroke="none" stroke-width="1" opacity="1.0"/>
<rect x="26.0" y="26.0" width="972.0" height="1484.0" rx="0" fill="none" stroke="#9b8c73" stroke-width="1.2" opacity="0.58"/>
<rect x="381.0" y="106.0" width="135.0" height="326.0" rx="0" fill="#2f6f72" stroke="none" stroke-width="1" opacity="0.18907043849833316" transform="rotate(1.0764036812448108 448.5 269.0)"/>
<rect x="77.0" y="1368.0" width="332.0" height="143.0" rx="0" fill="#777269" stroke="none" stroke-width="1" opacity="0.16567719774048148" transform="rotate(1.4137333553344433 243.0 1439.5)"/>
<rect x="601.0" y="925.0" width="279.0" height="131.0" rx="0" fill="#777269" stroke="none" stroke-width="1" opacity="0.18777747431997655" transform="rotate(-3.3657523127269373 740.5 990.5)"/>
<rect x="191.0" y="784.0" width="150.0" height="261.0" rx="0" fill="#d7cbb4" stroke="none" stroke-width="1" opacity="0.40506510624699366" transform="rotate(0.3706278079591634 266.0 914.5)"/>
<rect x="315.0" y="1180.0" width="121.0" height="329.0" rx="0" fill="#777269" stroke="none" stroke-width="1" opacity="0.31114344803949" transform="rotate(-3.4961581469396683 375.5 1344.5)"/>
<rect x="371.0" y="982.0" width="344.0" height="183.0" rx="0" fill="#d7cbb4" stroke="none" stroke-width="1" opacity="0.22814061319226386" transform="rotate(-1.2767136508083854 543.0 1073.5)"/>
<rect x="167.0" y="1344.0" width="175.0" height="268.0" rx="0" fill="#2f6f72" stroke="none" stroke-width="1" opacity="0.364417134727162" transform="rotate(2.177888918714334 254.5 1478.0)"/>
<rect x="-11.0" y="411.0" width="267.0" height="124.0" rx="0" fill="#24211d" stroke="none" stroke-width="1" opacity="0.2061392167265184" transform="rotate(-4.427324071155119 122.5 473.0)"/>
<rect x="292.0" y="277.0" width="203.0" height="213.0" rx="0" fill="#2f6f72" stroke="none" stroke-width="1" opacity="0.392211391852081" transform="rotate(2.3575412006003775 393.5 383.5)"/>
<rect x="376.0" y="579.0" width="135.0" height="327.0" rx="0" fill="#ad5638" stroke="none" stroke-width="1" opacity="0.3144102942544566" transform="rotate(-0.5303781226108164 443.5 742.5)"/>
<rect x="326.0" y="1222.0" width="358.0" height="104.0" rx="0" fill="#9b762f" stroke="none" stroke-width="1" opacity="0.27029516941200354" transform="rotate(4.437722514212036 505.0 1274.0)"/>
<rect x="534.0" y="325.0" width="461.0" height="128.0" rx="0" fill="#d7cbb4" stroke="none" stroke-width="1" opacity="0.23000962959968785" transform="rotate(2.966371377162214 764.5 389.0)"/>
<rect x="-43.0" y="998.0" width="444.0" height="314.0" rx="0" fill="#2f6f72" stroke="none" stroke-width="1" opacity="0.24016562444116346" transform="rotate(-1.3519498504486278 179.0 1155.0)"/>
<rect x="864.0" y="759.0" width="210.0" height="275.0" rx="0" fill="#777269" stroke="none" stroke-width="1" opacity="0.36966210932783317" transform="rotate(0.5703573311426391 969.0 896.5)"/>
<rect x="-36.0" y="1218.0" width="324.0" height="144.0" rx="0" fill="#9b762f" stroke="none" stroke-width="1" opacity="0.33574887869759457" transform="rotate(0.7019227602096993 126.0 1290.0)"/>
<rect x="91.0" y="44.0" width="271.0" height="87.0" rx="0" fill="#2f6f72" stroke="none" stroke-width="1" opacity="0.32869967029470304" transform="rotate(0.8658800128033679 226.5 87.5)"/>
<rect x="433.0" y="362.0" width="475.0" height="249.0" rx="0" fill="#d7cbb4" stroke="none" stroke-width="1" opacity="0.2237913862595536" transform="rotate(3.4233889883511477 670.5 486.5)"/>
<rect x="439.0" y="-14.0" width="192.0" height="211.0" rx="0" fill="#ad5638" stroke="none" stroke-width="1" opacity="0.19046083349151677" transform="rotate(-1.048443170466835 535.0 91.5)"/>
<rect x="598.0" y="20.0" width="177.0" height="261.0" rx="0" fill="#2f6f72" stroke="none" stroke-width="1" opacity="0.32428362133969313" transform="rotate(0.6743442872286822 686.5 150.5)"/>
<rect x="-33.0" y="1243.0" width="122.0" height="160.0" rx="0" fill="#ad5638" stroke="none" stroke-width="1" opacity="0.17734417557993643" transform="rotate(4.026220650941111 28.0 1323.0)"/>
<line x1="66.0" y1="42.0" x2="66.0" y2="1494.0" stroke="#9b8c73" stroke-width="1" opacity="0.12"/>
<line x1="158.0" y1="42.0" x2="158.0" y2="1494.0" stroke="#9b8c73" stroke-width="1" opacity="0.12"/>
<line x1="250.0" y1="42.0" x2="250.0" y2="1494.0" stroke="#9b8c73" stroke-width="1" opacity="0.12"/>
<line x1="342.0" y1="42.0" x2="342.0" y2="1494.0" stroke="#9b8c73" stroke-width="1" opacity="0.12"/>
<line x1="434.0" y1="42.0" x2="434.0" y2="1494.0" stroke="#9b8c73" stroke-width="1" opacity="0.12"/>
<line x1="526.0" y1="42.0" x2="526.0" y2="1494.0" stroke="#9b8c73" stroke-width="1" opacity="0.12"/>
<line x1="618.0" y1="42.0" x2="618.0" y2="1494.0" stroke="#9b8c73" stroke-width="1" opacity="0.12"/>
<line x1="710.0" y1="42.0" x2="710.0" y2="1494.0" stroke="#9b8c73" stroke-width="1" opacity="0.12"/>
<line x1="802.0" y1="42.0" x2="802.0" y2="1494.0" stroke="#9b8c73" stroke-width="1" opacity="0.12"/>
<line x1="894.0" y1="42.0" x2="894.0" y2="1494.0" stroke="#9b8c73" stroke-width="1" opacity="0.12"/>
<line x1="986.0" y1="42.0" x2="986.0" y2="1494.0" stroke="#9b8c73" stroke-width="1" opacity="0.12"/>
<line x1="42.0" y1="72.0" x2="982.0" y2="72.0" stroke="#9b8c73" stroke-width="1" opacity="0.1"/>
<line x1="42.0" y1="178.0" x2="982.0" y2="178.0" stroke="#9b8c73" stroke-width="1" opacity="0.1"/>
<line x1="42.0" y1="284.0" x2="982.0" y2="284.0" stroke="#9b8c73" stroke-width="1" opacity="0.1"/>
<line x1="42.0" y1="390.0" x2="982.0" y2="390.0" stroke="#9b8c73" stroke-width="1" opacity="0.1"/>
<line x1="42.0" y1="496.0" x2="982.0" y2="496.0" stroke="#9b8c73" stroke-width="1" opacity="0.1"/>
<line x1="42.0" y1="602.0" x2="982.0" y2="602.0" stroke="#9b8c73" stroke-width="1" opacity="0.1"/>
<line x1="42.0" y1="708.0" x2="982.0" y2="708.0" stroke="#9b8c73" stroke-width="1" opacity="0.1"/>
<line x1="42.0" y1="814.0" x2="982.0" y2="814.0" stroke="#9b8c73" stroke-width="1" opacity="0.1"/>
<line x1="42.0" y1="920.0" x2="982.0" y2="920.0" stroke="#9b8c73" stroke-width="1" opacity="0.1"/>
<line x1="42.0" y1="1026.0" x2="982.0" y2="1026.0" stroke="#9b8c73" stroke-width="1" opacity="0.1"/>
<line x1="42.0" y1="1132.0" x2="982.0" y2="1132.0" stroke="#9b8c73" stroke-width="1" opacity="0.1"/>
<line x1="42.0" y1="1238.0" x2="982.0" y2="1238.0" stroke="#9b8c73" stroke-width="1" opacity="0.1"/>
<line x1="42.0" y1="1344.0" x2="982.0" y2="1344.0" stroke="#9b8c73" stroke-width="1" opacity="0.1"/>
<line x1="42.0" y1="1450.0" x2="982.0" y2="1450.0" stroke="#9b8c73" stroke-width="1" opacity="0.1"/>
<circle cx="164.0" cy="269.0" r="5.5" fill="#1d1a16" stroke="none" stroke-width="2" opacity="0.10569280909674393"/>
<circle cx="501.0" cy="607.0" r="3.0" fill="#1d1a16" stroke="none" stroke-width="2" opacity="0.07016954387814017"/>
<circle cx="661.0" cy="1034.0" r="3.6" fill="#1d1a16" stroke="none" stroke-width="2" opacity="0.09640166002664396"/>
<circle cx="1005.0" cy="211.0" r="1.5" fill="#1d1a16" stroke="none" stroke-width="2" opacity="0.06369597750237523"/>
<circle cx="605.0" cy="1142.0" r="3.7" fill="#1d1a16" stroke="none" stroke-width="2" opacity="0.05255242673420113"/>
<circle cx="885.0" cy="395.0" r="4.9" fill="#1d1a16" stroke="none" stroke-width="2" opacity="0.09574183092288481"/>
<circle cx="895.0" cy="1328.0" r="5.2" fill="#1d1a16" stroke="none" stroke-width="2" opacity="0.08781368101247441"/>
<circle cx="392.0" cy="1506.0" r="2.8" fill="#1d1a16" stroke="none" stroke-width="2" opacity="0.08871385762894031"/>
<circle cx="68.0" cy="1182.0" r="4.1" fill="#1d1a16" stroke="none" stroke-width="2" opacity="0.059230029424542155"/>
<circle cx="398.0" cy="1259.0" r="3.0" fill="#1d1a16" stroke="none" stroke-width="2" opacity="0.07769727960066136"/>
<circle cx="732.0" cy="874.0" r="4.6" fill="#1d1a16" stroke="none" stroke-width="2" opacity="0.04646503514934541"/>
<circle cx="902.0" cy="875.0" r="1.8" fill="#1d1a16" stroke="none" stroke-width="2" opacity="0.04056385762403819"/>
<circle cx="448.0" cy="548.0" r="3.4" fill="#1d1a16" stroke="none" stroke-width="2" opacity="0.044589323921682744"/>
<circle cx="521.0" cy="1087.0" r="5.0" fill="#1d1a16" stroke="none" stroke-width="2" opacity="0.0777520583698029"/>
<circle cx="521.0" cy="338.0" r="2.2" fill="#1d1a16" stroke="none" stroke-width="2" opacity="0.07165989657563346"/>
<circle cx="274.0" cy="286.0" r="3.3" fill="#1d1a16" stroke="none" stroke-width="2" opacity="0.06459006343088883"/>
<circle cx="214.0" cy="186.0" r="3.5" fill="#1d1a16" stroke="none" stroke-width="2" opacity="0.0548164728251919"/>
<circle cx="466.0" cy="732.0" r="2.3" fill="#1d1a16" stroke="none" stroke-width="2" opacity="0.09612994933960989"/>
<circle cx="789.0" cy="1008.0" r="3.4" fill="#1d1a16" stroke="none" stroke-width="2" opacity="0.07592115583746789"/>
<circle cx="807.0" cy="709.0" r="3.2" fill="#1d1a16" stroke="none" stroke-width="2" opacity="0.08176316089776173"/>
<circle cx="1001.0" cy="448.0" r="1.3" fill="#1d1a16" stroke="none" stroke-width="2" opacity="0.05654480939530873"/>
<circle cx="644.0" cy="953.0" r="4.0" fill="#1d1a16" stroke="none" stroke-width="2" opacity="0.0667824883006837"/>
<circle cx="883.0" cy="1220.0" r="4.4" fill="#1d1a16" stroke="none" stroke-width="2" opacity="0.09009593397910731"/>
<circle cx="840.0" cy="960.0" r="3.9" fill="#1d1a16" stroke="none" stroke-width="2" opacity="0.06016747720419948"/>
<circle cx="856.0" cy="251.0" r="3.1" fill="#1d1a16" stroke="none" stroke-width="2" opacity="0.053632455258044706"/>
<circle cx="293.0" cy="1477.0" r="1.9" fill="#1d1a16" stroke="none" stroke-width="2" opacity="0.04676231832810962"/>
<circle cx="773.0" cy="512.0" r="2.2" fill="#1d1a16" stroke="none" stroke-width="2" opacity="0.053539470492244265"/>
<circle cx="251.0" cy="1011.0" r="5.5" fill="#1d1a16" stroke="none" stroke-width="2" opacity="0.10752399049418285"/>
<circle cx="62.0" cy="1374.0" r="5.1" fill="#1d1a16" stroke="none" stroke-width="2" opacity="0.06347866552886296"/>
<circle cx="680.0" cy="368.0" r="1.3" fill="#1d1a16" stroke="none" stroke-width="2" opacity="0.08808347321669222"/>
<circle cx="807.0" cy="692.0" r="3.4" fill="#1d1a16" stroke="none" stroke-width="2" opacity="0.040649531027303176"/>
<circle cx="698.0" cy="496.0" r="1.3" fill="#1d1a16" stroke="none" stroke-width="2" opacity="0.09848307388391069"/>
<circle cx="270.0" cy="823.0" r="3.5" fill="#1d1a16" stroke="none" stroke-width="2" opacity="0.06410945825757595"/>
<circle cx="312.0" cy="1103.0" r="2.8" fill="#1d1a16" stroke="none" stroke-width="2" opacity="0.04326203306282714"/>
<circle cx="871.0" cy="340.0" r="4.6" fill="#1d1a16" stroke="none" stroke-width="2" opacity="0.07059743169286409"/>
<circle cx="795.0" cy="1472.0" r="3.7" fill="#1d1a16" stroke="none" stroke-width="2" opacity="0.095232181247236"/>
<circle cx="376.0" cy="1037.0" r="5.6" fill="#1d1a16" stroke="none" stroke-width="2" opacity="0.1081846628649891"/>
<circle cx="593.0" cy="971.0" r="4.4" fill="#1d1a16" stroke="none" stroke-width="2" opacity="0.0832787438709279"/>
<circle cx="497.0" cy="836.0" r="2.9" fill="#1d1a16" stroke="none" stroke-width="2" opacity="0.06567891884628554"/>
<circle cx="144.0" cy="798.0" r="3.5" fill="#1d1a16" stroke="none" stroke-width="2" opacity="0.04006021721000662"/>
<circle cx="605.0" cy="197.0" r="4.1" fill="#1d1a16" stroke="none" stroke-width="2" opacity="0.07702708096850103"/>
<circle cx="415.0" cy="1250.0" r="1.8" fill="#1d1a16" stroke="none" stroke-width="2" opacity="0.0870254524002595"/>
<circle cx="145.0" cy="486.0" r="5.4" fill="#1d1a16" stroke="none" stroke-width="2" opacity="0.08874403100629683"/>
<circle cx="23.0" cy="806.0" r="2.5" fill="#1d1a16" stroke="none" stroke-width="2" opacity="0.09206870185351929"/>
<circle cx="957.0" cy="491.0" r="3.2" fill="#1d1a16" stroke="none" stroke-width="2" opacity="0.07763090641929983"/>
<circle cx="551.0" cy="784.0" r="2.0" fill="#1d1a16" stroke="none" stroke-width="2" opacity="0.05520653551575791"/>
<circle cx="420.0" cy="142.0" r="2.6" fill="#1d1a16" stroke="none" stroke-width="2" opacity="0.0615455022916721"/>
<circle cx="57.0" cy="1100.0" r="3.9" fill="#1d1a16" stroke="none" stroke-width="2" opacity="0.07582135105407392"/>
<circle cx="392.0" cy="141.0" r="1.5" fill="#1d1a16" stroke="none" stroke-width="2" opacity="0.10344146342836766"/>
<circle cx="358.0" cy="583.0" r="3.0" fill="#1d1a16" stroke="none" stroke-width="2" opacity="0.0663187595602094"/>
<circle cx="776.0" cy="236.0" r="1.5" fill="#1d1a16" stroke="none" stroke-width="2" opacity="0.08100799791470764"/>
<circle cx="661.0" cy="1442.0" r="2.0" fill="#1d1a16" stroke="none" stroke-width="2" opacity="0.04299463278430862"/>
<circle cx="357.0" cy="1495.0" r="1.5" fill="#1d1a16" stroke="none" stroke-width="2" opacity="0.050165670856379144"/>
<circle cx="212.0" cy="1143.0" r="5.0" fill="#1d1a16" stroke="none" stroke-width="2" opacity="0.07664361281267398"/>
<circle cx="337.0" cy="1126.0" r="3.5" fill="#1d1a16" stroke="none" stroke-width="2" opacity="0.0639891590103043"/>
<circle cx="358.0" cy="790.0" r="4.9" fill="#1d1a16" stroke="none" stroke-width="2" opacity="0.090358026435883"/>
<circle cx="349.0" cy="835.0" r="1.9" fill="#1d1a16" stroke="none" stroke-width="2" opacity="0.10263611927499358"/>
<circle cx="363.0" cy="581.0" r="1.8" fill="#1d1a16" stroke="none" stroke-width="2" opacity="0.050745871686735326"/>
<circle cx="454.0" cy="569.0" r="3.4" fill="#1d1a16" stroke="none" stroke-width="2" opacity="0.051454218770946136"/>
<circle cx="911.0" cy="1506.0" r="1.8" fill="#1d1a16" stroke="none" stroke-width="2" opacity="0.10207619332242909"/>
<circle cx="910.0" cy="1312.0" r="3.5" fill="#1d1a16" stroke="none" stroke-width="2" opacity="0.03836359199844613"/>
<circle cx="901.0" cy="1401.0" r="5.5" fill="#1d1a16" stroke="none" stroke-width="2" opacity="0.07246166032189746"/>
<circle cx="220.0" cy="528.0" r="2.8" fill="#1d1a16" stroke="none" stroke-width="2" opacity="0.08358667649691769"/>
<circle cx="204.0" cy="212.0" r="3.9" fill="#1d1a16" stroke="none" stroke-width="2" opacity="0.051990967122777516"/>
<circle cx="489.0" cy="689.0" r="2.4" fill="#1d1a16" stroke="none" stroke-width="2" opacity="0.0866206964695387"/>
<circle cx="164.0" cy="797.0" r="2.2" fill="#1d1a16" stroke="none" stroke-width="2" opacity="0.08081096986482644"/>
<circle cx="65.0" cy="1099.0" r="1.7" fill="#1d1a16" stroke="none" stroke-width="2" opacity="0.07075316224333877"/>
<circle cx="662.0" cy="24.0" r="5.4" fill="#1d1a16" stroke="none" stroke-width="2" opacity="0.03963864180556752"/>
<circle cx="48.0" cy="1087.0" r="4.8" fill="#1d1a16" stroke="none" stroke-width="2" opacity="0.0678548951107523"/>
<circle cx="336.0" cy="134.0" r="1.6" fill="#1d1a16" stroke="none" stroke-width="2" opacity="0.049183292360735716"/>
<circle cx="373.0" cy="146.0" r="2.8" fill="#1d1a16" stroke="none" stroke-width="2" opacity="0.10966737106801293"/>
<circle cx="682.0" cy="1310.0" r="2.5" fill="#1d1a16" stroke="none" stroke-width="2" opacity="0.07393167287333985"/>
<circle cx="940.0" cy="216.0" r="5.5" fill="#1d1a16" stroke="none" stroke-width="2" opacity="0.09558330728750232"/>
<circle cx="550.0" cy="1240.0" r="3.7" fill="#1d1a16" stroke="none" stroke-width="2" opacity="0.09418261961285548"/>
<circle cx="556.0" cy="698.0" r="5.6" fill="#1d1a16" stroke="none" stroke-width="2" opacity="0.04731073854533749"/>
<circle cx="968.0" cy="422.0" r="2.9" fill="#1d1a16" stroke="none" stroke-width="2" opacity="0.0663459497472092"/>
<circle cx="299.0" cy="1151.0" r="3.9" fill="#1d1a16" stroke="none" stroke-width="2" opacity="0.050466535445263166"/>
<circle cx="138.0" cy="995.0" r="3.8" fill="#1d1a16" stroke="none" stroke-width="2" opacity="0.08828192281609754"/>
<circle cx="470.0" cy="180.0" r="3.6" fill="#1d1a16" stroke="none" stroke-width="2" opacity="0.09263393161750592"/>
<circle cx="935.0" cy="309.0" r="4.0" fill="#1d1a16" stroke="none" stroke-width="2" opacity="0.08896541735886479"/>
<circle cx="951.0" cy="1415.0" r="4.9" fill="#1d1a16" stroke="none" stroke-width="2" opacity="0.1026927506488925"/>
<circle cx="237.0" cy="334.0" r="1.6" fill="#1d1a16" stroke="none" stroke-width="2" opacity="0.1071646733802096"/>
<circle cx="255.0" cy="254.0" r="3.7" fill="#1d1a16" stroke="none" stroke-width="2" opacity="0.10999865630287696"/>
<circle cx="668.0" cy="747.0" r="3.9" fill="#1d1a16" stroke="none" stroke-width="2" opacity="0.06437973532546509"/>
<circle cx="903.0" cy="1413.0" r="1.9" fill="#1d1a16" stroke="none" stroke-width="2" opacity="0.054077666606699756"/>
<circle cx="767.0" cy="1493.0" r="4.6" fill="#1d1a16" stroke="none" stroke-width="2" opacity="0.07790678329884648"/>
<circle cx="248.0" cy="682.0" r="4.9" fill="#1d1a16" stroke="none" stroke-width="2" opacity="0.09013761706418782"/>
<circle cx="264.0" cy="645.0" r="1.5" fill="#1d1a16" stroke="none" stroke-width="2" opacity="0.10616996606208652"/>
<circle cx="241.0" cy="956.0" r="1.2" fill="#1d1a16" stroke="none" stroke-width="2" opacity="0.0759305778628864"/>
<circle cx="645.0" cy="931.0" r="4.5" fill="#1d1a16" stroke="none" stroke-width="2" opacity="0.04014731015139237"/>
<circle cx="185.0" cy="343.0" r="1.8" fill="#1d1a16" stroke="none" stroke-width="2" opacity="0.03874996158626189"/>
<circle cx="1006.0" cy="202.0" r="4.4" fill="#1d1a16" stroke="none" stroke-width="2" opacity="0.06046498844130853"/>
<circle cx="161.0" cy="1500.0" r="5.5" fill="#1d1a16" stroke="none" stroke-width="2" opacity="0.10143921325745428"/>
<circle cx="352.0" cy="1099.0" r="5.4" fill="#1d1a16" stroke="none" stroke-width="2" opacity="0.042787886805217466"/>
<circle cx="676.0" cy="1290.0" r="2.3" fill="#1d1a16" stroke="none" stroke-width="2" opacity="0.10039851018300149"/>
<rect x="142.0" y="210.0" width="610.0" height="740.0" rx="0" fill="#d7cbb4" stroke="#9b8c73" stroke-width="1.3" opacity="0.88" transform="rotate(-1.5 447.0 580.0)"/>
<line x1="176.0" y1="262.0" x2="718.0" y2="262.0" stroke="#9b8c73" stroke-width="1.15" opacity="0.58"/>
<line x1="176.0" y1="352.9" x2="718.0" y2="352.9" stroke="#9b8c73" stroke-width="1.15" opacity="0.58"/>
<line x1="176.0" y1="443.7" x2="718.0" y2="443.7" stroke="#9b8c73" stroke-width="1.15" opacity="0.58"/>
<line x1="176.0" y1="534.6" x2="718.0" y2="534.6" stroke="#9b8c73" stroke-width="1.15" opacity="0.58"/>
<line x1="176.0" y1="625.4" x2="718.0" y2="625.4" stroke="#9b8c73" stroke-width="1.15" opacity="0.58"/>
<line x1="176.0" y1="716.3" x2="718.0" y2="716.3" stroke="#9b8c73" stroke-width="1.15" opacity="0.58"/>
<line x1="176.0" y1="807.1" x2="718.0" y2="807.1" stroke="#9b8c73" stroke-width="1.15" opacity="0.58"/>
<line x1="176.0" y1="898.0" x2="718.0" y2="898.0" stroke="#9b8c73" stroke-width="1.15" opacity="0.58"/>
<line x1="196.0" y1="244.0" x2="196.0" y2="916.0" stroke="#2f6f72" stroke-width="1" opacity="0.3"/>
<line x1="363.3" y1="244.0" x2="363.3" y2="916.0" stroke="#2f6f72" stroke-width="1" opacity="0.3"/>
<line x1="530.7" y1="244.0" x2="530.7" y2="916.0" stroke="#2f6f72" stroke-width="1" opacity="0.3"/>
<rect x="597.0" y="351.0" width="80.0" height="10.0" rx="0" fill="#ad5638" stroke="none" stroke-width="1" opacity="0.23351027972188332"/>
<rect x="182.0" y="665.0" width="45.0" height="10.0" rx="0" fill="#9b762f" stroke="none" stroke-width="1" opacity="0.1614729014702231"/>
<rect x="213.0" y="645.0" width="103.0" height="10.0" rx="0" fill="#ad5638" stroke="none" stroke-width="1" opacity="0.302632581557008"/>
<rect x="175.0" y="400.0" width="79.0" height="10.0" rx="0" fill="#1d1a16" stroke="none" stroke-width="1" opacity="0.27397630020912916"/>
<rect x="538.0" y="551.0" width="79.0" height="10.0" rx="0" fill="#2f6f72" stroke="none" stroke-width="1" opacity="0.3394300624059944"/>
<rect x="603.0" y="864.0" width="54.0" height="10.0" rx="0" fill="#2f6f72" stroke="none" stroke-width="1" opacity="0.2988196040270352"/>
<rect x="192.0" y="542.0" width="88.0" height="10.0" rx="0" fill="#9b762f" stroke="none" stroke-width="1" opacity="0.20628850253960193"/>
<ellipse cx="500.0" cy="660.0" rx="245.0" ry="118.0" fill="#caa651" stroke="#594124" stroke-width="10" opacity="0.86" transform="rotate(-6 500.0 660.0)"/>
<ellipse cx="500.0" cy="660.0" rx="155.0" ry="58.0" fill="#eee5d3" stroke="#70512a" stroke-width="6" opacity="0.84" transform="rotate(-6 500.0 660.0)"/>
<circle cx="690.0" cy="750.0" r="110.0" fill="#b58c3f" stroke="#4f3b22" stroke-width="9" opacity="0.78"/>
<circle cx="690.0" cy="750.0" r="60.0" fill="#eee5d3" stroke="#6d5129" stroke-width="5" opacity="0.84"/>
<path d="M250 740 C330 820 455 828 565 760 C612 730 648 730 690 750" fill="none" stroke="#44362a" stroke-width="12" opacity="0.56"/>
<circle cx="502.0" cy="664.0" r="90.0" fill="none" stroke="#2f6f72" stroke-width="3" opacity="0.18"/>
<circle cx="502.0" cy="664.0" r="130.0" fill="none" stroke="#2f6f72" stroke-width="3" opacity="0.18"/>
<circle cx="502.0" cy="664.0" r="180.0" fill="none" stroke="#2f6f72" stroke-width="3" opacity="0.18"/>
<circle cx="502.0" cy="664.0" r="230.0" fill="none" stroke="#2f6f72" stroke-width="3" opacity="0.18"/>
<circle cx="502.0" cy="664.0" r="285.0" fill="none" stroke="#2f6f72" stroke-width="3" opacity="0.18"/>
<line x1="680.0" y1="660.0" x2="732.0" y2="660.0" stroke="#1d1a16" stroke-width="2" opacity="0.2"/>
<line x1="664.4" y1="693.4" x2="711.9" y2="703.1" stroke="#1d1a16" stroke-width="2" opacity="0.2"/>
<line x1="620.4" y1="720.9" x2="655.2" y2="738.8" stroke="#1d1a16" stroke-width="2" opacity="0.2"/>
<line x1="555.6" y1="738.0" x2="571.7" y2="760.8" stroke="#1d1a16" stroke-width="2" opacity="0.2"/>
<line x1="481.2" y1="741.6" x2="475.7" y2="765.4" stroke="#1d1a16" stroke-width="2" opacity="0.2"/>
<line x1="410.0" y1="731.0" x2="384.0" y2="751.8" stroke="#1d1a16" stroke-width="2" opacity="0.2"/>
<line x1="354.4" y1="708.2" x2="312.3" y2="722.3" stroke="#1d1a16" stroke-width="2" opacity="0.2"/>
<line x1="323.9" y1="677.0" x2="273.1" y2="682.0" stroke="#1d1a16" stroke-width="2" opacity="0.2"/>
<line x1="323.9" y1="643.0" x2="273.1" y2="638.0" stroke="#1d1a16" stroke-width="2" opacity="0.2"/>
<line x1="354.4" y1="611.8" x2="312.3" y2="597.7" stroke="#1d1a16" stroke-width="2" opacity="0.2"/>
<line x1="410.0" y1="589.0" x2="384.0" y2="568.2" stroke="#1d1a16" stroke-width="2" opacity="0.2"/>
<line x1="481.2" y1="578.4" x2="475.7" y2="554.6" stroke="#1d1a16" stroke-width="2" opacity="0.2"/>
<line x1="555.6" y1="582.0" x2="571.7" y2="559.2" stroke="#1d1a16" stroke-width="2" opacity="0.2"/>
<line x1="620.4" y1="599.1" x2="655.2" y2="581.2" stroke="#1d1a16" stroke-width="2" opacity="0.2"/>
<line x1="664.4" y1="626.6" x2="711.9" y2="616.9" stroke="#1d1a16" stroke-width="2" opacity="0.2"/>
<rect x="120.0" y="1060.0" width="720.0" height="115.0" rx="0" fill="#2f3335" stroke="none" stroke-width="1" opacity="0.28" transform="rotate(2 480.0 1117.5)"/>
<line x1="135.0" y1="1045.0" x2="143.0" y2="1198.0" stroke="#2f6f72" stroke-width="1.2" opacity="0.18"/>
<line x1="163.0" y1="1045.0" x2="160.0" y2="1198.0" stroke="#2f6f72" stroke-width="1.2" opacity="0.18"/>
<line x1="191.0" y1="1045.0" x2="183.0" y2="1198.0" stroke="#2f6f72" stroke-width="1.2" opacity="0.18"/>
<line x1="219.0" y1="1045.0" x2="221.0" y2="1198.0" stroke="#2f6f72" stroke-width="1.2" opacity="0.18"/>
<line x1="247.0" y1="1045.0" x2="247.0" y2="1198.0" stroke="#2f6f72" stroke-width="1.2" opacity="0.18"/>
<line x1="275.0" y1="1045.0" x2="272.0" y2="1198.0" stroke="#2f6f72" stroke-width="1.2" opacity="0.18"/>
<line x1="303.0" y1="1045.0" x2="307.0" y2="1198.0" stroke="#2f6f72" stroke-width="1.2" opacity="0.18"/>
<line x1="331.0" y1="1045.0" x2="330.0" y2="1198.0" stroke="#2f6f72" stroke-width="1.2" opacity="0.18"/>
<line x1="359.0" y1="1045.0" x2="364.0" y2="1198.0" stroke="#2f6f72" stroke-width="1.2" opacity="0.18"/>
<line x1="387.0" y1="1045.0" x2="380.0" y2="1198.0" stroke="#2f6f72" stroke-width="1.2" opacity="0.18"/>
<line x1="415.0" y1="1045.0" x2="413.0" y2="1198.0" stroke="#2f6f72" stroke-width="1.2" opacity="0.18"/>
<line x1="443.0" y1="1045.0" x2="441.0" y2="1198.0" stroke="#2f6f72" stroke-width="1.2" opacity="0.18"/>
<line x1="471.0" y1="1045.0" x2="481.0" y2="1198.0" stroke="#2f6f72" stroke-width="1.2" opacity="0.18"/>
<line x1="499.0" y1="1045.0" x2="500.0" y2="1198.0" stroke="#2f6f72" stroke-width="1.2" opacity="0.18"/>
<line x1="527.0" y1="1045.0" x2="525.0" y2="1198.0" stroke="#2f6f72" stroke-width="1.2" opacity="0.18"/>
<line x1="555.0" y1="1045.0" x2="546.0" y2="1198.0" stroke="#2f6f72" stroke-width="1.2" opacity="0.18"/>
<line x1="583.0" y1="1045.0" x2="578.0" y2="1198.0" stroke="#2f6f72" stroke-width="1.2" opacity="0.18"/>
<line x1="611.0" y1="1045.0" x2="602.0" y2="1198.0" stroke="#2f6f72" stroke-width="1.2" opacity="0.18"/>
<line x1="639.0" y1="1045.0" x2="639.0" y2="1198.0" stroke="#2f6f72" stroke-width="1.2" opacity="0.18"/>
<line x1="667.0" y1="1045.0" x2="660.0" y2="1198.0" stroke="#2f6f72" stroke-width="1.2" opacity="0.18"/>
<line x1="695.0" y1="1045.0" x2="702.0" y2="1198.0" stroke="#2f6f72" stroke-width="1.2" opacity="0.18"/>
<line x1="723.0" y1="1045.0" x2="726.0" y2="1198.0" stroke="#2f6f72" stroke-width="1.2" opacity="0.18"/>
<line x1="751.0" y1="1045.0" x2="742.0" y2="1198.0" stroke="#2f6f72" stroke-width="1.2" opacity="0.18"/>
<line x1="779.0" y1="1045.0" x2="781.0" y2="1198.0" stroke="#2f6f72" stroke-width="1.2" opacity="0.18"/>
<line x1="807.0" y1="1045.0" x2="815.0" y2="1198.0" stroke="#2f6f72" stroke-width="1.2" opacity="0.18"/>
<line x1="835.0" y1="1045.0" x2="825.0" y2="1198.0" stroke="#2f6f72" stroke-width="1.2" opacity="0.18"/>
<circle cx="785.0" cy="226.0" r="58.0" fill="#f1e7cf" stroke="#9b8c73" stroke-width="2" opacity="0.76"/>
  </g>
  <rect x="0" y="0" width="1024" height="1536" filter="url(#grain)" opacity="0.27"/>
</svg>
